<svg width="570" height="133" viewBox="0 0 570 133" fill="none" xmlns="http://www.w3.org/2000/svg">
<g filter="url(#filter0_b_474_2035)">
<rect width="570" height="133" rx="10" fill="#2B648A"/>
<rect x="0.5" y="0.5" width="569" height="132" rx="9.5" stroke="white" stroke-linecap="round" stroke-dasharray="7 7"/>
</g>
<rect width="24" height="24" transform="translate(18 29.9917)" fill="#2B648A"/>
<g clip-path="url(#clip0_474_2035)">
<path d="M30 51.9917C24.477 51.9917 20 47.5147 20 41.9917C20 36.4687 24.477 31.9917 30 31.9917C35.523 31.9917 40 36.4687 40 41.9917C40 47.5147 35.523 51.9917 30 51.9917ZM29.003 45.9917L36.073 38.9207L34.659 37.5067L29.003 43.1637L26.174 40.3347L24.76 41.7487L29.003 45.9917Z" fill="white"/>
</g>
<path d="M63.34 35.4317V49.9917H61V35.4317H63.34ZM80.2077 35.4317V50.5117H80.1477L69.6477 40.3317L69.7077 49.9917H67.3477V34.9317H67.4677L77.9277 45.2317L77.8877 35.4317H80.2077ZM93.0627 35.4317V37.6717H86.5627V41.7717H92.2227V43.9917H86.5627V49.9917H84.2227V35.4317H93.0627ZM95.0023 42.7317C95.0023 41.3984 95.3357 40.165 96.0023 39.0317C96.669 37.885 97.569 36.9717 98.7023 36.2917C99.849 35.6117 101.096 35.2717 102.442 35.2717C103.776 35.2717 105.009 35.6117 106.142 36.2917C107.289 36.9717 108.202 37.885 108.882 39.0317C109.562 40.1784 109.902 41.4117 109.902 42.7317C109.902 44.0784 109.562 45.3184 108.882 46.4517C108.216 47.585 107.309 48.485 106.162 49.1517C105.016 49.8184 103.776 50.1517 102.442 50.1517C101.096 50.1517 99.849 49.825 98.7023 49.1717C97.569 48.505 96.669 47.605 96.0023 46.4717C95.3357 45.3384 95.0023 44.0917 95.0023 42.7317ZM97.4023 42.7317C97.4023 43.6784 97.629 44.545 98.0823 45.3317C98.5357 46.1184 99.149 46.745 99.9223 47.2117C100.709 47.6784 101.569 47.9117 102.502 47.9117C103.422 47.9117 104.262 47.685 105.022 47.2317C105.782 46.765 106.382 46.1384 106.822 45.3517C107.276 44.5517 107.502 43.6784 107.502 42.7317C107.502 41.785 107.276 40.9117 106.822 40.1117C106.369 39.3117 105.756 38.6784 104.982 38.2117C104.209 37.745 103.362 37.5117 102.442 37.5117C101.509 37.5117 100.656 37.745 99.8823 38.2117C99.1223 38.6784 98.5157 39.3117 98.0623 40.1117C97.6223 40.9117 97.4023 41.785 97.4023 42.7317ZM120.972 49.9917L117.692 44.9317H117.452H115.352V49.9917H113.012V35.4317H117.112C118.738 35.4317 120.038 35.845 121.012 36.6717C121.998 37.4984 122.492 38.645 122.492 40.1117C122.492 41.005 122.298 41.8384 121.912 42.6117C121.538 43.3717 120.945 43.9584 120.132 44.3717L123.672 49.9917H120.972ZM115.352 42.6917H117.432C118.365 42.6917 119.038 42.4384 119.452 41.9317C119.878 41.4117 120.092 40.8317 120.092 40.1917C120.092 39.8184 120.012 39.445 119.852 39.0717C119.692 38.685 119.418 38.3584 119.032 38.0917C118.645 37.8117 118.138 37.6717 117.512 37.6717H115.352V42.6917ZM141.11 34.9117V49.9917H138.79V41.5717L133.69 48.8117H133.65L128.67 41.9117V49.9917H126.41V34.9117H126.43L133.69 45.1917L141.07 34.9117H141.11ZM152.582 46.5717H147.282L145.882 49.9917H143.582L150.022 34.8317H150.162L156.602 49.9917H153.922L152.582 46.5717ZM151.802 44.5717L149.982 39.9717L148.102 44.5717H151.802ZM166.634 35.4317V37.6717H162.874V49.9917H160.554V37.6717H156.894V35.4317H166.634ZM171.934 35.4317V49.9917H169.594V35.4317H171.934ZM175.041 42.7317C175.041 41.3984 175.375 40.165 176.041 39.0317C176.708 37.885 177.608 36.9717 178.741 36.2917C179.888 35.6117 181.135 35.2717 182.481 35.2717C183.815 35.2717 185.048 35.6117 186.181 36.2917C187.328 36.9717 188.241 37.885 188.921 39.0317C189.601 40.1784 189.941 41.4117 189.941 42.7317C189.941 44.0784 189.601 45.3184 188.921 46.4517C188.255 47.585 187.348 48.485 186.201 49.1517C185.055 49.8184 183.815 50.1517 182.481 50.1517C181.135 50.1517 179.888 49.825 178.741 49.1717C177.608 48.505 176.708 47.605 176.041 46.4717C175.375 45.3384 175.041 44.0917 175.041 42.7317ZM177.441 42.7317C177.441 43.6784 177.668 44.545 178.121 45.3317C178.575 46.1184 179.188 46.745 179.961 47.2117C180.748 47.6784 181.608 47.9117 182.541 47.9117C183.461 47.9117 184.301 47.685 185.061 47.2317C185.821 46.765 186.421 46.1384 186.861 45.3517C187.315 44.5517 187.541 43.6784 187.541 42.7317C187.541 41.785 187.315 40.9117 186.861 40.1117C186.408 39.3117 185.795 38.6784 185.021 38.2117C184.248 37.745 183.401 37.5117 182.481 37.5117C181.548 37.5117 180.695 37.745 179.921 38.2117C179.161 38.6784 178.555 39.3117 178.101 40.1117C177.661 40.9117 177.441 41.785 177.441 42.7317ZM205.911 35.4317V50.5117H205.851L195.351 40.3317L195.411 49.9917H193.051V34.9317H193.171L203.631 45.2317L203.591 35.4317H205.911ZM225.432 49.9917L224.272 48.4517C223.845 48.985 223.285 49.4117 222.592 49.7317C221.912 50.0517 221.119 50.2117 220.212 50.2117C219.305 50.2117 218.485 50.025 217.752 49.6517C217.019 49.265 216.439 48.7384 216.012 48.0717C215.585 47.405 215.372 46.6584 215.372 45.8317C215.372 44.8184 215.725 43.925 216.432 43.1517C217.139 42.3784 218.019 41.8384 219.072 41.5317L218.672 40.9917C217.939 39.9117 217.572 38.965 217.572 38.1517C217.572 37.5917 217.712 37.0517 217.992 36.5317C218.285 36.0117 218.705 35.5917 219.252 35.2717C219.812 34.9517 220.472 34.7917 221.232 34.7917C222.032 34.7917 222.765 34.9584 223.432 35.2917C224.112 35.6117 224.672 36.025 225.112 36.5317L223.952 38.0717C223.499 37.645 223.079 37.3184 222.692 37.0917C222.319 36.865 221.959 36.7517 221.612 36.7517C221.105 36.7517 220.705 36.905 220.412 37.2117C220.119 37.5184 219.972 37.8984 219.972 38.3517C219.972 38.7384 220.079 39.1117 220.292 39.4717C220.505 39.8184 220.619 39.9984 220.632 40.0117L224.012 44.5117L225.232 41.3117H227.372L225.392 46.3517L228.132 49.9917H225.432ZM220.532 48.1317C221.679 48.1317 222.519 47.6984 223.052 46.8317L220.292 43.1317C219.599 43.1984 219.005 43.4784 218.512 43.9717C218.032 44.465 217.792 45.045 217.792 45.7117C217.792 46.4184 218.052 46.9984 218.572 47.4517C219.105 47.905 219.759 48.1317 220.532 48.1317ZM244.847 46.5717H239.547L238.147 49.9917H235.847L242.287 34.8317H242.427L248.867 49.9917H246.187L244.847 46.5717ZM244.067 44.5717L242.247 39.9717L240.367 44.5717H244.067ZM266.052 34.9117V49.9917H263.732V41.5717L258.632 48.8117H258.592L253.612 41.9117V49.9917H251.352V34.9117H251.372L258.632 45.1917L266.012 34.9117H266.052ZM279.703 35.4317V37.6717H272.383V41.5517H278.903V43.7917H272.383V47.7517H279.983V49.9917H270.043V35.4317H279.703ZM296.067 35.4317V50.5117H296.007L285.507 40.3317L285.567 49.9917H283.207V34.9317H283.327L293.787 45.2317L293.747 35.4317H296.067ZM302.422 35.4317V49.9917H300.082V35.4317H302.422ZM315.13 35.4317V37.6717H311.37V49.9917H309.05V37.6717H305.39V35.4317H315.13ZM320.43 35.4317V49.9917H318.09V35.4317H320.43ZM334.098 35.4317V37.6717H326.778V41.5517H333.298V43.7917H326.778V47.7517H334.378V49.9917H324.438V35.4317H334.098ZM345.242 38.3917C343.988 37.7384 342.875 37.4117 341.902 37.4117C341.182 37.4117 340.608 37.5717 340.182 37.8917C339.768 38.2117 339.562 38.6517 339.562 39.2117C339.562 39.7584 339.822 40.2184 340.342 40.5917C340.875 40.9517 341.615 41.3117 342.562 41.6717C343.282 41.925 343.895 42.2184 344.402 42.5517C344.922 42.8717 345.348 43.3117 345.682 43.8717C346.015 44.4317 346.182 45.1384 346.182 45.9917C346.182 46.765 345.988 47.465 345.602 48.0917C345.215 48.7184 344.655 49.2184 343.922 49.5917C343.188 49.965 342.322 50.1517 341.322 50.1517C340.442 50.1517 339.575 50.0184 338.722 49.7517C337.868 49.4717 337.108 49.0917 336.442 48.6117L337.482 46.7917C337.975 47.165 338.555 47.4784 339.222 47.7317C339.902 47.9717 340.528 48.0917 341.102 48.0917C341.808 48.0917 342.428 47.925 342.962 47.5917C343.495 47.245 343.762 46.7184 343.762 46.0117C343.762 45.4517 343.535 44.985 343.082 44.6117C342.642 44.2384 342.022 43.8984 341.222 43.5917C340.395 43.285 339.708 42.985 339.162 42.6917C338.615 42.385 338.142 41.965 337.742 41.4317C337.355 40.885 337.162 40.205 337.162 39.3917C337.162 38.205 337.562 37.2517 338.362 36.5317C339.175 35.7984 340.242 35.405 341.562 35.3517C342.522 35.3517 343.362 35.465 344.082 35.6917C344.815 35.905 345.495 36.2117 346.122 36.6117L345.242 38.3917Z" fill="white"/>
<path d="M69.928 88.512L67.224 81.6L64.264 88.544L59.656 76.48H61.464L64.456 84.896L66.456 79.648L65.224 76.48H66.76L69.976 84.72L72.824 76.48H74.488L69.928 88.512ZM78.025 86.88C78.5797 86.88 79.1183 86.688 79.641 86.304L80.329 87.408C79.977 87.6427 79.593 87.8293 79.177 87.968C78.7717 88.096 78.377 88.16 77.993 88.16C77.257 88.16 76.6117 88.0107 76.057 87.712C75.513 87.4027 75.0917 86.9813 74.793 86.448C74.4943 85.9147 74.345 85.312 74.345 84.64C74.345 83.9893 74.505 83.3973 74.825 82.864C75.1557 82.32 75.6037 81.8933 76.169 81.584C76.7343 81.264 77.353 81.104 78.025 81.104C78.889 81.104 79.609 81.36 80.185 81.872C80.7717 82.3733 81.1717 83.0773 81.385 83.984L76.137 85.824C76.329 86.1547 76.585 86.416 76.905 86.608C77.2357 86.7893 77.609 86.88 78.025 86.88ZM77.913 82.288C77.305 82.288 76.8037 82.5013 76.409 82.928C76.0143 83.3547 75.817 83.8987 75.817 84.56C75.817 84.72 75.8223 84.8427 75.833 84.928L79.689 83.504C79.529 83.1413 79.2997 82.848 79.001 82.624C78.713 82.4 78.3503 82.288 77.913 82.288ZM90.168 88.144C89.6773 88.144 89.208 88.0587 88.76 87.888C88.3227 87.7173 87.9653 87.4667 87.688 87.136L88.328 86.272C88.5947 86.528 88.872 86.7253 89.16 86.864C89.4587 87.0027 89.752 87.072 90.04 87.072C90.392 87.072 90.68 87.0027 90.904 86.864C91.128 86.7253 91.24 86.512 91.24 86.224C91.24 86 91.1707 85.8187 91.032 85.68C90.8933 85.5413 90.7333 85.44 90.552 85.376C90.3813 85.312 90.088 85.216 89.672 85.088C88.5413 84.7253 87.976 84.08 87.976 83.152C87.976 82.5973 88.1787 82.1227 88.584 81.728C89 81.3333 89.576 81.136 90.312 81.136C90.7813 81.136 91.1973 81.1947 91.56 81.312C91.9227 81.4293 92.2587 81.616 92.568 81.872L91.976 82.784C91.8053 82.6027 91.5867 82.4587 91.32 82.352C91.064 82.2453 90.8187 82.1867 90.584 82.176C90.2853 82.176 90.0293 82.2507 89.816 82.4C89.6027 82.5387 89.496 82.7307 89.496 82.976C89.496 83.1787 89.5653 83.3493 89.704 83.488C89.8427 83.616 89.9867 83.712 90.136 83.776C90.2853 83.8293 90.5787 83.9253 91.016 84.064C91.56 84.2453 91.9813 84.48 92.28 84.768C92.5893 85.056 92.744 85.4453 92.744 85.936C92.744 86.576 92.52 87.104 92.072 87.52C91.624 87.936 90.9893 88.144 90.168 88.144ZM98.9393 81.12C99.5579 81.12 100.07 81.3067 100.475 81.68C100.881 82.0427 101.089 82.5173 101.099 83.104V88H99.5953V83.616C99.5739 83.2427 99.4619 82.9493 99.2593 82.736C99.0566 82.5227 98.7526 82.4107 98.3473 82.4C97.9633 82.4 97.6166 82.5067 97.3073 82.72C96.9979 82.9333 96.7526 83.232 96.5713 83.616C96.4006 84 96.3153 84.4267 96.3153 84.896V88H94.8273V75.6H96.2833V82.576C96.5286 82.1387 96.8806 81.7867 97.3393 81.52C97.8086 81.2533 98.3419 81.12 98.9393 81.12ZM103.095 84.624C103.095 83.9733 103.25 83.3813 103.559 82.848C103.879 82.304 104.316 81.8773 104.871 81.568C105.436 81.2587 106.071 81.104 106.775 81.104C107.479 81.104 108.103 81.2587 108.647 81.568C109.202 81.8773 109.628 82.2987 109.927 82.832C110.236 83.3653 110.391 83.9627 110.391 84.624C110.391 85.2853 110.236 85.888 109.927 86.432C109.628 86.9653 109.202 87.3867 108.647 87.696C108.092 88.0053 107.458 88.16 106.743 88.16C106.05 88.16 105.426 88.016 104.871 87.728C104.316 87.4293 103.879 87.0133 103.559 86.48C103.25 85.9467 103.095 85.328 103.095 84.624ZM104.599 84.64C104.599 85.056 104.69 85.44 104.871 85.792C105.063 86.144 105.319 86.4213 105.639 86.624C105.97 86.8267 106.332 86.928 106.727 86.928C107.346 86.928 107.858 86.7093 108.263 86.272C108.668 85.8347 108.871 85.2907 108.871 84.64C108.871 83.9893 108.668 83.4453 108.263 83.008C107.858 82.56 107.346 82.336 106.727 82.336C106.322 82.336 105.959 82.4427 105.639 82.656C105.319 82.8587 105.063 83.136 104.871 83.488C104.69 83.84 104.599 84.224 104.599 84.64ZM121.387 81.376L118.331 88.4L116.203 83.856L114.267 88.4L111.195 81.376H112.667L114.443 85.392L115.675 82.512L115.147 81.376H116.443L118.235 85.488L119.915 81.376H121.387ZM134.35 81.376L130.078 91.184H128.606L130.126 87.776L127.054 81.376H128.734L130.878 86.096L132.974 81.376H134.35ZM135.173 84.624C135.173 83.9733 135.328 83.3813 135.637 82.848C135.957 82.304 136.394 81.8773 136.949 81.568C137.514 81.2587 138.149 81.104 138.853 81.104C139.557 81.104 140.181 81.2587 140.725 81.568C141.28 81.8773 141.706 82.2987 142.005 82.832C142.314 83.3653 142.469 83.9627 142.469 84.624C142.469 85.2853 142.314 85.888 142.005 86.432C141.706 86.9653 141.28 87.3867 140.725 87.696C140.17 88.0053 139.536 88.16 138.821 88.16C138.128 88.16 137.504 88.016 136.949 87.728C136.394 87.4293 135.957 87.0133 135.637 86.48C135.328 85.9467 135.173 85.328 135.173 84.624ZM136.677 84.64C136.677 85.056 136.768 85.44 136.949 85.792C137.141 86.144 137.397 86.4213 137.717 86.624C138.048 86.8267 138.41 86.928 138.805 86.928C139.424 86.928 139.936 86.7093 140.341 86.272C140.746 85.8347 140.949 85.2907 140.949 84.64C140.949 83.9893 140.746 83.4453 140.341 83.008C139.936 82.56 139.424 82.336 138.805 82.336C138.4 82.336 138.037 82.4427 137.717 82.656C137.397 82.8587 137.141 83.136 136.949 83.488C136.768 83.84 136.677 84.224 136.677 84.64ZM150.628 81.376V88H149.284L149.188 86.736C148.964 87.184 148.617 87.552 148.148 87.84C147.679 88.1173 147.156 88.256 146.58 88.256C145.972 88.256 145.471 88.0747 145.076 87.712C144.692 87.3387 144.489 86.8587 144.468 86.272V81.376H145.956V85.744C145.977 86.1173 146.084 86.416 146.276 86.64C146.479 86.8533 146.777 86.9653 147.172 86.976C147.535 86.976 147.865 86.8693 148.164 86.656C148.463 86.432 148.697 86.128 148.868 85.744C149.049 85.36 149.14 84.9333 149.14 84.464V81.376H150.628ZM165.08 81.376V88H163.592V86.912C163.358 87.2213 163.016 87.5093 162.568 87.776C162.12 88.032 161.614 88.16 161.048 88.16C160.419 88.16 159.848 88.0267 159.336 87.76C158.835 87.4827 158.435 87.0827 158.136 86.56C157.848 86.0373 157.704 85.4133 157.704 84.688C157.704 83.9627 157.854 83.3333 158.152 82.8C158.462 82.256 158.872 81.84 159.384 81.552C159.907 81.2533 160.483 81.104 161.112 81.104C161.678 81.104 162.168 81.2267 162.584 81.472C163 81.7173 163.336 82.0373 163.592 82.432L163.704 81.376H165.08ZM161.448 86.928C161.992 86.928 162.456 86.7787 162.84 86.48C163.235 86.1707 163.486 85.7547 163.592 85.232V83.92C163.464 83.4507 163.198 83.072 162.792 82.784C162.387 82.4853 161.923 82.336 161.4 82.336C161.006 82.336 160.638 82.432 160.296 82.624C159.966 82.816 159.699 83.088 159.496 83.44C159.304 83.7813 159.208 84.1707 159.208 84.608C159.208 85.0347 159.31 85.424 159.512 85.776C159.715 86.128 159.987 86.4107 160.328 86.624C160.67 86.8267 161.043 86.928 161.448 86.928ZM169.159 75.6V88H167.671V75.6H169.159ZM173.237 75.6V88H171.749V75.6H173.237ZM183.034 78.464V81.392H184.842V82.576H183.034V88H181.53V82.576H180.314V81.392H181.53V78.464H183.034ZM190.767 81.12C191.386 81.12 191.898 81.3067 192.303 81.68C192.709 82.0427 192.917 82.5173 192.927 83.104V88H191.423V83.616C191.402 83.2427 191.29 82.9493 191.087 82.736C190.885 82.5227 190.581 82.4107 190.175 82.4C189.791 82.4 189.445 82.5067 189.135 82.72C188.826 82.9333 188.581 83.232 188.399 83.616C188.229 84 188.143 84.4267 188.143 84.896V88H186.655V75.6H188.111V82.576C188.357 82.1387 188.709 81.7867 189.167 81.52C189.637 81.2533 190.17 81.12 190.767 81.12ZM198.603 86.88C199.158 86.88 199.696 86.688 200.219 86.304L200.907 87.408C200.555 87.6427 200.171 87.8293 199.755 87.968C199.35 88.096 198.955 88.16 198.571 88.16C197.835 88.16 197.19 88.0107 196.635 87.712C196.091 87.4027 195.67 86.9813 195.371 86.448C195.072 85.9147 194.923 85.312 194.923 84.64C194.923 83.9893 195.083 83.3973 195.403 82.864C195.734 82.32 196.182 81.8933 196.747 81.584C197.312 81.264 197.931 81.104 198.603 81.104C199.467 81.104 200.187 81.36 200.763 81.872C201.35 82.3733 201.75 83.0773 201.963 83.984L196.715 85.824C196.907 86.1547 197.163 86.416 197.483 86.608C197.814 86.7893 198.187 86.88 198.603 86.88ZM198.491 82.288C197.883 82.288 197.382 82.5013 196.987 82.928C196.592 83.3547 196.395 83.8987 196.395 84.56C196.395 84.72 196.4 84.8427 196.411 84.928L200.267 83.504C200.107 83.1413 199.878 82.848 199.579 82.624C199.291 82.4 198.928 82.288 198.491 82.288ZM212.986 81.12C213.605 81.12 214.117 81.3067 214.522 81.68C214.927 82.0427 215.135 82.5173 215.146 83.104V88H213.642V83.616C213.621 83.2427 213.509 82.9493 213.306 82.736C213.103 82.5227 212.799 82.4107 212.394 82.4C212.01 82.4 211.663 82.5067 211.354 82.72C211.045 82.9333 210.799 83.232 210.618 83.616C210.447 84 210.362 84.4267 210.362 84.896V88H208.874V75.6H210.33V82.576C210.575 82.1387 210.927 81.7867 211.386 81.52C211.855 81.2533 212.389 81.12 212.986 81.12ZM217.142 84.624C217.142 83.9733 217.297 83.3813 217.606 82.848C217.926 82.304 218.363 81.8773 218.918 81.568C219.483 81.2587 220.118 81.104 220.822 81.104C221.526 81.104 222.15 81.2587 222.694 81.568C223.249 81.8773 223.675 82.2987 223.974 82.832C224.283 83.3653 224.438 83.9627 224.438 84.624C224.438 85.2853 224.283 85.888 223.974 86.432C223.675 86.9653 223.249 87.3867 222.694 87.696C222.139 88.0053 221.505 88.16 220.79 88.16C220.097 88.16 219.473 88.016 218.918 87.728C218.363 87.4293 217.926 87.0133 217.606 86.48C217.297 85.9467 217.142 85.328 217.142 84.624ZM218.646 84.64C218.646 85.056 218.737 85.44 218.918 85.792C219.11 86.144 219.366 86.4213 219.686 86.624C220.017 86.8267 220.379 86.928 220.774 86.928C221.393 86.928 221.905 86.7093 222.31 86.272C222.715 85.8347 222.918 85.2907 222.918 84.64C222.918 83.9893 222.715 83.4453 222.31 83.008C221.905 82.56 221.393 82.336 220.774 82.336C220.369 82.336 220.006 82.4427 219.686 82.656C219.366 82.8587 219.11 83.136 218.918 83.488C218.737 83.84 218.646 84.224 218.646 84.64ZM228.581 78.464V81.392H230.389V82.576H228.581V88H227.077V82.576H225.861V81.392H227.077V78.464H228.581ZM235.306 86.88C235.861 86.88 236.4 86.688 236.922 86.304L237.61 87.408C237.258 87.6427 236.874 87.8293 236.458 87.968C236.053 88.096 235.658 88.16 235.274 88.16C234.538 88.16 233.893 88.0107 233.338 87.712C232.794 87.4027 232.373 86.9813 232.074 86.448C231.776 85.9147 231.626 85.312 231.626 84.64C231.626 83.9893 231.786 83.3973 232.106 82.864C232.437 82.32 232.885 81.8933 233.45 81.584C234.016 81.264 234.634 81.104 235.306 81.104C236.17 81.104 236.89 81.36 237.466 81.872C238.053 82.3733 238.453 83.0773 238.666 83.984L233.418 85.824C233.61 86.1547 233.866 86.416 234.186 86.608C234.517 86.7893 234.89 86.88 235.306 86.88ZM235.194 82.288C234.586 82.288 234.085 82.5013 233.69 82.928C233.296 83.3547 233.098 83.8987 233.098 84.56C233.098 84.72 233.104 84.8427 233.114 84.928L236.97 83.504C236.81 83.1413 236.581 82.848 236.282 82.624C235.994 82.4 235.632 82.288 235.194 82.288ZM242.003 75.6V88H240.515V75.6H242.003ZM251.143 81.376V88H249.655V81.376H251.143ZM249.543 78.992C249.543 78.7573 249.634 78.56 249.815 78.4C249.997 78.24 250.205 78.16 250.439 78.16C250.674 78.16 250.877 78.24 251.047 78.4C251.229 78.56 251.319 78.7573 251.319 78.992C251.319 79.2267 251.229 79.424 251.047 79.584C250.877 79.744 250.674 79.824 250.439 79.824C250.205 79.824 249.997 79.744 249.815 79.584C249.634 79.424 249.543 79.2267 249.543 78.992ZM257.846 81.12C258.464 81.12 258.976 81.3067 259.382 81.68C259.787 82.0427 259.995 82.5173 260.006 83.104V88H258.502V83.616C258.48 83.2427 258.368 82.9493 258.166 82.736C257.963 82.5227 257.659 82.4107 257.254 82.4C256.667 82.4 256.182 82.6347 255.798 83.104C255.414 83.5733 255.222 84.1707 255.222 84.896V88H253.734V81.376H255.078L255.174 82.656C255.408 82.176 255.76 81.8027 256.23 81.536C256.699 81.2587 257.238 81.12 257.846 81.12ZM263.121 82.704H261.985V81.36H263.121V78.576C263.121 77.616 263.34 76.88 263.777 76.368C264.215 75.856 264.855 75.6 265.697 75.6C265.932 75.6 266.183 75.6373 266.449 75.712C266.716 75.776 266.951 75.872 267.153 76L266.513 77.088C266.353 76.9173 266.129 76.832 265.841 76.832C265.436 76.832 265.127 76.9707 264.913 77.248C264.711 77.5253 264.609 77.9733 264.609 78.592V81.36H266.721V82.704H264.609V88H263.121V82.704ZM267.704 84.624C267.704 83.9733 267.859 83.3813 268.168 82.848C268.488 82.304 268.926 81.8773 269.48 81.568C270.046 81.2587 270.68 81.104 271.384 81.104C272.088 81.104 272.712 81.2587 273.256 81.568C273.811 81.8773 274.238 82.2987 274.536 82.832C274.846 83.3653 275 83.9627 275 84.624C275 85.2853 274.846 85.888 274.536 86.432C274.238 86.9653 273.811 87.3867 273.256 87.696C272.702 88.0053 272.067 88.16 271.352 88.16C270.659 88.16 270.035 88.016 269.48 87.728C268.926 87.4293 268.488 87.0133 268.168 86.48C267.859 85.9467 267.704 85.328 267.704 84.624ZM269.208 84.64C269.208 85.056 269.299 85.44 269.48 85.792C269.672 86.144 269.928 86.4213 270.248 86.624C270.579 86.8267 270.942 86.928 271.336 86.928C271.955 86.928 272.467 86.7093 272.872 86.272C273.278 85.8347 273.48 85.2907 273.48 84.64C273.48 83.9893 273.278 83.4453 272.872 83.008C272.467 82.56 271.955 82.336 271.336 82.336C270.931 82.336 270.568 82.4427 270.248 82.656C269.928 82.8587 269.672 83.136 269.48 83.488C269.299 83.84 269.208 84.224 269.208 84.64ZM278.439 82.944C278.61 82.5813 278.85 82.2613 279.159 81.984C279.479 81.7067 279.815 81.4933 280.167 81.344C280.519 81.1947 280.828 81.1147 281.095 81.104L281.031 82.592C280.551 82.5707 280.114 82.6667 279.719 82.88C279.335 83.0933 279.031 83.392 278.807 83.776C278.594 84.1493 278.487 84.5493 278.487 84.976V88H276.999V81.376H278.327L278.439 82.944ZM291.511 81.104C292.151 81.104 292.657 81.2853 293.031 81.648C293.415 82.0107 293.617 82.4907 293.639 83.088V88H292.151V83.632C292.119 82.8533 291.767 82.4427 291.095 82.4C290.711 82.4 290.364 82.5173 290.055 82.752C289.756 82.976 289.521 83.2747 289.351 83.648C289.18 84.0213 289.089 84.4213 289.079 84.848V88H287.575V83.632C287.543 82.8533 287.18 82.4427 286.487 82.4C286.113 82.4 285.772 82.5173 285.463 82.752C285.164 82.976 284.929 83.28 284.759 83.664C284.588 84.0373 284.503 84.4373 284.503 84.864V88H283.015V81.376H284.359L284.471 82.624C284.727 82.144 285.073 81.7707 285.511 81.504C285.959 81.2373 286.465 81.104 287.031 81.104C287.564 81.104 288.012 81.232 288.375 81.488C288.737 81.7333 288.972 82.0747 289.079 82.512C289.356 82.0747 289.708 81.7333 290.135 81.488C290.561 81.232 291.02 81.104 291.511 81.104ZM303.018 81.376V88H301.53V86.912C301.295 87.2213 300.954 87.5093 300.506 87.776C300.058 88.032 299.551 88.16 298.986 88.16C298.357 88.16 297.786 88.0267 297.274 87.76C296.773 87.4827 296.373 87.0827 296.074 86.56C295.786 86.0373 295.642 85.4133 295.642 84.688C295.642 83.9627 295.791 83.3333 296.09 82.8C296.399 82.256 296.81 81.84 297.322 81.552C297.845 81.2533 298.421 81.104 299.05 81.104C299.615 81.104 300.106 81.2267 300.522 81.472C300.938 81.7173 301.274 82.0373 301.53 82.432L301.642 81.376H303.018ZM299.386 86.928C299.93 86.928 300.394 86.7787 300.778 86.48C301.173 86.1707 301.423 85.7547 301.53 85.232V83.92C301.402 83.4507 301.135 83.072 300.73 82.784C300.325 82.4853 299.861 82.336 299.338 82.336C298.943 82.336 298.575 82.432 298.234 82.624C297.903 82.816 297.637 83.088 297.434 83.44C297.242 83.7813 297.146 84.1707 297.146 84.608C297.146 85.0347 297.247 85.424 297.45 85.776C297.653 86.128 297.925 86.4107 298.266 86.624C298.607 86.8267 298.981 86.928 299.386 86.928ZM307.753 78.464V81.392H309.561V82.576H307.753V88H306.249V82.576H305.033V81.392H306.249V78.464H307.753ZM312.862 81.376V88H311.374V81.376H312.862ZM311.262 78.992C311.262 78.7573 311.353 78.56 311.534 78.4C311.715 78.24 311.923 78.16 312.158 78.16C312.393 78.16 312.595 78.24 312.766 78.4C312.947 78.56 313.038 78.7573 313.038 78.992C313.038 79.2267 312.947 79.424 312.766 79.584C312.595 79.744 312.393 79.824 312.158 79.824C311.923 79.824 311.715 79.744 311.534 79.584C311.353 79.424 311.262 79.2267 311.262 78.992ZM314.876 84.624C314.876 83.9733 315.031 83.3813 315.34 82.848C315.66 82.304 316.098 81.8773 316.652 81.568C317.218 81.2587 317.852 81.104 318.556 81.104C319.26 81.104 319.884 81.2587 320.428 81.568C320.983 81.8773 321.41 82.2987 321.708 82.832C322.018 83.3653 322.172 83.9627 322.172 84.624C322.172 85.2853 322.018 85.888 321.708 86.432C321.41 86.9653 320.983 87.3867 320.428 87.696C319.874 88.0053 319.239 88.16 318.524 88.16C317.831 88.16 317.207 88.016 316.652 87.728C316.098 87.4293 315.66 87.0133 315.34 86.48C315.031 85.9467 314.876 85.328 314.876 84.624ZM316.38 84.64C316.38 85.056 316.471 85.44 316.652 85.792C316.844 86.144 317.1 86.4213 317.42 86.624C317.751 86.8267 318.114 86.928 318.508 86.928C319.127 86.928 319.639 86.7093 320.044 86.272C320.45 85.8347 320.652 85.2907 320.652 84.64C320.652 83.9893 320.45 83.4453 320.044 83.008C319.639 82.56 319.127 82.336 318.508 82.336C318.103 82.336 317.74 82.4427 317.42 82.656C317.1 82.8587 316.844 83.136 316.652 83.488C316.471 83.84 316.38 84.224 316.38 84.64ZM328.283 81.12C328.902 81.12 329.414 81.3067 329.819 81.68C330.224 82.0427 330.432 82.5173 330.443 83.104V88H328.939V83.616C328.918 83.2427 328.806 82.9493 328.603 82.736C328.4 82.5227 328.096 82.4107 327.691 82.4C327.104 82.4 326.619 82.6347 326.235 83.104C325.851 83.5733 325.659 84.1707 325.659 84.896V88H324.171V81.376H325.515L325.611 82.656C325.846 82.176 326.198 81.8027 326.667 81.536C327.136 81.2587 327.675 81.12 328.283 81.12ZM344.877 81.376V88H343.389V86.912C343.155 87.2213 342.813 87.5093 342.365 87.776C341.917 88.032 341.411 88.16 340.845 88.16C340.216 88.16 339.645 88.0267 339.133 87.76C338.632 87.4827 338.232 87.0827 337.933 86.56C337.645 86.0373 337.501 85.4133 337.501 84.688C337.501 83.9627 337.651 83.3333 337.949 82.8C338.259 82.256 338.669 81.84 339.181 81.552C339.704 81.2533 340.28 81.104 340.909 81.104C341.475 81.104 341.965 81.2267 342.381 81.472C342.797 81.7173 343.133 82.0373 343.389 82.432L343.501 81.376H344.877ZM341.245 86.928C341.789 86.928 342.253 86.7787 342.637 86.48C343.032 86.1707 343.283 85.7547 343.389 85.232V83.92C343.261 83.4507 342.995 83.072 342.589 82.784C342.184 82.4853 341.72 82.336 341.197 82.336C340.803 82.336 340.435 82.432 340.093 82.624C339.763 82.816 339.496 83.088 339.293 83.44C339.101 83.7813 339.005 84.1707 339.005 84.608C339.005 85.0347 339.107 85.424 339.309 85.776C339.512 86.128 339.784 86.4107 340.125 86.624C340.467 86.8267 340.84 86.928 341.245 86.928ZM351.58 81.12C352.199 81.12 352.711 81.3067 353.116 81.68C353.521 82.0427 353.729 82.5173 353.74 83.104V88H352.236V83.616C352.215 83.2427 352.103 82.9493 351.9 82.736C351.697 82.5227 351.393 82.4107 350.988 82.4C350.401 82.4 349.916 82.6347 349.532 83.104C349.148 83.5733 348.956 84.1707 348.956 84.896V88H347.468V81.376H348.812L348.908 82.656C349.143 82.176 349.495 81.8027 349.964 81.536C350.433 81.2587 350.972 81.12 351.58 81.12ZM363.224 75.6V88H361.72V86.96C361.4 87.3333 361.005 87.6267 360.536 87.84C360.077 88.0533 359.57 88.16 359.016 88.16C358.397 88.16 357.837 88.0107 357.336 87.712C356.834 87.4133 356.44 86.9973 356.152 86.464C355.874 85.92 355.736 85.296 355.736 84.592C355.736 83.8773 355.885 83.2587 356.184 82.736C356.482 82.2027 356.893 81.7973 357.416 81.52C357.938 81.2427 358.53 81.104 359.192 81.104C359.693 81.104 360.173 81.2107 360.632 81.424C361.101 81.6267 361.469 81.9093 361.736 82.272V75.6H363.224ZM359.48 86.88C360.056 86.88 360.541 86.7253 360.936 86.416C361.341 86.1067 361.602 85.6907 361.72 85.168V83.92C361.592 83.44 361.32 83.0507 360.904 82.752C360.488 82.4427 360.013 82.288 359.48 82.288C359.074 82.288 358.701 82.3893 358.36 82.592C358.018 82.784 357.746 83.056 357.544 83.408C357.341 83.7493 357.24 84.1387 357.24 84.576C357.24 85.0027 357.341 85.392 357.544 85.744C357.746 86.096 358.018 86.3733 358.36 86.576C358.701 86.7787 359.074 86.88 359.48 86.88ZM372.731 88.144C372.24 88.144 371.771 88.0587 371.323 87.888C370.885 87.7173 370.528 87.4667 370.251 87.136L370.891 86.272C371.157 86.528 371.435 86.7253 371.723 86.864C372.021 87.0027 372.315 87.072 372.603 87.072C372.955 87.072 373.243 87.0027 373.467 86.864C373.691 86.7253 373.803 86.512 373.803 86.224C373.803 86 373.733 85.8187 373.595 85.68C373.456 85.5413 373.296 85.44 373.115 85.376C372.944 85.312 372.651 85.216 372.235 85.088C371.104 84.7253 370.539 84.08 370.539 83.152C370.539 82.5973 370.741 82.1227 371.147 81.728C371.563 81.3333 372.139 81.136 372.875 81.136C373.344 81.136 373.76 81.1947 374.123 81.312C374.485 81.4293 374.821 81.616 375.131 81.872L374.539 82.784C374.368 82.6027 374.149 82.4587 373.883 82.352C373.627 82.2453 373.381 82.1867 373.147 82.176C372.848 82.176 372.592 82.2507 372.379 82.4C372.165 82.5387 372.059 82.7307 372.059 82.976C372.059 83.1787 372.128 83.3493 372.267 83.488C372.405 83.616 372.549 83.712 372.699 83.776C372.848 83.8293 373.141 83.9253 373.579 84.064C374.123 84.2453 374.544 84.48 374.843 84.768C375.152 85.056 375.307 85.4453 375.307 85.936C375.307 86.576 375.083 87.104 374.635 87.52C374.187 87.936 373.552 88.144 372.731 88.144ZM380.494 86.88C381.048 86.88 381.587 86.688 382.11 86.304L382.798 87.408C382.446 87.6427 382.062 87.8293 381.646 87.968C381.24 88.096 380.846 88.16 380.462 88.16C379.726 88.16 379.08 88.0107 378.526 87.712C377.982 87.4027 377.56 86.9813 377.262 86.448C376.963 85.9147 376.814 85.312 376.814 84.64C376.814 83.9893 376.974 83.3973 377.294 82.864C377.624 82.32 378.072 81.8933 378.638 81.584C379.203 81.264 379.822 81.104 380.494 81.104C381.358 81.104 382.078 81.36 382.654 81.872C383.24 82.3733 383.64 83.0773 383.854 83.984L378.606 85.824C378.798 86.1547 379.054 86.416 379.374 86.608C379.704 86.7893 380.078 86.88 380.494 86.88ZM380.382 82.288C379.774 82.288 379.272 82.5013 378.878 82.928C378.483 83.3547 378.286 83.8987 378.286 84.56C378.286 84.72 378.291 84.8427 378.302 84.928L382.158 83.504C381.998 83.1413 381.768 82.848 381.47 82.624C381.182 82.4 380.819 82.288 380.382 82.288ZM387.142 82.944C387.313 82.5813 387.553 82.2613 387.862 81.984C388.182 81.7067 388.518 81.4933 388.87 81.344C389.222 81.1947 389.532 81.1147 389.798 81.104L389.734 82.592C389.254 82.5707 388.817 82.6667 388.422 82.88C388.038 83.0933 387.734 83.392 387.51 83.776C387.297 84.1493 387.19 84.5493 387.19 84.976V88H385.702V81.376H387.03L387.142 82.944ZM398.022 81.376L394.486 88.192H394.406L390.726 81.376H392.502L394.502 85.6L396.358 81.376H398.022ZM401.112 81.376V88H399.624V81.376H401.112ZM399.512 78.992C399.512 78.7573 399.603 78.56 399.784 78.4C399.965 78.24 400.173 78.16 400.408 78.16C400.643 78.16 400.845 78.24 401.016 78.4C401.197 78.56 401.288 78.7573 401.288 78.992C401.288 79.2267 401.197 79.424 401.016 79.584C400.845 79.744 400.643 79.824 400.408 79.824C400.173 79.824 399.965 79.744 399.784 79.584C399.603 79.424 399.512 79.2267 399.512 78.992ZM409.078 87.376C408.78 87.6213 408.422 87.8133 408.006 87.952C407.601 88.0907 407.185 88.16 406.758 88.16C406.044 88.16 405.409 88.016 404.854 87.728C404.31 87.44 403.884 87.0347 403.574 86.512C403.276 85.9787 403.126 85.3653 403.126 84.672C403.126 83.9893 403.286 83.3867 403.606 82.864C403.926 82.3307 404.353 81.92 404.886 81.632C405.42 81.344 405.996 81.2 406.614 81.2C407.628 81.2 408.465 81.4773 409.126 82.032L408.374 83.008C408.161 82.848 407.916 82.7147 407.638 82.608C407.361 82.4907 407.062 82.432 406.742 82.432C406.348 82.432 405.985 82.5333 405.654 82.736C405.334 82.928 405.078 83.1947 404.886 83.536C404.705 83.8773 404.614 84.256 404.614 84.672C404.614 85.088 404.71 85.4667 404.902 85.808C405.105 86.1493 405.377 86.4213 405.718 86.624C406.06 86.8267 406.449 86.928 406.886 86.928C407.43 86.928 407.905 86.768 408.31 86.448L409.078 87.376ZM414.103 86.88C414.658 86.88 415.196 86.688 415.719 86.304L416.407 87.408C416.055 87.6427 415.671 87.8293 415.255 87.968C414.85 88.096 414.455 88.16 414.071 88.16C413.335 88.16 412.69 88.0107 412.135 87.712C411.591 87.4027 411.17 86.9813 410.871 86.448C410.572 85.9147 410.423 85.312 410.423 84.64C410.423 83.9893 410.583 83.3973 410.903 82.864C411.234 82.32 411.682 81.8933 412.247 81.584C412.812 81.264 413.431 81.104 414.103 81.104C414.967 81.104 415.687 81.36 416.263 81.872C416.85 82.3733 417.25 83.0773 417.463 83.984L412.215 85.824C412.407 86.1547 412.663 86.416 412.983 86.608C413.314 86.7893 413.687 86.88 414.103 86.88ZM413.991 82.288C413.383 82.288 412.882 82.5013 412.487 82.928C412.092 83.3547 411.895 83.8987 411.895 84.56C411.895 84.72 411.9 84.8427 411.911 84.928L415.767 83.504C415.607 83.1413 415.378 82.848 415.079 82.624C414.791 82.4 414.428 82.288 413.991 82.288ZM421.184 88.144C420.693 88.144 420.224 88.0587 419.776 87.888C419.338 87.7173 418.981 87.4667 418.704 87.136L419.344 86.272C419.61 86.528 419.888 86.7253 420.176 86.864C420.474 87.0027 420.768 87.072 421.056 87.072C421.408 87.072 421.696 87.0027 421.92 86.864C422.144 86.7253 422.256 86.512 422.256 86.224C422.256 86 422.186 85.8187 422.048 85.68C421.909 85.5413 421.749 85.44 421.568 85.376C421.397 85.312 421.104 85.216 420.688 85.088C419.557 84.7253 418.992 84.08 418.992 83.152C418.992 82.5973 419.194 82.1227 419.6 81.728C420.016 81.3333 420.592 81.136 421.328 81.136C421.797 81.136 422.213 81.1947 422.576 81.312C422.938 81.4293 423.274 81.616 423.584 81.872L422.992 82.784C422.821 82.6027 422.602 82.4587 422.336 82.352C422.08 82.2453 421.834 82.1867 421.6 82.176C421.301 82.176 421.045 82.2507 420.832 82.4C420.618 82.5387 420.512 82.7307 420.512 82.976C420.512 83.1787 420.581 83.3493 420.72 83.488C420.858 83.616 421.002 83.712 421.152 83.776C421.301 83.8293 421.594 83.9253 422.032 84.064C422.576 84.2453 422.997 84.48 423.296 84.768C423.605 85.056 423.76 85.4453 423.76 85.936C423.76 86.576 423.536 87.104 423.088 87.52C422.64 87.936 422.005 88.144 421.184 88.144ZM426.275 88.832L425.811 89.952H424.595L425.011 88.832C425.491 87.5413 425.768 86.7947 425.843 86.592H427.203L426.275 88.832ZM440.955 81.376V88H439.467V86.912C439.233 87.2213 438.891 87.5093 438.443 87.776C437.995 88.032 437.489 88.16 436.923 88.16C436.294 88.16 435.723 88.0267 435.211 87.76C434.71 87.4827 434.31 87.0827 434.011 86.56C433.723 86.0373 433.579 85.4133 433.579 84.688C433.579 83.9627 433.729 83.3333 434.027 82.8C434.337 82.256 434.747 81.84 435.259 81.552C435.782 81.2533 436.358 81.104 436.987 81.104C437.553 81.104 438.043 81.2267 438.459 81.472C438.875 81.7173 439.211 82.0373 439.467 82.432L439.579 81.376H440.955ZM437.323 86.928C437.867 86.928 438.331 86.7787 438.715 86.48C439.11 86.1707 439.361 85.7547 439.467 85.232V83.92C439.339 83.4507 439.073 83.072 438.667 82.784C438.262 82.4853 437.798 82.336 437.275 82.336C436.881 82.336 436.513 82.432 436.171 82.624C435.841 82.816 435.574 83.088 435.371 83.44C435.179 83.7813 435.083 84.1707 435.083 84.608C435.083 85.0347 435.185 85.424 435.387 85.776C435.59 86.128 435.862 86.4107 436.203 86.624C436.545 86.8267 436.918 86.928 437.323 86.928ZM445.418 88.144C444.927 88.144 444.458 88.0587 444.01 87.888C443.573 87.7173 443.215 87.4667 442.938 87.136L443.578 86.272C443.845 86.528 444.122 86.7253 444.41 86.864C444.709 87.0027 445.002 87.072 445.29 87.072C445.642 87.072 445.93 87.0027 446.154 86.864C446.378 86.7253 446.49 86.512 446.49 86.224C446.49 86 446.421 85.8187 446.282 85.68C446.143 85.5413 445.983 85.44 445.802 85.376C445.631 85.312 445.338 85.216 444.922 85.088C443.791 84.7253 443.226 84.08 443.226 83.152C443.226 82.5973 443.429 82.1227 443.834 81.728C444.25 81.3333 444.826 81.136 445.562 81.136C446.031 81.136 446.447 81.1947 446.81 81.312C447.173 81.4293 447.509 81.616 447.818 81.872L447.226 82.784C447.055 82.6027 446.837 82.4587 446.57 82.352C446.314 82.2453 446.069 82.1867 445.834 82.176C445.535 82.176 445.279 82.2507 445.066 82.4C444.853 82.5387 444.746 82.7307 444.746 82.976C444.746 83.1787 444.815 83.3493 444.954 83.488C445.093 83.616 445.237 83.712 445.386 83.776C445.535 83.8293 445.829 83.9253 446.266 84.064C446.81 84.2453 447.231 84.48 447.53 84.768C447.839 85.056 447.994 85.4453 447.994 85.936C447.994 86.576 447.77 87.104 447.322 87.52C446.874 87.936 446.239 88.144 445.418 88.144ZM464.34 81.376L461.284 88.4L459.156 83.856L457.22 88.4L454.148 81.376H455.62L457.396 85.392L458.628 82.512L458.1 81.376H459.396L461.188 85.488L462.868 81.376H464.34ZM468.884 86.88C469.439 86.88 469.978 86.688 470.5 86.304L471.188 87.408C470.836 87.6427 470.452 87.8293 470.036 87.968C469.631 88.096 469.236 88.16 468.852 88.16C468.116 88.16 467.471 88.0107 466.916 87.712C466.372 87.4027 465.951 86.9813 465.652 86.448C465.354 85.9147 465.204 85.312 465.204 84.64C465.204 83.9893 465.364 83.3973 465.684 82.864C466.015 82.32 466.463 81.8933 467.028 81.584C467.594 81.264 468.212 81.104 468.884 81.104C469.748 81.104 470.468 81.36 471.044 81.872C471.631 82.3733 472.031 83.0773 472.244 83.984L466.996 85.824C467.188 86.1547 467.444 86.416 467.764 86.608C468.095 86.7893 468.468 86.88 468.884 86.88ZM468.772 82.288C468.164 82.288 467.663 82.5013 467.268 82.928C466.874 83.3547 466.676 83.8987 466.676 84.56C466.676 84.72 466.682 84.8427 466.692 84.928L470.548 83.504C470.388 83.1413 470.159 82.848 469.86 82.624C469.572 82.4 469.21 82.288 468.772 82.288ZM475.581 75.6V88H474.093V75.6H475.581ZM479.659 75.6V88H478.171V75.6H479.659ZM494.112 81.376V88H492.624V86.912C492.389 87.2213 492.048 87.5093 491.6 87.776C491.152 88.032 490.645 88.16 490.08 88.16C489.45 88.16 488.88 88.0267 488.368 87.76C487.866 87.4827 487.466 87.0827 487.168 86.56C486.88 86.0373 486.736 85.4133 486.736 84.688C486.736 83.9627 486.885 83.3333 487.184 82.8C487.493 82.256 487.904 81.84 488.416 81.552C488.938 81.2533 489.514 81.104 490.144 81.104C490.709 81.104 491.2 81.2267 491.616 81.472C492.032 81.7173 492.368 82.0373 492.624 82.432L492.736 81.376H494.112ZM490.48 86.928C491.024 86.928 491.488 86.7787 491.872 86.48C492.266 86.1707 492.517 85.7547 492.624 85.232V83.92C492.496 83.4507 492.229 83.072 491.824 82.784C491.418 82.4853 490.954 82.336 490.432 82.336C490.037 82.336 489.669 82.432 489.328 82.624C488.997 82.816 488.73 83.088 488.528 83.44C488.336 83.7813 488.24 84.1707 488.24 84.608C488.24 85.0347 488.341 85.424 488.544 85.776C488.746 86.128 489.018 86.4107 489.36 86.624C489.701 86.8267 490.074 86.928 490.48 86.928ZM498.574 88.144C498.084 88.144 497.614 88.0587 497.166 87.888C496.729 87.7173 496.372 87.4667 496.094 87.136L496.734 86.272C497.001 86.528 497.278 86.7253 497.566 86.864C497.865 87.0027 498.158 87.072 498.446 87.072C498.798 87.072 499.086 87.0027 499.31 86.864C499.534 86.7253 499.646 86.512 499.646 86.224C499.646 86 499.577 85.8187 499.438 85.68C499.3 85.5413 499.14 85.44 498.958 85.376C498.788 85.312 498.494 85.216 498.078 85.088C496.948 84.7253 496.382 84.08 496.382 83.152C496.382 82.5973 496.585 82.1227 496.99 81.728C497.406 81.3333 497.982 81.136 498.718 81.136C499.188 81.136 499.604 81.1947 499.966 81.312C500.329 81.4293 500.665 81.616 500.974 81.872L500.382 82.784C500.212 82.6027 499.993 82.4587 499.726 82.352C499.47 82.2453 499.225 82.1867 498.99 82.176C498.692 82.176 498.436 82.2507 498.222 82.4C498.009 82.5387 497.902 82.7307 497.902 82.976C497.902 83.1787 497.972 83.3493 498.11 83.488C498.249 83.616 498.393 83.712 498.542 83.776C498.692 83.8293 498.985 83.9253 499.422 84.064C499.966 84.2453 500.388 84.48 500.686 84.768C500.996 85.056 501.15 85.4453 501.15 85.936C501.15 86.576 500.926 87.104 500.478 87.52C500.03 87.936 499.396 88.144 498.574 88.144ZM65.672 111.376C65.3733 111.621 65.016 111.813 64.6 111.952C64.1947 112.091 63.7787 112.16 63.352 112.16C62.6373 112.16 62.0027 112.016 61.448 111.728C60.904 111.44 60.4773 111.035 60.168 110.512C59.8693 109.979 59.72 109.365 59.72 108.672C59.72 107.989 59.88 107.387 60.2 106.864C60.52 106.331 60.9467 105.92 61.48 105.632C62.0133 105.344 62.5893 105.2 63.208 105.2C64.2213 105.2 65.0587 105.477 65.72 106.032L64.968 107.008C64.7547 106.848 64.5093 106.715 64.232 106.608C63.9547 106.491 63.656 106.432 63.336 106.432C62.9413 106.432 62.5787 106.533 62.248 106.736C61.928 106.928 61.672 107.195 61.48 107.536C61.2987 107.877 61.208 108.256 61.208 108.672C61.208 109.088 61.304 109.467 61.496 109.808C61.6987 110.149 61.9707 110.421 62.312 110.624C62.6533 110.827 63.0427 110.928 63.48 110.928C64.024 110.928 64.4987 110.768 64.904 110.448L65.672 111.376ZM73.7529 105.376V112H72.4089L72.3129 110.736C72.0889 111.184 71.7422 111.552 71.2729 111.84C70.8035 112.117 70.2809 112.256 69.7049 112.256C69.0969 112.256 68.5955 112.075 68.2009 111.712C67.8169 111.339 67.6142 110.859 67.5929 110.272V105.376H69.0809V109.744C69.1022 110.117 69.2089 110.416 69.4009 110.64C69.6035 110.853 69.9022 110.965 70.2969 110.976C70.6595 110.976 70.9902 110.869 71.2889 110.656C71.5875 110.432 71.8222 110.128 71.9929 109.744C72.1742 109.36 72.2649 108.933 72.2649 108.464V105.376H73.7529ZM77.7829 106.944C77.9535 106.581 78.1935 106.261 78.5029 105.984C78.8229 105.707 79.1589 105.493 79.5109 105.344C79.8629 105.195 80.1722 105.115 80.4389 105.104L80.3749 106.592C79.8949 106.571 79.4575 106.667 79.0629 106.88C78.6789 107.093 78.3749 107.392 78.1509 107.776C77.9375 108.149 77.8309 108.549 77.8309 108.976V112H76.3429V105.376H77.6709L77.7829 106.944ZM83.7985 106.944C83.9692 106.581 84.2092 106.261 84.5185 105.984C84.8385 105.707 85.1745 105.493 85.5265 105.344C85.8785 105.195 86.1878 105.115 86.4545 105.104L86.3905 106.592C85.9105 106.571 85.4732 106.667 85.0785 106.88C84.6945 107.093 84.3905 107.392 84.1665 107.776C83.9532 108.149 83.8465 108.549 83.8465 108.976V112H82.3585V105.376H83.6865L83.7985 106.944ZM91.1969 110.88C91.7515 110.88 92.2902 110.688 92.8129 110.304L93.5009 111.408C93.1489 111.643 92.7649 111.829 92.3489 111.968C91.9435 112.096 91.5489 112.16 91.1649 112.16C90.4289 112.16 89.7835 112.011 89.2289 111.712C88.6849 111.403 88.2635 110.981 87.9649 110.448C87.6662 109.915 87.5169 109.312 87.5169 108.64C87.5169 107.989 87.6769 107.397 87.9969 106.864C88.3275 106.32 88.7755 105.893 89.3409 105.584C89.9062 105.264 90.5249 105.104 91.1969 105.104C92.0609 105.104 92.7809 105.36 93.3569 105.872C93.9435 106.373 94.3435 107.077 94.5569 107.984L89.3089 109.824C89.5009 110.155 89.7569 110.416 90.0769 110.608C90.4075 110.789 90.7809 110.88 91.1969 110.88ZM91.0849 106.288C90.4769 106.288 89.9755 106.501 89.5809 106.928C89.1862 107.355 88.9889 107.899 88.9889 108.56C88.9889 108.72 88.9942 108.843 89.0049 108.928L92.8609 107.504C92.7009 107.141 92.4715 106.848 92.1729 106.624C91.8849 106.4 91.5222 106.288 91.0849 106.288ZM100.517 105.12C101.136 105.12 101.648 105.307 102.053 105.68C102.459 106.043 102.667 106.517 102.677 107.104V112H101.173V107.616C101.152 107.243 101.04 106.949 100.837 106.736C100.635 106.523 100.331 106.411 99.9254 106.4C99.3387 106.4 98.8534 106.635 98.4694 107.104C98.0854 107.573 97.8934 108.171 97.8934 108.896V112H96.4054V105.376H97.7494L97.8454 106.656C98.08 106.176 98.432 105.803 98.9014 105.536C99.3707 105.259 99.9094 105.12 100.517 105.12ZM107.393 102.464V105.392H109.201V106.576H107.393V112H105.889V106.576H104.673V105.392H105.889V102.464H107.393ZM118.221 102.464V105.392H120.029V106.576H118.221V112H116.717V106.576H115.501V105.392H116.717V102.464H118.221ZM124.947 110.88C125.502 110.88 126.04 110.688 126.563 110.304L127.251 111.408C126.899 111.643 126.515 111.829 126.099 111.968C125.694 112.096 125.299 112.16 124.915 112.16C124.179 112.16 123.534 112.011 122.979 111.712C122.435 111.403 122.014 110.981 121.715 110.448C121.416 109.915 121.267 109.312 121.267 108.64C121.267 107.989 121.427 107.397 121.747 106.864C122.078 106.32 122.526 105.893 123.091 105.584C123.656 105.264 124.275 105.104 124.947 105.104C125.811 105.104 126.531 105.36 127.107 105.872C127.694 106.373 128.094 107.077 128.307 107.984L123.059 109.824C123.251 110.155 123.507 110.416 123.827 110.608C124.158 110.789 124.531 110.88 124.947 110.88ZM124.835 106.288C124.227 106.288 123.726 106.501 123.331 106.928C122.936 107.355 122.739 107.899 122.739 108.56C122.739 108.72 122.744 108.843 122.755 108.928L126.611 107.504C126.451 107.141 126.222 106.848 125.923 106.624C125.635 106.4 125.272 106.288 124.835 106.288ZM135.531 111.376C135.233 111.621 134.875 111.813 134.459 111.952C134.054 112.091 133.638 112.16 133.211 112.16C132.497 112.16 131.862 112.016 131.307 111.728C130.763 111.44 130.337 111.035 130.027 110.512C129.729 109.979 129.579 109.365 129.579 108.672C129.579 107.989 129.739 107.387 130.059 106.864C130.379 106.331 130.806 105.92 131.339 105.632C131.873 105.344 132.449 105.2 133.067 105.2C134.081 105.2 134.918 105.477 135.579 106.032L134.827 107.008C134.614 106.848 134.369 106.715 134.091 106.608C133.814 106.491 133.515 106.432 133.195 106.432C132.801 106.432 132.438 106.533 132.107 106.736C131.787 106.928 131.531 107.195 131.339 107.536C131.158 107.877 131.067 108.256 131.067 108.672C131.067 109.088 131.163 109.467 131.355 109.808C131.558 110.149 131.83 110.421 132.171 110.624C132.513 110.827 132.902 110.928 133.339 110.928C133.883 110.928 134.358 110.768 134.763 110.448L135.531 111.376ZM141.564 105.12C142.183 105.12 142.695 105.307 143.1 105.68C143.506 106.043 143.714 106.517 143.724 107.104V112H142.22V107.616C142.199 107.243 142.087 106.949 141.884 106.736C141.682 106.523 141.378 106.411 140.972 106.4C140.588 106.4 140.242 106.507 139.932 106.72C139.623 106.933 139.378 107.232 139.196 107.616C139.026 108 138.94 108.427 138.94 108.896V112H137.452V99.6H138.908V106.576C139.154 106.139 139.506 105.787 139.964 105.52C140.434 105.253 140.967 105.12 141.564 105.12ZM150.408 105.12C151.027 105.12 151.539 105.307 151.944 105.68C152.349 106.043 152.557 106.517 152.568 107.104V112H151.064V107.616C151.043 107.243 150.931 106.949 150.728 106.736C150.525 106.523 150.221 106.411 149.816 106.4C149.229 106.4 148.744 106.635 148.36 107.104C147.976 107.573 147.784 108.171 147.784 108.896V112H146.296V105.376H147.64L147.736 106.656C147.971 106.176 148.323 105.803 148.792 105.536C149.261 105.259 149.8 105.12 150.408 105.12ZM154.564 108.624C154.564 107.973 154.718 107.381 155.028 106.848C155.348 106.304 155.785 105.877 156.34 105.568C156.905 105.259 157.54 105.104 158.244 105.104C158.948 105.104 159.572 105.259 160.116 105.568C160.67 105.877 161.097 106.299 161.396 106.832C161.705 107.365 161.86 107.963 161.86 108.624C161.86 109.285 161.705 109.888 161.396 110.432C161.097 110.965 160.67 111.387 160.116 111.696C159.561 112.005 158.926 112.16 158.212 112.16C157.518 112.16 156.894 112.016 156.34 111.728C155.785 111.429 155.348 111.013 155.028 110.48C154.718 109.947 154.564 109.328 154.564 108.624ZM156.068 108.64C156.068 109.056 156.158 109.44 156.34 109.792C156.532 110.144 156.788 110.421 157.108 110.624C157.438 110.827 157.801 110.928 158.196 110.928C158.814 110.928 159.326 110.709 159.732 110.272C160.137 109.835 160.34 109.291 160.34 108.64C160.34 107.989 160.137 107.445 159.732 107.008C159.326 106.56 158.814 106.336 158.196 106.336C157.79 106.336 157.428 106.443 157.108 106.656C156.788 106.859 156.532 107.136 156.34 107.488C156.158 107.84 156.068 108.224 156.068 108.64ZM165.347 99.6V112H163.859V99.6H165.347ZM167.361 108.624C167.361 107.973 167.515 107.381 167.825 106.848C168.145 106.304 168.582 105.877 169.137 105.568C169.702 105.259 170.337 105.104 171.041 105.104C171.745 105.104 172.369 105.259 172.913 105.568C173.467 105.877 173.894 106.299 174.193 106.832C174.502 107.365 174.657 107.963 174.657 108.624C174.657 109.285 174.502 109.888 174.193 110.432C173.894 110.965 173.467 111.387 172.913 111.696C172.358 112.005 171.723 112.16 171.009 112.16C170.315 112.16 169.691 112.016 169.137 111.728C168.582 111.429 168.145 111.013 167.825 110.48C167.515 109.947 167.361 109.328 167.361 108.624ZM168.865 108.64C168.865 109.056 168.955 109.44 169.137 109.792C169.329 110.144 169.585 110.421 169.905 110.624C170.235 110.827 170.598 110.928 170.993 110.928C171.611 110.928 172.123 110.709 172.529 110.272C172.934 109.835 173.137 109.291 173.137 108.64C173.137 107.989 172.934 107.445 172.529 107.008C172.123 106.56 171.611 106.336 170.993 106.336C170.587 106.336 170.225 106.443 169.905 106.656C169.585 106.859 169.329 107.136 169.137 107.488C168.955 107.84 168.865 108.224 168.865 108.64ZM183.647 105.376V112.048C183.647 112.656 183.493 113.205 183.183 113.696C182.874 114.187 182.431 114.576 181.855 114.864C181.29 115.152 180.623 115.296 179.855 115.296C179.183 115.296 178.602 115.184 178.111 114.96C177.631 114.736 177.146 114.405 176.655 113.968L177.535 112.944C177.898 113.285 178.261 113.541 178.623 113.712C178.986 113.893 179.386 113.984 179.823 113.984C180.559 113.984 181.125 113.808 181.519 113.456C181.925 113.104 182.133 112.629 182.143 112.032L182.159 110.784C181.914 111.2 181.551 111.536 181.071 111.792C180.602 112.037 180.058 112.16 179.439 112.16C178.831 112.16 178.271 112.005 177.759 111.696C177.247 111.387 176.837 110.965 176.527 110.432C176.229 109.899 176.079 109.307 176.079 108.656C176.079 107.984 176.234 107.381 176.543 106.848C176.863 106.304 177.29 105.877 177.823 105.568C178.357 105.259 178.927 105.104 179.535 105.104C180.101 105.104 180.623 105.216 181.103 105.44C181.583 105.664 181.941 105.952 182.175 106.304L182.287 105.376H183.647ZM179.871 110.928C180.437 110.928 180.927 110.773 181.343 110.464C181.759 110.155 182.031 109.749 182.159 109.248V107.936C182.01 107.456 181.727 107.072 181.311 106.784C180.895 106.485 180.415 106.336 179.871 106.336C179.221 106.336 178.677 106.549 178.239 106.976C177.802 107.403 177.583 107.947 177.583 108.608C177.583 109.035 177.685 109.424 177.887 109.776C178.09 110.128 178.367 110.411 178.719 110.624C179.071 110.827 179.455 110.928 179.871 110.928ZM192.538 105.376L188.266 115.184H186.794L188.314 111.776L185.242 105.376H186.922L189.066 110.096L191.162 105.376H192.538ZM206.002 105.376V112H204.514V110.912C204.28 111.221 203.938 111.509 203.49 111.776C203.042 112.032 202.536 112.16 201.97 112.16C201.341 112.16 200.77 112.027 200.258 111.76C199.757 111.483 199.357 111.083 199.058 110.56C198.77 110.037 198.626 109.413 198.626 108.688C198.626 107.963 198.776 107.333 199.074 106.8C199.384 106.256 199.794 105.84 200.306 105.552C200.829 105.253 201.405 105.104 202.034 105.104C202.6 105.104 203.09 105.227 203.506 105.472C203.922 105.717 204.258 106.037 204.514 106.432L204.626 105.376H206.002ZM202.37 110.928C202.914 110.928 203.378 110.779 203.762 110.48C204.157 110.171 204.408 109.755 204.514 109.232V107.92C204.386 107.451 204.12 107.072 203.714 106.784C203.309 106.485 202.845 106.336 202.322 106.336C201.928 106.336 201.56 106.432 201.218 106.624C200.888 106.816 200.621 107.088 200.418 107.44C200.226 107.781 200.13 108.171 200.13 108.608C200.13 109.035 200.232 109.424 200.434 109.776C200.637 110.128 200.909 110.411 201.25 110.624C201.592 110.827 201.965 110.928 202.37 110.928ZM212.705 105.12C213.324 105.12 213.836 105.307 214.241 105.68C214.646 106.043 214.854 106.517 214.865 107.104V112H213.361V107.616C213.34 107.243 213.228 106.949 213.025 106.736C212.822 106.523 212.518 106.411 212.113 106.4C211.526 106.4 211.041 106.635 210.657 107.104C210.273 107.573 210.081 108.171 210.081 108.896V112H208.593V105.376H209.937L210.033 106.656C210.268 106.176 210.62 105.803 211.089 105.536C211.558 105.259 212.097 105.12 212.705 105.12ZM224.349 99.6V112H222.845V110.96C222.525 111.333 222.13 111.627 221.661 111.84C221.202 112.053 220.695 112.16 220.141 112.16C219.522 112.16 218.962 112.011 218.461 111.712C217.959 111.413 217.565 110.997 217.277 110.464C216.999 109.92 216.861 109.296 216.861 108.592C216.861 107.877 217.01 107.259 217.309 106.736C217.607 106.203 218.018 105.797 218.541 105.52C219.063 105.243 219.655 105.104 220.317 105.104C220.818 105.104 221.298 105.211 221.757 105.424C222.226 105.627 222.594 105.909 222.861 106.272V99.6H224.349ZM220.605 110.88C221.181 110.88 221.666 110.725 222.061 110.416C222.466 110.107 222.727 109.691 222.845 109.168V107.92C222.717 107.44 222.445 107.051 222.029 106.752C221.613 106.443 221.138 106.288 220.605 106.288C220.199 106.288 219.826 106.389 219.485 106.592C219.143 106.784 218.871 107.056 218.669 107.408C218.466 107.749 218.365 108.139 218.365 108.576C218.365 109.003 218.466 109.392 218.669 109.744C218.871 110.096 219.143 110.373 219.485 110.576C219.826 110.779 220.199 110.88 220.605 110.88ZM231.408 108.624C231.408 107.973 231.562 107.381 231.872 106.848C232.192 106.304 232.629 105.877 233.184 105.568C233.749 105.259 234.384 105.104 235.088 105.104C235.792 105.104 236.416 105.259 236.96 105.568C237.514 105.877 237.941 106.299 238.24 106.832C238.549 107.365 238.704 107.963 238.704 108.624C238.704 109.285 238.549 109.888 238.24 110.432C237.941 110.965 237.514 111.387 236.96 111.696C236.405 112.005 235.77 112.16 235.056 112.16C234.362 112.16 233.738 112.016 233.184 111.728C232.629 111.429 232.192 111.013 231.872 110.48C231.562 109.947 231.408 109.328 231.408 108.624ZM232.912 108.64C232.912 109.056 233.002 109.44 233.184 109.792C233.376 110.144 233.632 110.421 233.952 110.624C234.282 110.827 234.645 110.928 235.04 110.928C235.658 110.928 236.17 110.709 236.576 110.272C236.981 109.835 237.184 109.291 237.184 108.64C237.184 107.989 236.981 107.445 236.576 107.008C236.17 106.56 235.658 106.336 235.04 106.336C234.634 106.336 234.272 106.443 233.952 106.656C233.632 106.859 233.376 107.136 233.184 107.488C233.002 107.84 232.912 108.224 232.912 108.64ZM241.246 106.704H240.11V105.36H241.246V102.576C241.246 101.616 241.465 100.88 241.902 100.368C242.34 99.856 242.98 99.6 243.822 99.6C244.057 99.6 244.308 99.6373 244.574 99.712C244.841 99.776 245.076 99.872 245.278 100L244.638 101.088C244.478 100.917 244.254 100.832 243.966 100.832C243.561 100.832 243.252 100.971 243.038 101.248C242.836 101.525 242.734 101.973 242.734 102.592V105.36H244.846V106.704H242.734V112H241.246V106.704ZM246.062 106.704H244.926V105.36H246.062V102.576C246.062 101.616 246.281 100.88 246.718 100.368C247.156 99.856 247.796 99.6 248.638 99.6C248.873 99.6 249.124 99.6373 249.39 99.712C249.657 99.776 249.892 99.872 250.094 100L249.454 101.088C249.294 100.917 249.07 100.832 248.782 100.832C248.377 100.832 248.068 100.971 247.854 101.248C247.652 101.525 247.55 101.973 247.55 102.592V105.36H249.662V106.704H247.55V112H246.062V106.704ZM254.681 110.88C255.236 110.88 255.775 110.688 256.297 110.304L256.985 111.408C256.633 111.643 256.249 111.829 255.833 111.968C255.428 112.096 255.033 112.16 254.649 112.16C253.913 112.16 253.268 112.011 252.713 111.712C252.169 111.403 251.748 110.981 251.449 110.448C251.151 109.915 251.001 109.312 251.001 108.64C251.001 107.989 251.161 107.397 251.481 106.864C251.812 106.32 252.26 105.893 252.825 105.584C253.391 105.264 254.009 105.104 254.681 105.104C255.545 105.104 256.265 105.36 256.841 105.872C257.428 106.373 257.828 107.077 258.041 107.984L252.793 109.824C252.985 110.155 253.241 110.416 253.561 110.608C253.892 110.789 254.265 110.88 254.681 110.88ZM254.569 106.288C253.961 106.288 253.46 106.501 253.065 106.928C252.671 107.355 252.473 107.899 252.473 108.56C252.473 108.72 252.479 108.843 252.489 108.928L256.345 107.504C256.185 107.141 255.956 106.848 255.657 106.624C255.369 106.4 255.007 106.288 254.569 106.288ZM261.33 106.944C261.5 106.581 261.74 106.261 262.05 105.984C262.37 105.707 262.706 105.493 263.058 105.344C263.41 105.195 263.719 105.115 263.986 105.104L263.922 106.592C263.442 106.571 263.004 106.667 262.61 106.88C262.226 107.093 261.922 107.392 261.698 107.776C261.484 108.149 261.378 108.549 261.378 108.976V112H259.89V105.376H261.218L261.33 106.944ZM267.777 112.144C267.287 112.144 266.817 112.059 266.369 111.888C265.932 111.717 265.575 111.467 265.297 111.136L265.937 110.272C266.204 110.528 266.481 110.725 266.769 110.864C267.068 111.003 267.361 111.072 267.649 111.072C268.001 111.072 268.289 111.003 268.513 110.864C268.737 110.725 268.849 110.512 268.849 110.224C268.849 110 268.78 109.819 268.641 109.68C268.503 109.541 268.343 109.44 268.161 109.376C267.991 109.312 267.697 109.216 267.281 109.088C266.151 108.725 265.585 108.08 265.585 107.152C265.585 106.597 265.788 106.123 266.193 105.728C266.609 105.333 267.185 105.136 267.921 105.136C268.391 105.136 268.807 105.195 269.169 105.312C269.532 105.429 269.868 105.616 270.177 105.872L269.585 106.784C269.415 106.603 269.196 106.459 268.929 106.352C268.673 106.245 268.428 106.187 268.193 106.176C267.895 106.176 267.639 106.251 267.425 106.4C267.212 106.539 267.105 106.731 267.105 106.976C267.105 107.179 267.175 107.349 267.313 107.488C267.452 107.616 267.596 107.712 267.745 107.776C267.895 107.829 268.188 107.925 268.625 108.064C269.169 108.245 269.591 108.48 269.889 108.768C270.199 109.056 270.353 109.445 270.353 109.936C270.353 110.576 270.129 111.104 269.681 111.52C269.233 111.936 268.599 112.144 267.777 112.144Z" fill="white"/>
<defs>
<filter id="filter0_b_474_2035" x="-10" y="-10" width="590" height="153" filterUnits="userSpaceOnUse" color-interpolation-filters="sRGB">
<feFlood flood-opacity="0" result="BackgroundImageFix"/>
<feGaussianBlur in="BackgroundImageFix" stdDeviation="5"/>
<feComposite in2="SourceAlpha" operator="in" result="effect1_backgroundBlur_474_2035"/>
<feBlend mode="normal" in="SourceGraphic" in2="effect1_backgroundBlur_474_2035" result="shape"/>
</filter>
<clipPath id="clip0_474_2035">
<rect width="24" height="24" fill="white" transform="translate(18 29.9917)"/>
</clipPath>
</defs>
</svg>
