<svg width="570" height="136" viewBox="0 0 570 136" fill="none" xmlns="http://www.w3.org/2000/svg">
<g filter="url(#filter0_b_502_1963)">
<rect y="-0.00830078" width="570" height="136" rx="10" fill="#2B648A"/>
<rect x="0.5" y="0.491699" width="569" height="135" rx="9.5" stroke="white" stroke-linecap="round" stroke-dasharray="7 7"/>
</g>
<rect width="24" height="24" transform="translate(18 29.9917)" fill="#2B648A"/>
<g clip-path="url(#clip0_502_1963)">
<path d="M30 51.9917C24.477 51.9917 20 47.5147 20 41.9917C20 36.4687 24.477 31.9917 30 31.9917C35.523 31.9917 40 36.4687 40 41.9917C40 47.5147 35.523 51.9917 30 51.9917ZM29.003 45.9917L36.073 38.9207L34.659 37.5067L29.003 43.1637L26.174 40.3347L24.76 41.7487L29.003 45.9917Z" fill="white"/>
</g>
<path d="M68.96 49.9917L65.68 44.9317H65.44H63.34V49.9917H61V35.4317H65.1C66.7267 35.4317 68.0267 35.845 69 36.6717C69.9867 37.4984 70.48 38.645 70.48 40.1117C70.48 41.005 70.2867 41.8384 69.9 42.6117C69.5267 43.3717 68.9333 43.9584 68.12 44.3717L71.66 49.9917H68.96ZM63.34 42.6917H65.42C66.3533 42.6917 67.0267 42.4384 67.44 41.9317C67.8667 41.4117 68.08 40.8317 68.08 40.1917C68.08 39.8184 68 39.445 67.84 39.0717C67.68 38.685 67.4067 38.3584 67.02 38.0917C66.6333 37.8117 66.1267 37.6717 65.5 37.6717H63.34V42.6917ZM73.1078 42.7317C73.1078 41.3984 73.4411 40.165 74.1078 39.0317C74.7745 37.885 75.6745 36.9717 76.8078 36.2917C77.9545 35.6117 79.2011 35.2717 80.5478 35.2717C81.8811 35.2717 83.1145 35.6117 84.2478 36.2917C85.3945 36.9717 86.3078 37.885 86.9878 39.0317C87.6678 40.1784 88.0078 41.4117 88.0078 42.7317C88.0078 44.0784 87.6678 45.3184 86.9878 46.4517C86.3211 47.585 85.4145 48.485 84.2678 49.1517C83.1211 49.8184 81.8811 50.1517 80.5478 50.1517C79.2011 50.1517 77.9545 49.825 76.8078 49.1717C75.6745 48.505 74.7745 47.605 74.1078 46.4717C73.4411 45.3384 73.1078 44.0917 73.1078 42.7317ZM75.5078 42.7317C75.5078 43.6784 75.7345 44.545 76.1878 45.3317C76.6411 46.1184 77.2545 46.745 78.0278 47.2117C78.8145 47.6784 79.6745 47.9117 80.6078 47.9117C81.5278 47.9117 82.3678 47.685 83.1278 47.2317C83.8878 46.765 84.4878 46.1384 84.9278 45.3517C85.3811 44.5517 85.6078 43.6784 85.6078 42.7317C85.6078 41.785 85.3811 40.9117 84.9278 40.1117C84.4745 39.3117 83.8611 38.6784 83.0878 38.2117C82.3145 37.745 81.4678 37.5117 80.5478 37.5117C79.6145 37.5117 78.7611 37.745 77.9878 38.2117C77.2278 38.6784 76.6211 39.3117 76.1678 40.1117C75.7278 40.9117 75.5078 41.785 75.5078 42.7317ZM90.2172 42.7317C90.2172 41.3984 90.5505 40.165 91.2172 39.0317C91.8839 37.885 92.7839 36.9717 93.9172 36.2917C95.0639 35.6117 96.3105 35.2717 97.6572 35.2717C98.9905 35.2717 100.224 35.6117 101.357 36.2917C102.504 36.9717 103.417 37.885 104.097 39.0317C104.777 40.1784 105.117 41.4117 105.117 42.7317C105.117 44.0784 104.777 45.3184 104.097 46.4517C103.431 47.585 102.524 48.485 101.377 49.1517C100.231 49.8184 98.9905 50.1517 97.6572 50.1517C96.3105 50.1517 95.0639 49.825 93.9172 49.1717C92.7839 48.505 91.8839 47.605 91.2172 46.4717C90.5505 45.3384 90.2172 44.0917 90.2172 42.7317ZM92.6172 42.7317C92.6172 43.6784 92.8439 44.545 93.2972 45.3317C93.7505 46.1184 94.3639 46.745 95.1372 47.2117C95.9239 47.6784 96.7839 47.9117 97.7172 47.9117C98.6372 47.9117 99.4772 47.685 100.237 47.2317C100.997 46.765 101.597 46.1384 102.037 45.3517C102.491 44.5517 102.717 43.6784 102.717 42.7317C102.717 41.785 102.491 40.9117 102.037 40.1117C101.584 39.3117 100.971 38.6784 100.197 38.2117C99.4239 37.745 98.5772 37.5117 97.6572 37.5117C96.7239 37.5117 95.8705 37.745 95.0972 38.2117C94.3372 38.6784 93.7305 39.3117 93.2772 40.1117C92.8372 40.9117 92.6172 41.785 92.6172 42.7317ZM122.927 34.9117V49.9917H120.607V41.5717L115.507 48.8117H115.467L110.487 41.9117V49.9917H108.227V34.9117H108.247L115.507 45.1917L122.887 34.9117H122.927ZM142.024 35.4317V37.6717H138.264V49.9917H135.944V37.6717H132.284V35.4317H142.024ZM156.604 35.4317L151.144 45.2717V49.9917H148.824V45.2717L143.444 35.4317H146.304L150.064 42.6117L153.744 35.4317H156.604ZM163.186 35.4317C164.84 35.4317 166.133 35.845 167.066 36.6717C168 37.4984 168.466 38.645 168.466 40.1117C168.466 40.9517 168.3 41.7384 167.966 42.4717C167.633 43.1917 167.093 43.785 166.346 44.2517C165.613 44.705 164.666 44.9317 163.506 44.9317H161.406V49.9917H159.066V35.4317H163.186ZM163.506 42.6917C164.146 42.6917 164.66 42.5584 165.046 42.2917C165.446 42.0117 165.726 41.6784 165.886 41.2917C166.06 40.8917 166.146 40.5117 166.146 40.1517C166.146 39.5384 165.946 38.9717 165.546 38.4517C165.16 37.9317 164.5 37.6717 163.566 37.6717H161.406V42.6917H163.506ZM180.953 35.4317V37.6717H173.633V41.5517H180.153V43.7917H173.633V47.7517H181.233V49.9917H171.293V35.4317H180.953ZM192.097 38.3917C190.844 37.7384 189.73 37.4117 188.757 37.4117C188.037 37.4117 187.464 37.5717 187.037 37.8917C186.624 38.2117 186.417 38.6517 186.417 39.2117C186.417 39.7584 186.677 40.2184 187.197 40.5917C187.73 40.9517 188.47 41.3117 189.417 41.6717C190.137 41.925 190.75 42.2184 191.257 42.5517C191.777 42.8717 192.204 43.3117 192.537 43.8717C192.87 44.4317 193.037 45.1384 193.037 45.9917C193.037 46.765 192.844 47.465 192.457 48.0917C192.07 48.7184 191.51 49.2184 190.777 49.5917C190.044 49.965 189.177 50.1517 188.177 50.1517C187.297 50.1517 186.43 50.0184 185.577 49.7517C184.724 49.4717 183.964 49.0917 183.297 48.6117L184.337 46.7917C184.83 47.165 185.41 47.4784 186.077 47.7317C186.757 47.9717 187.384 48.0917 187.957 48.0917C188.664 48.0917 189.284 47.925 189.817 47.5917C190.35 47.245 190.617 46.7184 190.617 46.0117C190.617 45.4517 190.39 44.985 189.937 44.6117C189.497 44.2384 188.877 43.8984 188.077 43.5917C187.25 43.285 186.564 42.985 186.017 42.6917C185.47 42.385 184.997 41.965 184.597 41.4317C184.21 40.885 184.017 40.205 184.017 39.3917C184.017 38.205 184.417 37.2517 185.217 36.5317C186.03 35.7984 187.097 35.405 188.417 35.3517C189.377 35.3517 190.217 35.465 190.937 35.6917C191.67 35.905 192.35 36.2117 192.977 36.6117L192.097 38.3917Z" fill="white"/>
<path d="M69.16 87.1277C68.7867 87.373 68.312 87.6024 67.736 87.8157C67.1707 88.0184 66.552 88.1197 65.88 88.1197C64.696 88.1197 63.6507 87.8584 62.744 87.3357C61.848 86.813 61.1547 86.109 60.664 85.2237C60.184 84.3384 59.944 83.3624 59.944 82.2957C59.944 81.1544 60.1893 80.1304 60.68 79.2237C61.1707 78.3064 61.848 77.5917 62.712 77.0797C63.5867 76.557 64.5733 76.2957 65.672 76.2957C66.3227 76.2957 66.9307 76.381 67.496 76.5517C68.0613 76.7224 68.568 76.9464 69.016 77.2237L68.392 78.6797C67.5067 78.0824 66.616 77.7837 65.72 77.7837C64.9733 77.7837 64.28 77.981 63.64 78.3757C63.0107 78.7704 62.504 79.309 62.12 79.9917C61.7467 80.6637 61.56 81.405 61.56 82.2157C61.56 83.0477 61.7307 83.7997 62.072 84.4717C62.424 85.1437 62.92 85.6717 63.56 86.0557C64.2107 86.429 64.9573 86.6157 65.8 86.6157C66.8347 86.6157 67.736 86.3224 68.504 85.7357L69.16 87.1277ZM75.5174 81.1117C76.136 81.1117 76.648 81.2984 77.0534 81.6717C77.4587 82.0344 77.6667 82.509 77.6774 83.0957V87.9917H76.1734V83.6077C76.152 83.2344 76.04 82.941 75.8374 82.7277C75.6347 82.5144 75.3307 82.4024 74.9254 82.3917C74.5414 82.3917 74.1947 82.4984 73.8854 82.7117C73.576 82.925 73.3307 83.2237 73.1494 83.6077C72.9787 83.9917 72.8934 84.4184 72.8934 84.8877V87.9917H71.4054V75.5917H72.8614V82.5677C73.1067 82.1304 73.4587 81.7784 73.9174 81.5117C74.3867 81.245 74.92 81.1117 75.5174 81.1117ZM79.6731 84.6157C79.6731 83.965 79.8278 83.373 80.1371 82.8397C80.4571 82.2957 80.8945 81.869 81.4491 81.5597C82.0145 81.2504 82.6491 81.0957 83.3531 81.0957C84.0571 81.0957 84.6811 81.2504 85.2251 81.5597C85.7798 81.869 86.2065 82.2904 86.5051 82.8237C86.8145 83.357 86.9691 83.9544 86.9691 84.6157C86.9691 85.277 86.8145 85.8797 86.5051 86.4237C86.2065 86.957 85.7798 87.3784 85.2251 87.6877C84.6705 87.997 84.0358 88.1517 83.3211 88.1517C82.6278 88.1517 82.0038 88.0077 81.4491 87.7197C80.8945 87.421 80.4571 87.005 80.1371 86.4717C79.8278 85.9384 79.6731 85.3197 79.6731 84.6157ZM81.1771 84.6317C81.1771 85.0477 81.2678 85.4317 81.4491 85.7837C81.6411 86.1357 81.8971 86.413 82.2171 86.6157C82.5478 86.8184 82.9105 86.9197 83.3051 86.9197C83.9238 86.9197 84.4358 86.701 84.8411 86.2637C85.2465 85.8264 85.4491 85.2824 85.4491 84.6317C85.4491 83.981 85.2465 83.437 84.8411 82.9997C84.4358 82.5517 83.9238 82.3277 83.3051 82.3277C82.8998 82.3277 82.5371 82.4344 82.2171 82.6477C81.8971 82.8504 81.6411 83.1277 81.4491 83.4797C81.2678 83.8317 81.1771 84.2157 81.1771 84.6317ZM88.3919 84.6157C88.3919 83.965 88.5465 83.373 88.8559 82.8397C89.1759 82.2957 89.6132 81.869 90.1679 81.5597C90.7332 81.2504 91.3679 81.0957 92.0719 81.0957C92.7759 81.0957 93.3999 81.2504 93.9439 81.5597C94.4985 81.869 94.9252 82.2904 95.2239 82.8237C95.5332 83.357 95.6879 83.9544 95.6879 84.6157C95.6879 85.277 95.5332 85.8797 95.2239 86.4237C94.9252 86.957 94.4985 87.3784 93.9439 87.6877C93.3892 87.997 92.7545 88.1517 92.0399 88.1517C91.3465 88.1517 90.7225 88.0077 90.1679 87.7197C89.6132 87.421 89.1759 87.005 88.8559 86.4717C88.5465 85.9384 88.3919 85.3197 88.3919 84.6157ZM89.8959 84.6317C89.8959 85.0477 89.9865 85.4317 90.1679 85.7837C90.3599 86.1357 90.6159 86.413 90.9359 86.6157C91.2665 86.8184 91.6292 86.9197 92.0239 86.9197C92.6425 86.9197 93.1545 86.701 93.5599 86.2637C93.9652 85.8264 94.1679 85.2824 94.1679 84.6317C94.1679 83.981 93.9652 83.437 93.5599 82.9997C93.1545 82.5517 92.6425 82.3277 92.0239 82.3277C91.6185 82.3277 91.2559 82.4344 90.9359 82.6477C90.6159 82.8504 90.3599 83.1277 90.1679 83.4797C89.9865 83.8317 89.8959 84.2157 89.8959 84.6317ZM99.5586 88.1357C99.068 88.1357 98.5986 88.0504 98.1506 87.8797C97.7133 87.709 97.356 87.4584 97.0786 87.1277L97.7186 86.2637C97.9853 86.5197 98.2626 86.717 98.5506 86.8557C98.8493 86.9944 99.1426 87.0637 99.4306 87.0637C99.7826 87.0637 100.071 86.9944 100.295 86.8557C100.519 86.717 100.631 86.5037 100.631 86.2157C100.631 85.9917 100.561 85.8104 100.423 85.6717C100.284 85.533 100.124 85.4317 99.9426 85.3677C99.772 85.3037 99.4786 85.2077 99.0626 85.0797C97.932 84.717 97.3666 84.0717 97.3666 83.1437C97.3666 82.589 97.5693 82.1144 97.9746 81.7197C98.3906 81.325 98.9666 81.1277 99.7026 81.1277C100.172 81.1277 100.588 81.1864 100.951 81.3037C101.313 81.421 101.649 81.6077 101.959 81.8637L101.367 82.7757C101.196 82.5944 100.977 82.4504 100.711 82.3437C100.455 82.237 100.209 82.1784 99.9746 82.1677C99.676 82.1677 99.42 82.2424 99.2066 82.3917C98.9933 82.5304 98.8866 82.7224 98.8866 82.9677C98.8866 83.1704 98.956 83.341 99.0946 83.4797C99.2333 83.6077 99.3773 83.7037 99.5266 83.7677C99.676 83.821 99.9693 83.917 100.407 84.0557C100.951 84.237 101.372 84.4717 101.671 84.7597C101.98 85.0477 102.135 85.437 102.135 85.9277C102.135 86.5677 101.911 87.0957 101.463 87.5117C101.015 87.9277 100.38 88.1357 99.5586 88.1357ZM107.322 86.8717C107.877 86.8717 108.415 86.6797 108.938 86.2957L109.626 87.3997C109.274 87.6344 108.89 87.821 108.474 87.9597C108.069 88.0877 107.674 88.1517 107.29 88.1517C106.554 88.1517 105.909 88.0024 105.354 87.7037C104.81 87.3944 104.389 86.973 104.09 86.4397C103.791 85.9064 103.642 85.3037 103.642 84.6317C103.642 83.981 103.802 83.389 104.122 82.8557C104.453 82.3117 104.901 81.885 105.466 81.5757C106.031 81.2557 106.65 81.0957 107.322 81.0957C108.186 81.0957 108.906 81.3517 109.482 81.8637C110.069 82.365 110.469 83.069 110.682 83.9757L105.434 85.8157C105.626 86.1464 105.882 86.4077 106.202 86.5997C106.533 86.781 106.906 86.8717 107.322 86.8717ZM107.21 82.2797C106.602 82.2797 106.101 82.493 105.706 82.9197C105.311 83.3464 105.114 83.8904 105.114 84.5517C105.114 84.7117 105.119 84.8344 105.13 84.9197L108.986 83.4957C108.826 83.133 108.597 82.8397 108.298 82.6157C108.01 82.3917 107.647 82.2797 107.21 82.2797ZM118.137 82.6957H117.001V81.3517H118.137V78.5677C118.137 77.6077 118.356 76.8717 118.793 76.3597C119.23 75.8477 119.87 75.5917 120.713 75.5917C120.948 75.5917 121.198 75.629 121.465 75.7037C121.732 75.7677 121.966 75.8637 122.169 75.9917L121.529 77.0797C121.369 76.909 121.145 76.8237 120.857 76.8237C120.452 76.8237 120.142 76.9624 119.929 77.2397C119.726 77.517 119.625 77.965 119.625 78.5837V81.3517H121.737V82.6957H119.625V87.9917H118.137V82.6957ZM125.111 82.9357C125.282 82.573 125.522 82.253 125.831 81.9757C126.151 81.6984 126.487 81.485 126.839 81.3357C127.191 81.1864 127.5 81.1064 127.767 81.0957L127.703 82.5837C127.223 82.5624 126.786 82.6584 126.391 82.8717C126.007 83.085 125.703 83.3837 125.479 83.7677C125.266 84.141 125.159 84.541 125.159 84.9677V87.9917H123.671V81.3677H124.999L125.111 82.9357ZM128.829 84.6157C128.829 83.965 128.984 83.373 129.293 82.8397C129.613 82.2957 130.051 81.869 130.605 81.5597C131.171 81.2504 131.805 81.0957 132.509 81.0957C133.213 81.0957 133.837 81.2504 134.381 81.5597C134.936 81.869 135.363 82.2904 135.661 82.8237C135.971 83.357 136.125 83.9544 136.125 84.6157C136.125 85.277 135.971 85.8797 135.661 86.4237C135.363 86.957 134.936 87.3784 134.381 87.6877C133.827 87.997 133.192 88.1517 132.477 88.1517C131.784 88.1517 131.16 88.0077 130.605 87.7197C130.051 87.421 129.613 87.005 129.293 86.4717C128.984 85.9384 128.829 85.3197 128.829 84.6157ZM130.333 84.6317C130.333 85.0477 130.424 85.4317 130.605 85.7837C130.797 86.1357 131.053 86.413 131.373 86.6157C131.704 86.8184 132.067 86.9197 132.461 86.9197C133.08 86.9197 133.592 86.701 133.997 86.2637C134.403 85.8264 134.605 85.2824 134.605 84.6317C134.605 83.981 134.403 83.437 133.997 82.9997C133.592 82.5517 133.08 82.3277 132.461 82.3277C132.056 82.3277 131.693 82.4344 131.373 82.6477C131.053 82.8504 130.797 83.1277 130.605 83.4797C130.424 83.8317 130.333 84.2157 130.333 84.6317ZM146.62 81.0957C147.26 81.0957 147.767 81.277 148.14 81.6397C148.524 82.0024 148.727 82.4824 148.748 83.0797V87.9917H147.26V83.6237C147.228 82.845 146.876 82.4344 146.204 82.3917C145.82 82.3917 145.473 82.509 145.164 82.7437C144.865 82.9677 144.631 83.2664 144.46 83.6397C144.289 84.013 144.199 84.413 144.188 84.8397V87.9917H142.684V83.6237C142.652 82.845 142.289 82.4344 141.596 82.3917C141.223 82.3917 140.881 82.509 140.572 82.7437C140.273 82.9677 140.039 83.2717 139.868 83.6557C139.697 84.029 139.612 84.429 139.612 84.8557V87.9917H138.124V81.3677H139.468L139.58 82.6157C139.836 82.1357 140.183 81.7624 140.62 81.4957C141.068 81.229 141.575 81.0957 142.14 81.0957C142.673 81.0957 143.121 81.2237 143.484 81.4797C143.847 81.725 144.081 82.0664 144.188 82.5037C144.465 82.0664 144.817 81.725 145.244 81.4797C145.671 81.2237 146.129 81.0957 146.62 81.0957ZM164.886 81.0957C165.526 81.0957 166.032 81.277 166.406 81.6397C166.79 82.0024 166.992 82.4824 167.014 83.0797V87.9917H165.526V83.6237C165.494 82.845 165.142 82.4344 164.47 82.3917C164.086 82.3917 163.739 82.509 163.43 82.7437C163.131 82.9677 162.896 83.2664 162.726 83.6397C162.555 84.013 162.464 84.413 162.454 84.8397V87.9917H160.95V83.6237C160.918 82.845 160.555 82.4344 159.862 82.3917C159.488 82.3917 159.147 82.509 158.838 82.7437C158.539 82.9677 158.304 83.2717 158.134 83.6557C157.963 84.029 157.878 84.429 157.878 84.8557V87.9917H156.39V81.3677H157.734L157.846 82.6157C158.102 82.1357 158.448 81.7624 158.886 81.4957C159.334 81.229 159.84 81.0957 160.406 81.0957C160.939 81.0957 161.387 81.2237 161.75 81.4797C162.112 81.725 162.347 82.0664 162.454 82.5037C162.731 82.0664 163.083 81.725 163.51 81.4797C163.936 81.2237 164.395 81.0957 164.886 81.0957ZM176.393 81.3677V87.9917H174.905V86.9037C174.67 87.213 174.329 87.501 173.881 87.7677C173.433 88.0237 172.926 88.1517 172.361 88.1517C171.732 88.1517 171.161 88.0184 170.649 87.7517C170.148 87.4744 169.748 87.0744 169.449 86.5517C169.161 86.029 169.017 85.405 169.017 84.6797C169.017 83.9544 169.166 83.325 169.465 82.7917C169.774 82.2477 170.185 81.8317 170.697 81.5437C171.22 81.245 171.796 81.0957 172.425 81.0957C172.99 81.0957 173.481 81.2184 173.897 81.4637C174.313 81.709 174.649 82.029 174.905 82.4237L175.017 81.3677H176.393ZM172.761 86.9197C173.305 86.9197 173.769 86.7704 174.153 86.4717C174.548 86.1624 174.798 85.7464 174.905 85.2237V83.9117C174.777 83.4424 174.51 83.0637 174.105 82.7757C173.7 82.477 173.236 82.3277 172.713 82.3277C172.318 82.3277 171.95 82.4237 171.609 82.6157C171.278 82.8077 171.012 83.0797 170.809 83.4317C170.617 83.773 170.521 84.1624 170.521 84.5997C170.521 85.0264 170.622 85.4157 170.825 85.7677C171.028 86.1197 171.3 86.4024 171.641 86.6157C171.982 86.8184 172.356 86.9197 172.761 86.9197ZM183.096 81.1117C183.714 81.1117 184.226 81.2984 184.632 81.6717C185.037 82.0344 185.245 82.509 185.256 83.0957V87.9917H183.752V83.6077C183.73 83.2344 183.618 82.941 183.416 82.7277C183.213 82.5144 182.909 82.4024 182.504 82.3917C181.917 82.3917 181.432 82.6264 181.048 83.0957C180.664 83.565 180.472 84.1624 180.472 84.8877V87.9917H178.984V81.3677H180.328L180.424 82.6477C180.658 82.1677 181.01 81.7944 181.48 81.5277C181.949 81.2504 182.488 81.1117 183.096 81.1117ZM193.897 81.3677L189.625 91.1757H188.153L189.673 87.7677L186.601 81.3677H188.281L190.425 86.0877L192.521 81.3677H193.897ZM209.762 81.3677L206.706 88.3917L204.578 83.8477L202.642 88.3917L199.57 81.3677H201.042L202.818 85.3837L204.05 82.5037L203.522 81.3677H204.818L206.61 85.4797L208.29 81.3677H209.762ZM210.626 84.6157C210.626 83.965 210.781 83.373 211.09 82.8397C211.41 82.2957 211.848 81.869 212.402 81.5597C212.968 81.2504 213.602 81.0957 214.306 81.0957C215.01 81.0957 215.634 81.2504 216.178 81.5597C216.733 81.869 217.16 82.2904 217.458 82.8237C217.768 83.357 217.922 83.9544 217.922 84.6157C217.922 85.277 217.768 85.8797 217.458 86.4237C217.16 86.957 216.733 87.3784 216.178 87.6877C215.624 87.997 214.989 88.1517 214.274 88.1517C213.581 88.1517 212.957 88.0077 212.402 87.7197C211.848 87.421 211.41 87.005 211.09 86.4717C210.781 85.9384 210.626 85.3197 210.626 84.6157ZM212.13 84.6317C212.13 85.0477 212.221 85.4317 212.402 85.7837C212.594 86.1357 212.85 86.413 213.17 86.6157C213.501 86.8184 213.864 86.9197 214.258 86.9197C214.877 86.9197 215.389 86.701 215.794 86.2637C216.2 85.8264 216.402 85.2824 216.402 84.6317C216.402 83.981 216.2 83.437 215.794 82.9997C215.389 82.5517 214.877 82.3277 214.258 82.3277C213.853 82.3277 213.49 82.4344 213.17 82.6477C212.85 82.8504 212.594 83.1277 212.402 83.4797C212.221 83.8317 212.13 84.2157 212.13 84.6317ZM224.033 81.1117C224.652 81.1117 225.164 81.2984 225.569 81.6717C225.974 82.0344 226.182 82.509 226.193 83.0957V87.9917H224.689V83.6077C224.668 83.2344 224.556 82.941 224.353 82.7277C224.15 82.5144 223.846 82.4024 223.441 82.3917C222.854 82.3917 222.369 82.6264 221.985 83.0957C221.601 83.565 221.409 84.1624 221.409 84.8877V87.9917H219.921V81.3677H221.265L221.361 82.6477C221.596 82.1677 221.948 81.7944 222.417 81.5277C222.886 81.2504 223.425 81.1117 224.033 81.1117ZM235.677 75.5917V87.9917H234.173V86.9517C233.853 87.325 233.458 87.6184 232.989 87.8317C232.53 88.045 232.023 88.1517 231.469 88.1517C230.85 88.1517 230.29 88.0024 229.789 87.7037C229.287 87.405 228.893 86.989 228.605 86.4557C228.327 85.9117 228.189 85.2877 228.189 84.5837C228.189 83.869 228.338 83.2504 228.637 82.7277C228.935 82.1944 229.346 81.789 229.869 81.5117C230.391 81.2344 230.983 81.0957 231.645 81.0957C232.146 81.0957 232.626 81.2024 233.085 81.4157C233.554 81.6184 233.922 81.901 234.189 82.2637V75.5917H235.677ZM231.933 86.8717C232.509 86.8717 232.994 86.717 233.389 86.4077C233.794 86.0984 234.055 85.6824 234.173 85.1597V83.9117C234.045 83.4317 233.773 83.0424 233.357 82.7437C232.941 82.4344 232.466 82.2797 231.933 82.2797C231.527 82.2797 231.154 82.381 230.813 82.5837C230.471 82.7757 230.199 83.0477 229.997 83.3997C229.794 83.741 229.693 84.1304 229.693 84.5677C229.693 84.9944 229.794 85.3837 229.997 85.7357C230.199 86.0877 230.471 86.365 230.813 86.5677C231.154 86.7704 231.527 86.8717 231.933 86.8717ZM241.353 86.8717C241.908 86.8717 242.446 86.6797 242.969 86.2957L243.657 87.3997C243.305 87.6344 242.921 87.821 242.505 87.9597C242.1 88.0877 241.705 88.1517 241.321 88.1517C240.585 88.1517 239.94 88.0024 239.385 87.7037C238.841 87.3944 238.42 86.973 238.121 86.4397C237.822 85.9064 237.673 85.3037 237.673 84.6317C237.673 83.981 237.833 83.389 238.153 82.8557C238.484 82.3117 238.932 81.885 239.497 81.5757C240.062 81.2557 240.681 81.0957 241.353 81.0957C242.217 81.0957 242.937 81.3517 243.513 81.8637C244.1 82.365 244.5 83.069 244.713 83.9757L239.465 85.8157C239.657 86.1464 239.913 86.4077 240.233 86.5997C240.564 86.781 240.937 86.8717 241.353 86.8717ZM241.241 82.2797C240.633 82.2797 240.132 82.493 239.737 82.9197C239.342 83.3464 239.145 83.8904 239.145 84.5517C239.145 84.7117 239.15 84.8344 239.161 84.9197L243.017 83.4957C242.857 83.133 242.628 82.8397 242.329 82.6157C242.041 82.3917 241.678 82.2797 241.241 82.2797ZM248.002 82.9357C248.172 82.573 248.412 82.253 248.722 81.9757C249.042 81.6984 249.378 81.485 249.73 81.3357C250.082 81.1864 250.391 81.1064 250.658 81.0957L250.594 82.5837C250.114 82.5624 249.676 82.6584 249.282 82.8717C248.898 83.085 248.594 83.3837 248.37 83.7677C248.156 84.141 248.05 84.541 248.05 84.9677V87.9917H246.562V81.3677H247.89L248.002 82.9357ZM253.121 82.6957H251.985V81.3517H253.121V78.5677C253.121 77.6077 253.34 76.8717 253.777 76.3597C254.215 75.8477 254.855 75.5917 255.697 75.5917C255.932 75.5917 256.183 75.629 256.449 75.7037C256.716 75.7677 256.951 75.8637 257.153 75.9917L256.513 77.0797C256.353 76.909 256.129 76.8237 255.841 76.8237C255.436 76.8237 255.127 76.9624 254.913 77.2397C254.711 77.517 254.609 77.965 254.609 78.5837V81.3517H256.721V82.6957H254.609V87.9917H253.121V82.6957ZM264.815 81.3677V87.9917H263.471L263.375 86.7277C263.151 87.1757 262.805 87.5437 262.335 87.8317C261.866 88.109 261.343 88.2477 260.767 88.2477C260.159 88.2477 259.658 88.0664 259.263 87.7037C258.879 87.3304 258.677 86.8504 258.655 86.2637V81.3677H260.143V85.7357C260.165 86.109 260.271 86.4077 260.463 86.6317C260.666 86.845 260.965 86.957 261.359 86.9677C261.722 86.9677 262.053 86.861 262.351 86.6477C262.65 86.4237 262.885 86.1197 263.055 85.7357C263.237 85.3517 263.327 84.925 263.327 84.4557V81.3677H264.815ZM268.893 75.5917V87.9917H267.405V75.5917H268.893ZM283.346 81.3677V87.9917H281.858V86.9037C281.623 87.213 281.282 87.501 280.834 87.7677C280.386 88.0237 279.879 88.1517 279.314 88.1517C278.685 88.1517 278.114 88.0184 277.602 87.7517C277.101 87.4744 276.701 87.0744 276.402 86.5517C276.114 86.029 275.97 85.405 275.97 84.6797C275.97 83.9544 276.119 83.325 276.418 82.7917C276.727 82.2477 277.138 81.8317 277.65 81.5437C278.173 81.245 278.749 81.0957 279.378 81.0957C279.943 81.0957 280.434 81.2184 280.85 81.4637C281.266 81.709 281.602 82.029 281.858 82.4237L281.97 81.3677H283.346ZM279.714 86.9197C280.258 86.9197 280.722 86.7704 281.106 86.4717C281.501 86.1624 281.751 85.7464 281.858 85.2237V83.9117C281.73 83.4424 281.463 83.0637 281.058 82.7757C280.653 82.477 280.189 82.3277 279.666 82.3277C279.271 82.3277 278.903 82.4237 278.562 82.6157C278.231 82.8077 277.965 83.0797 277.762 83.4317C277.57 83.773 277.474 84.1624 277.474 84.5997C277.474 85.0264 277.575 85.4157 277.778 85.7677C277.981 86.1197 278.253 86.4024 278.594 86.6157C278.935 86.8184 279.309 86.9197 279.714 86.9197ZM290.049 81.1117C290.667 81.1117 291.179 81.2984 291.585 81.6717C291.99 82.0344 292.198 82.509 292.209 83.0957V87.9917H290.705V83.6077C290.683 83.2344 290.571 82.941 290.369 82.7277C290.166 82.5144 289.862 82.4024 289.457 82.3917C288.87 82.3917 288.385 82.6264 288.001 83.0957C287.617 83.565 287.425 84.1624 287.425 84.8877V87.9917H285.937V81.3677H287.281L287.377 82.6477C287.611 82.1677 287.963 81.7944 288.433 81.5277C288.902 81.2504 289.441 81.1117 290.049 81.1117ZM301.692 75.5917V87.9917H300.188V86.9517C299.868 87.325 299.474 87.6184 299.004 87.8317C298.546 88.045 298.039 88.1517 297.484 88.1517C296.866 88.1517 296.306 88.0024 295.804 87.7037C295.303 87.405 294.908 86.989 294.62 86.4557C294.343 85.9117 294.204 85.2877 294.204 84.5837C294.204 83.869 294.354 83.2504 294.652 82.7277C294.951 82.1944 295.362 81.789 295.884 81.5117C296.407 81.2344 296.999 81.0957 297.66 81.0957C298.162 81.0957 298.642 81.2024 299.1 81.4157C299.57 81.6184 299.938 81.901 300.204 82.2637V75.5917H301.692ZM297.948 86.8717C298.524 86.8717 299.01 86.717 299.404 86.4077C299.81 86.0984 300.071 85.6824 300.188 85.1597V83.9117C300.06 83.4317 299.788 83.0424 299.372 82.7437C298.956 82.4344 298.482 82.2797 297.948 82.2797C297.543 82.2797 297.17 82.381 296.828 82.5837C296.487 82.7757 296.215 83.0477 296.012 83.3997C295.81 83.741 295.708 84.1304 295.708 84.5677C295.708 84.9944 295.81 85.3837 296.012 85.7357C296.215 86.0877 296.487 86.365 296.828 86.5677C297.17 86.7704 297.543 86.8717 297.948 86.8717ZM316.239 75.5917V87.9917H314.735V86.9517C314.415 87.325 314.021 87.6184 313.551 87.8317C313.093 88.045 312.586 88.1517 312.031 88.1517C311.413 88.1517 310.853 88.0024 310.351 87.7037C309.85 87.405 309.455 86.989 309.167 86.4557C308.89 85.9117 308.751 85.2877 308.751 84.5837C308.751 83.869 308.901 83.2504 309.199 82.7277C309.498 82.1944 309.909 81.789 310.431 81.5117C310.954 81.2344 311.546 81.0957 312.207 81.0957C312.709 81.0957 313.189 81.2024 313.647 81.4157C314.117 81.6184 314.485 81.901 314.751 82.2637V75.5917H316.239ZM312.495 86.8717C313.071 86.8717 313.557 86.717 313.951 86.4077C314.357 86.0984 314.618 85.6824 314.735 85.1597V83.9117C314.607 83.4317 314.335 83.0424 313.919 82.7437C313.503 82.4344 313.029 82.2797 312.495 82.2797C312.09 82.2797 311.717 82.381 311.375 82.5837C311.034 82.7757 310.762 83.0477 310.559 83.3997C310.357 83.741 310.255 84.1304 310.255 84.5677C310.255 84.9944 310.357 85.3837 310.559 85.7357C310.762 86.0877 311.034 86.365 311.375 86.5677C311.717 86.7704 312.09 86.8717 312.495 86.8717ZM320.3 81.3677V87.9917H318.812V81.3677H320.3ZM318.7 78.9837C318.7 78.749 318.79 78.5517 318.972 78.3917C319.153 78.2317 319.361 78.1517 319.596 78.1517C319.83 78.1517 320.033 78.2317 320.204 78.3917C320.385 78.5517 320.476 78.749 320.476 78.9837C320.476 79.2184 320.385 79.4157 320.204 79.5757C320.033 79.7357 319.83 79.8157 319.596 79.8157C319.361 79.8157 319.153 79.7357 318.972 79.5757C318.79 79.4157 318.7 79.2184 318.7 78.9837ZM324.762 88.1357C324.271 88.1357 323.802 88.0504 323.354 87.8797C322.916 87.709 322.559 87.4584 322.282 87.1277L322.922 86.2637C323.188 86.5197 323.466 86.717 323.754 86.8557C324.052 86.9944 324.346 87.0637 324.634 87.0637C324.986 87.0637 325.274 86.9944 325.498 86.8557C325.722 86.717 325.834 86.5037 325.834 86.2157C325.834 85.9917 325.764 85.8104 325.626 85.6717C325.487 85.533 325.327 85.4317 325.146 85.3677C324.975 85.3037 324.682 85.2077 324.266 85.0797C323.135 84.717 322.57 84.0717 322.57 83.1437C322.57 82.589 322.772 82.1144 323.178 81.7197C323.594 81.325 324.17 81.1277 324.906 81.1277C325.375 81.1277 325.791 81.1864 326.154 81.3037C326.516 81.421 326.852 81.6077 327.162 81.8637L326.57 82.7757C326.399 82.5944 326.18 82.4504 325.914 82.3437C325.658 82.237 325.412 82.1784 325.178 82.1677C324.879 82.1677 324.623 82.2424 324.41 82.3917C324.196 82.5304 324.09 82.7224 324.09 82.9677C324.09 83.1704 324.159 83.341 324.298 83.4797C324.436 83.6077 324.58 83.7037 324.73 83.7677C324.879 83.821 325.172 83.917 325.61 84.0557C326.154 84.237 326.575 84.4717 326.874 84.7597C327.183 85.0477 327.338 85.437 327.338 85.9277C327.338 86.5677 327.114 87.0957 326.666 87.5117C326.218 87.9277 325.583 88.1357 324.762 88.1357ZM331.565 78.4557V81.3837H333.373V82.5677H331.565V87.9917H330.061V82.5677H328.845V81.3837H330.061V78.4557H331.565ZM336.675 81.3677V87.9917H335.187V81.3677H336.675ZM335.075 78.9837C335.075 78.749 335.165 78.5517 335.347 78.3917C335.528 78.2317 335.736 78.1517 335.971 78.1517C336.205 78.1517 336.408 78.2317 336.579 78.3917C336.76 78.5517 336.851 78.749 336.851 78.9837C336.851 79.2184 336.76 79.4157 336.579 79.5757C336.408 79.7357 336.205 79.8157 335.971 79.8157C335.736 79.8157 335.528 79.7357 335.347 79.5757C335.165 79.4157 335.075 79.2184 335.075 78.9837ZM343.377 81.1117C343.995 81.1117 344.507 81.2984 344.913 81.6717C345.318 82.0344 345.526 82.509 345.537 83.0957V87.9917H344.033V83.6077C344.011 83.2344 343.899 82.941 343.697 82.7277C343.494 82.5144 343.19 82.4024 342.785 82.3917C342.198 82.3917 341.713 82.6264 341.329 83.0957C340.945 83.565 340.753 84.1624 340.753 84.8877V87.9917H339.265V81.3677H340.609L340.705 82.6477C340.939 82.1677 341.291 81.7944 341.761 81.5277C342.23 81.2504 342.769 81.1117 343.377 81.1117ZM353.485 87.3677C353.186 87.613 352.829 87.805 352.413 87.9437C352.007 88.0824 351.591 88.1517 351.165 88.1517C350.45 88.1517 349.815 88.0077 349.261 87.7197C348.717 87.4317 348.29 87.0264 347.981 86.5037C347.682 85.9704 347.533 85.357 347.533 84.6637C347.533 83.981 347.693 83.3784 348.013 82.8557C348.333 82.3224 348.759 81.9117 349.293 81.6237C349.826 81.3357 350.402 81.1917 351.021 81.1917C352.034 81.1917 352.871 81.469 353.533 82.0237L352.781 82.9997C352.567 82.8397 352.322 82.7064 352.045 82.5997C351.767 82.4824 351.469 82.4237 351.149 82.4237C350.754 82.4237 350.391 82.525 350.061 82.7277C349.741 82.9197 349.485 83.1864 349.293 83.5277C349.111 83.869 349.021 84.2477 349.021 84.6637C349.021 85.0797 349.117 85.4584 349.309 85.7997C349.511 86.141 349.783 86.413 350.125 86.6157C350.466 86.8184 350.855 86.9197 351.293 86.9197C351.837 86.9197 352.311 86.7597 352.717 86.4397L353.485 87.3677ZM357.549 78.4557V81.3837H359.357V82.5677H357.549V87.9917H356.045V82.5677H354.829V81.3837H356.045V78.4557H357.549ZM362.659 81.3677V87.9917H361.171V81.3677H362.659ZM361.059 78.9837C361.059 78.749 361.15 78.5517 361.331 78.3917C361.512 78.2317 361.72 78.1517 361.955 78.1517C362.19 78.1517 362.392 78.2317 362.563 78.3917C362.744 78.5517 362.835 78.749 362.835 78.9837C362.835 79.2184 362.744 79.4157 362.563 79.5757C362.392 79.7357 362.19 79.8157 361.955 79.8157C361.72 79.8157 361.512 79.7357 361.331 79.5757C361.15 79.4157 361.059 79.2184 361.059 78.9837ZM371.553 81.3677L368.017 88.1837H367.937L364.257 81.3677H366.033L368.033 85.5917L369.889 81.3677H371.553ZM376.103 86.8717C376.658 86.8717 377.196 86.6797 377.719 86.2957L378.407 87.3997C378.055 87.6344 377.671 87.821 377.255 87.9597C376.85 88.0877 376.455 88.1517 376.071 88.1517C375.335 88.1517 374.69 88.0024 374.135 87.7037C373.591 87.3944 373.17 86.973 372.871 86.4397C372.572 85.9064 372.423 85.3037 372.423 84.6317C372.423 83.981 372.583 83.389 372.903 82.8557C373.234 82.3117 373.682 81.885 374.247 81.5757C374.812 81.2557 375.431 81.0957 376.103 81.0957C376.967 81.0957 377.687 81.3517 378.263 81.8637C378.85 82.365 379.25 83.069 379.463 83.9757L374.215 85.8157C374.407 86.1464 374.663 86.4077 374.983 86.5997C375.314 86.781 375.687 86.8717 376.103 86.8717ZM375.991 82.2797C375.383 82.2797 374.882 82.493 374.487 82.9197C374.092 83.3464 373.895 83.8904 373.895 84.5517C373.895 84.7117 373.9 84.8344 373.911 84.9197L377.767 83.4957C377.607 83.133 377.378 82.8397 377.079 82.6157C376.791 82.3917 376.428 82.2797 375.991 82.2797ZM387.814 82.9357C387.985 82.573 388.225 82.253 388.534 81.9757C388.854 81.6984 389.19 81.485 389.542 81.3357C389.894 81.1864 390.203 81.1064 390.47 81.0957L390.406 82.5837C389.926 82.5624 389.489 82.6584 389.094 82.8717C388.71 83.085 388.406 83.3837 388.182 83.7677C387.969 84.141 387.862 84.541 387.862 84.9677V87.9917H386.374V81.3677H387.702L387.814 82.9357ZM391.533 84.6157C391.533 83.965 391.687 83.373 391.997 82.8397C392.317 82.2957 392.754 81.869 393.309 81.5597C393.874 81.2504 394.509 81.0957 395.213 81.0957C395.917 81.0957 396.541 81.2504 397.085 81.5597C397.639 81.869 398.066 82.2904 398.365 82.8237C398.674 83.357 398.829 83.9544 398.829 84.6157C398.829 85.277 398.674 85.8797 398.365 86.4237C398.066 86.957 397.639 87.3784 397.085 87.6877C396.53 87.997 395.895 88.1517 395.181 88.1517C394.487 88.1517 393.863 88.0077 393.309 87.7197C392.754 87.421 392.317 87.005 391.997 86.4717C391.687 85.9384 391.533 85.3197 391.533 84.6157ZM393.037 84.6317C393.037 85.0477 393.127 85.4317 393.309 85.7837C393.501 86.1357 393.757 86.413 394.077 86.6157C394.407 86.8184 394.77 86.9197 395.165 86.9197C395.783 86.9197 396.295 86.701 396.701 86.2637C397.106 85.8264 397.309 85.2824 397.309 84.6317C397.309 83.981 397.106 83.437 396.701 82.9997C396.295 82.5517 395.783 82.3277 395.165 82.3277C394.759 82.3277 394.397 82.4344 394.077 82.6477C393.757 82.8504 393.501 83.1277 393.309 83.4797C393.127 83.8317 393.037 84.2157 393.037 84.6317ZM400.251 84.6157C400.251 83.965 400.406 83.373 400.715 82.8397C401.035 82.2957 401.473 81.869 402.027 81.5597C402.593 81.2504 403.227 81.0957 403.931 81.0957C404.635 81.0957 405.259 81.2504 405.803 81.5597C406.358 81.869 406.785 82.2904 407.083 82.8237C407.393 83.357 407.547 83.9544 407.547 84.6157C407.547 85.277 407.393 85.8797 407.083 86.4237C406.785 86.957 406.358 87.3784 405.803 87.6877C405.249 87.997 404.614 88.1517 403.899 88.1517C403.206 88.1517 402.582 88.0077 402.027 87.7197C401.473 87.421 401.035 87.005 400.715 86.4717C400.406 85.9384 400.251 85.3197 400.251 84.6157ZM401.755 84.6317C401.755 85.0477 401.846 85.4317 402.027 85.7837C402.219 86.1357 402.475 86.413 402.795 86.6157C403.126 86.8184 403.489 86.9197 403.883 86.9197C404.502 86.9197 405.014 86.701 405.419 86.2637C405.825 85.8264 406.027 85.2824 406.027 84.6317C406.027 83.981 405.825 83.437 405.419 82.9997C405.014 82.5517 404.502 82.3277 403.883 82.3277C403.478 82.3277 403.115 82.4344 402.795 82.6477C402.475 82.8504 402.219 83.1277 402.027 83.4797C401.846 83.8317 401.755 84.2157 401.755 84.6317ZM418.042 81.0957C418.682 81.0957 419.189 81.277 419.562 81.6397C419.946 82.0024 420.149 82.4824 420.17 83.0797V87.9917H418.682V83.6237C418.65 82.845 418.298 82.4344 417.626 82.3917C417.242 82.3917 416.895 82.509 416.586 82.7437C416.287 82.9677 416.053 83.2664 415.882 83.6397C415.711 84.013 415.621 84.413 415.61 84.8397V87.9917H414.106V83.6237C414.074 82.845 413.711 82.4344 413.018 82.3917C412.645 82.3917 412.303 82.509 411.994 82.7437C411.695 82.9677 411.461 83.2717 411.29 83.6557C411.119 84.029 411.034 84.429 411.034 84.8557V87.9917H409.546V81.3677H410.89L411.002 82.6157C411.258 82.1357 411.605 81.7624 412.042 81.4957C412.49 81.229 412.997 81.0957 413.562 81.0957C414.095 81.0957 414.543 81.2237 414.906 81.4797C415.269 81.725 415.503 82.0664 415.61 82.5037C415.887 82.0664 416.239 81.725 416.666 81.4797C417.093 81.2237 417.551 81.0957 418.042 81.0957ZM424.621 88.1357C424.13 88.1357 423.661 88.0504 423.213 87.8797C422.776 87.709 422.418 87.4584 422.141 87.1277L422.781 86.2637C423.048 86.5197 423.325 86.717 423.613 86.8557C423.912 86.9944 424.205 87.0637 424.493 87.0637C424.845 87.0637 425.133 86.9944 425.357 86.8557C425.581 86.717 425.693 86.5037 425.693 86.2157C425.693 85.9917 425.624 85.8104 425.485 85.6717C425.346 85.533 425.186 85.4317 425.005 85.3677C424.834 85.3037 424.541 85.2077 424.125 85.0797C422.994 84.717 422.429 84.0717 422.429 83.1437C422.429 82.589 422.632 82.1144 423.037 81.7197C423.453 81.325 424.029 81.1277 424.765 81.1277C425.234 81.1277 425.65 81.1864 426.013 81.3037C426.376 81.421 426.712 81.6077 427.021 81.8637L426.429 82.7757C426.258 82.5944 426.04 82.4504 425.773 82.3437C425.517 82.237 425.272 82.1784 425.037 82.1677C424.738 82.1677 424.482 82.2424 424.269 82.3917C424.056 82.5304 423.949 82.7224 423.949 82.9677C423.949 83.1704 424.018 83.341 424.157 83.4797C424.296 83.6077 424.44 83.7037 424.589 83.7677C424.738 83.821 425.032 83.917 425.469 84.0557C426.013 84.237 426.434 84.4717 426.733 84.7597C427.042 85.0477 427.197 85.437 427.197 85.9277C427.197 86.5677 426.973 87.0957 426.525 87.5117C426.077 87.9277 425.442 88.1357 424.621 88.1357ZM441.143 81.3677V87.9917H439.655V86.9037C439.42 87.213 439.079 87.501 438.631 87.7677C438.183 88.0237 437.676 88.1517 437.111 88.1517C436.482 88.1517 435.911 88.0184 435.399 87.7517C434.898 87.4744 434.498 87.0744 434.199 86.5517C433.911 86.029 433.767 85.405 433.767 84.6797C433.767 83.9544 433.916 83.325 434.215 82.7917C434.524 82.2477 434.935 81.8317 435.447 81.5437C435.97 81.245 436.546 81.0957 437.175 81.0957C437.74 81.0957 438.231 81.2184 438.647 81.4637C439.063 81.709 439.399 82.029 439.655 82.4237L439.767 81.3677H441.143ZM437.511 86.9197C438.055 86.9197 438.519 86.7704 438.903 86.4717C439.298 86.1624 439.548 85.7464 439.655 85.2237V83.9117C439.527 83.4424 439.26 83.0637 438.855 82.7757C438.45 82.477 437.986 82.3277 437.463 82.3277C437.068 82.3277 436.7 82.4237 436.359 82.6157C436.028 82.8077 435.762 83.0797 435.559 83.4317C435.367 83.773 435.271 84.1624 435.271 84.5997C435.271 85.0264 435.372 85.4157 435.575 85.7677C435.778 86.1197 436.05 86.4024 436.391 86.6157C436.732 86.8184 437.106 86.9197 437.511 86.9197ZM449.11 87.3677C448.811 87.613 448.454 87.805 448.038 87.9437C447.632 88.0824 447.216 88.1517 446.79 88.1517C446.075 88.1517 445.44 88.0077 444.886 87.7197C444.342 87.4317 443.915 87.0264 443.606 86.5037C443.307 85.9704 443.158 85.357 443.158 84.6637C443.158 83.981 443.318 83.3784 443.638 82.8557C443.958 82.3224 444.384 81.9117 444.918 81.6237C445.451 81.3357 446.027 81.1917 446.646 81.1917C447.659 81.1917 448.496 81.469 449.158 82.0237L448.406 82.9997C448.192 82.8397 447.947 82.7064 447.67 82.5997C447.392 82.4824 447.094 82.4237 446.774 82.4237C446.379 82.4237 446.016 82.525 445.686 82.7277C445.366 82.9197 445.11 83.1864 444.918 83.5277C444.736 83.869 444.646 84.2477 444.646 84.6637C444.646 85.0797 444.742 85.4584 444.934 85.7997C445.136 86.141 445.408 86.413 445.75 86.6157C446.091 86.8184 446.48 86.9197 446.918 86.9197C447.462 86.9197 447.936 86.7597 448.342 86.4397L449.11 87.3677ZM456.406 87.3677C456.108 87.613 455.75 87.805 455.334 87.9437C454.929 88.0824 454.513 88.1517 454.086 88.1517C453.372 88.1517 452.737 88.0077 452.182 87.7197C451.638 87.4317 451.212 87.0264 450.902 86.5037C450.604 85.9704 450.454 85.357 450.454 84.6637C450.454 83.981 450.614 83.3784 450.934 82.8557C451.254 82.3224 451.681 81.9117 452.214 81.6237C452.748 81.3357 453.324 81.1917 453.942 81.1917C454.956 81.1917 455.793 81.469 456.454 82.0237L455.702 82.9997C455.489 82.8397 455.244 82.7064 454.966 82.5997C454.689 82.4824 454.39 82.4237 454.07 82.4237C453.676 82.4237 453.313 82.525 452.982 82.7277C452.662 82.9197 452.406 83.1864 452.214 83.5277C452.033 83.869 451.942 84.2477 451.942 84.6637C451.942 85.0797 452.038 85.4584 452.23 85.7997C452.433 86.141 452.705 86.413 453.046 86.6157C453.388 86.8184 453.777 86.9197 454.214 86.9197C454.758 86.9197 455.233 86.7597 455.638 86.4397L456.406 87.3677ZM457.751 84.6157C457.751 83.965 457.906 83.373 458.215 82.8397C458.535 82.2957 458.973 81.869 459.527 81.5597C460.093 81.2504 460.727 81.0957 461.431 81.0957C462.135 81.0957 462.759 81.2504 463.303 81.5597C463.858 81.869 464.285 82.2904 464.583 82.8237C464.893 83.357 465.047 83.9544 465.047 84.6157C465.047 85.277 464.893 85.8797 464.583 86.4237C464.285 86.957 463.858 87.3784 463.303 87.6877C462.749 87.997 462.114 88.1517 461.399 88.1517C460.706 88.1517 460.082 88.0077 459.527 87.7197C458.973 87.421 458.535 87.005 458.215 86.4717C457.906 85.9384 457.751 85.3197 457.751 84.6157ZM459.255 84.6317C459.255 85.0477 459.346 85.4317 459.527 85.7837C459.719 86.1357 459.975 86.413 460.295 86.6157C460.626 86.8184 460.989 86.9197 461.383 86.9197C462.002 86.9197 462.514 86.701 462.919 86.2637C463.325 85.8264 463.527 85.2824 463.527 84.6317C463.527 83.981 463.325 83.437 462.919 82.9997C462.514 82.5517 462.002 82.3277 461.383 82.3277C460.978 82.3277 460.615 82.4344 460.295 82.6477C459.975 82.8504 459.719 83.1277 459.527 83.4797C459.346 83.8317 459.255 84.2157 459.255 84.6317ZM468.486 82.9357C468.657 82.573 468.897 82.253 469.206 81.9757C469.526 81.6984 469.862 81.485 470.214 81.3357C470.566 81.1864 470.875 81.1064 471.142 81.0957L471.078 82.5837C470.598 82.5624 470.161 82.6584 469.766 82.8717C469.382 83.085 469.078 83.3837 468.854 83.7677C468.641 84.141 468.534 84.541 468.534 84.9677V87.9917H467.046V81.3677H468.374L468.486 82.9357ZM479.692 75.5917V87.9917H478.188V86.9517C477.868 87.325 477.474 87.6184 477.004 87.8317C476.546 88.045 476.039 88.1517 475.484 88.1517C474.866 88.1517 474.306 88.0024 473.804 87.7037C473.303 87.405 472.908 86.989 472.62 86.4557C472.343 85.9117 472.204 85.2877 472.204 84.5837C472.204 83.869 472.354 83.2504 472.652 82.7277C472.951 82.1944 473.362 81.789 473.884 81.5117C474.407 81.2344 474.999 81.0957 475.66 81.0957C476.162 81.0957 476.642 81.2024 477.1 81.4157C477.57 81.6184 477.938 81.901 478.204 82.2637V75.5917H479.692ZM475.948 86.8717C476.524 86.8717 477.01 86.717 477.404 86.4077C477.81 86.0984 478.071 85.6824 478.188 85.1597V83.9117C478.06 83.4317 477.788 83.0424 477.372 82.7437C476.956 82.4344 476.482 82.2797 475.948 82.2797C475.543 82.2797 475.17 82.381 474.828 82.5837C474.487 82.7757 474.215 83.0477 474.012 83.3997C473.81 83.741 473.708 84.1304 473.708 84.5677C473.708 84.9944 473.81 85.3837 474.012 85.7357C474.215 86.0877 474.487 86.365 474.828 86.5677C475.17 86.7704 475.543 86.8717 475.948 86.8717ZM483.753 81.3677V87.9917H482.265V81.3677H483.753ZM482.153 78.9837C482.153 78.749 482.243 78.5517 482.425 78.3917C482.606 78.2317 482.814 78.1517 483.049 78.1517C483.283 78.1517 483.486 78.2317 483.657 78.3917C483.838 78.5517 483.929 78.749 483.929 78.9837C483.929 79.2184 483.838 79.4157 483.657 79.5757C483.486 79.7357 483.283 79.8157 483.049 79.8157C482.814 79.8157 482.606 79.7357 482.425 79.5757C482.243 79.4157 482.153 79.2184 482.153 78.9837ZM490.455 81.1117C491.074 81.1117 491.586 81.2984 491.991 81.6717C492.396 82.0344 492.604 82.509 492.615 83.0957V87.9917H491.111V83.6077C491.09 83.2344 490.978 82.941 490.775 82.7277C490.572 82.5144 490.268 82.4024 489.863 82.3917C489.276 82.3917 488.791 82.6264 488.407 83.0957C488.023 83.565 487.831 84.1624 487.831 84.8877V87.9917H486.343V81.3677H487.687L487.783 82.6477C488.018 82.1677 488.37 81.7944 488.839 81.5277C489.308 81.2504 489.847 81.1117 490.455 81.1117ZM502.179 81.3677V88.0397C502.179 88.6477 502.024 89.197 501.715 89.6877C501.405 90.1784 500.963 90.5677 500.387 90.8557C499.821 91.1437 499.155 91.2877 498.387 91.2877C497.715 91.2877 497.133 91.1757 496.643 90.9517C496.163 90.7277 495.677 90.397 495.187 89.9597L496.067 88.9357C496.429 89.277 496.792 89.533 497.155 89.7037C497.517 89.885 497.917 89.9757 498.355 89.9757C499.091 89.9757 499.656 89.7997 500.051 89.4477C500.456 89.0957 500.664 88.621 500.675 88.0237L500.691 86.7757C500.445 87.1917 500.083 87.5277 499.603 87.7837C499.133 88.029 498.589 88.1517 497.971 88.1517C497.363 88.1517 496.803 87.997 496.291 87.6877C495.779 87.3784 495.368 86.957 495.059 86.4237C494.76 85.8904 494.611 85.2984 494.611 84.6477C494.611 83.9757 494.765 83.373 495.075 82.8397C495.395 82.2957 495.821 81.869 496.355 81.5597C496.888 81.2504 497.459 81.0957 498.067 81.0957C498.632 81.0957 499.155 81.2077 499.635 81.4317C500.115 81.6557 500.472 81.9437 500.707 82.2957L500.819 81.3677H502.179ZM498.403 86.9197C498.968 86.9197 499.459 86.765 499.875 86.4557C500.291 86.1464 500.563 85.741 500.691 85.2397V83.9277C500.541 83.4477 500.259 83.0637 499.843 82.7757C499.427 82.477 498.947 82.3277 498.403 82.3277C497.752 82.3277 497.208 82.541 496.771 82.9677C496.333 83.3944 496.115 83.9384 496.115 84.5997C496.115 85.0264 496.216 85.4157 496.419 85.7677C496.621 86.1197 496.899 86.4024 497.251 86.6157C497.603 86.8184 497.987 86.9197 498.403 86.9197ZM62.44 102.456V105.384H64.248V106.568H62.44V111.992H60.936V106.568H59.72V105.384H60.936V102.456H62.44ZM65.4856 108.616C65.4856 107.965 65.6403 107.373 65.9496 106.84C66.2696 106.296 66.707 105.869 67.2616 105.56C67.827 105.25 68.4616 105.096 69.1656 105.096C69.8696 105.096 70.4936 105.25 71.0376 105.56C71.5923 105.869 72.019 106.29 72.3176 106.824C72.627 107.357 72.7816 107.954 72.7816 108.616C72.7816 109.277 72.627 109.88 72.3176 110.424C72.019 110.957 71.5923 111.378 71.0376 111.688C70.483 111.997 69.8483 112.152 69.1336 112.152C68.4403 112.152 67.8163 112.008 67.2616 111.72C66.707 111.421 66.2696 111.005 65.9496 110.472C65.6403 109.938 65.4856 109.32 65.4856 108.616ZM66.9896 108.632C66.9896 109.048 67.0803 109.432 67.2616 109.784C67.4536 110.136 67.7096 110.413 68.0296 110.616C68.3603 110.818 68.723 110.92 69.1176 110.92C69.7363 110.92 70.2483 110.701 70.6536 110.264C71.059 109.826 71.2616 109.282 71.2616 108.632C71.2616 107.981 71.059 107.437 70.6536 107C70.2483 106.552 69.7363 106.328 69.1176 106.328C68.7123 106.328 68.3496 106.434 68.0296 106.648C67.7096 106.85 67.4536 107.128 67.2616 107.48C67.0803 107.832 66.9896 108.216 66.9896 108.632ZM89.0429 105.368L85.9869 112.392L83.8589 107.848L81.9229 112.392L78.8509 105.368H80.3229L82.0989 109.384L83.3309 106.504L82.8029 105.368H84.0989L85.8909 109.48L87.5709 105.368H89.0429ZM94.7518 105.112C95.3704 105.112 95.8824 105.298 96.2878 105.672C96.6931 106.034 96.9011 106.509 96.9118 107.096V111.992H95.4078V107.608C95.3864 107.234 95.2744 106.941 95.0718 106.728C94.8691 106.514 94.5651 106.402 94.1598 106.392C93.7758 106.392 93.4291 106.498 93.1198 106.712C92.8104 106.925 92.5651 107.224 92.3838 107.608C92.2131 107.992 92.1278 108.418 92.1278 108.888V111.992H90.6398V99.5917H92.0958V106.568C92.3411 106.13 92.6931 105.778 93.1518 105.512C93.6211 105.245 94.1544 105.112 94.7518 105.112ZM106.284 105.368V111.992H104.796V110.904C104.561 111.213 104.22 111.501 103.772 111.768C103.324 112.024 102.817 112.152 102.252 112.152C101.622 112.152 101.052 112.018 100.539 111.752C100.038 111.474 99.6382 111.074 99.3395 110.552C99.0515 110.029 98.9075 109.405 98.9075 108.68C98.9075 107.954 99.0568 107.325 99.3555 106.792C99.6648 106.248 100.076 105.832 100.588 105.544C101.11 105.245 101.686 105.096 102.316 105.096C102.881 105.096 103.372 105.218 103.788 105.464C104.204 105.709 104.54 106.029 104.796 106.424L104.908 105.368H106.284ZM102.652 110.92C103.196 110.92 103.66 110.77 104.044 110.472C104.438 110.162 104.689 109.746 104.796 109.224V107.912C104.668 107.442 104.401 107.064 103.996 106.776C103.59 106.477 103.126 106.328 102.604 106.328C102.209 106.328 101.841 106.424 101.5 106.616C101.169 106.808 100.902 107.08 100.7 107.432C100.508 107.773 100.412 108.162 100.412 108.6C100.412 109.026 100.513 109.416 100.716 109.768C100.918 110.12 101.19 110.402 101.532 110.616C101.873 110.818 102.246 110.92 102.652 110.92ZM111.018 102.456V105.384H112.826V106.568H111.018V111.992H109.514V106.568H108.298V105.384H109.514V102.456H111.018ZM121.574 112.136C121.084 112.136 120.614 112.05 120.166 111.88C119.729 111.709 119.372 111.458 119.094 111.128L119.734 110.264C120.001 110.52 120.278 110.717 120.566 110.856C120.865 110.994 121.158 111.064 121.446 111.064C121.798 111.064 122.086 110.994 122.31 110.856C122.534 110.717 122.646 110.504 122.646 110.216C122.646 109.992 122.577 109.81 122.438 109.672C122.3 109.533 122.14 109.432 121.958 109.368C121.788 109.304 121.494 109.208 121.078 109.08C119.948 108.717 119.382 108.072 119.382 107.144C119.382 106.589 119.585 106.114 119.99 105.72C120.406 105.325 120.982 105.128 121.718 105.128C122.188 105.128 122.604 105.186 122.966 105.304C123.329 105.421 123.665 105.608 123.974 105.864L123.382 106.776C123.212 106.594 122.993 106.45 122.726 106.344C122.47 106.237 122.225 106.178 121.99 106.168C121.692 106.168 121.436 106.242 121.222 106.392C121.009 106.53 120.902 106.722 120.902 106.968C120.902 107.17 120.972 107.341 121.11 107.48C121.249 107.608 121.393 107.704 121.542 107.768C121.692 107.821 121.985 107.917 122.422 108.056C122.966 108.237 123.388 108.472 123.686 108.76C123.996 109.048 124.15 109.437 124.15 109.928C124.15 110.568 123.926 111.096 123.478 111.512C123.03 111.928 122.396 112.136 121.574 112.136ZM132.394 105.368V111.992H131.05L130.954 110.728C130.73 111.176 130.383 111.544 129.914 111.832C129.444 112.109 128.922 112.248 128.346 112.248C127.738 112.248 127.236 112.066 126.842 111.704C126.458 111.33 126.255 110.85 126.234 110.264V105.368H127.722V109.736C127.743 110.109 127.85 110.408 128.042 110.632C128.244 110.845 128.543 110.957 128.938 110.968C129.3 110.968 129.631 110.861 129.93 110.648C130.228 110.424 130.463 110.12 130.634 109.736C130.815 109.352 130.906 108.925 130.906 108.456V105.368H132.394ZM136.472 105.368V111.992H134.984V105.368H136.472ZM134.872 102.984C134.872 102.749 134.962 102.552 135.144 102.392C135.325 102.232 135.533 102.152 135.768 102.152C136.002 102.152 136.205 102.232 136.376 102.392C136.557 102.552 136.648 102.749 136.648 102.984C136.648 103.218 136.557 103.416 136.376 103.576C136.205 103.736 136.002 103.816 135.768 103.816C135.533 103.816 135.325 103.736 135.144 103.576C134.962 103.416 134.872 103.218 134.872 102.984ZM141.206 102.456V105.384H143.014V106.568H141.206V111.992H139.702V106.568H138.486V105.384H139.702V102.456H141.206ZM146.699 112.136C146.209 112.136 145.739 112.05 145.291 111.88C144.854 111.709 144.497 111.458 144.219 111.128L144.859 110.264C145.126 110.52 145.403 110.717 145.691 110.856C145.99 110.994 146.283 111.064 146.571 111.064C146.923 111.064 147.211 110.994 147.435 110.856C147.659 110.717 147.771 110.504 147.771 110.216C147.771 109.992 147.702 109.81 147.563 109.672C147.425 109.533 147.265 109.432 147.083 109.368C146.913 109.304 146.619 109.208 146.203 109.08C145.073 108.717 144.507 108.072 144.507 107.144C144.507 106.589 144.71 106.114 145.115 105.72C145.531 105.325 146.107 105.128 146.843 105.128C147.313 105.128 147.729 105.186 148.091 105.304C148.454 105.421 148.79 105.608 149.099 105.864L148.507 106.776C148.337 106.594 148.118 106.45 147.851 106.344C147.595 106.237 147.35 106.178 147.115 106.168C146.817 106.168 146.561 106.242 146.347 106.392C146.134 106.53 146.027 106.722 146.027 106.968C146.027 107.17 146.097 107.341 146.235 107.48C146.374 107.608 146.518 107.704 146.667 107.768C146.817 107.821 147.11 107.917 147.547 108.056C148.091 108.237 148.513 108.472 148.811 108.76C149.121 109.048 149.275 109.437 149.275 109.928C149.275 110.568 149.051 111.096 148.603 111.512C148.155 111.928 147.521 112.136 146.699 112.136ZM162.725 105.368L158.453 115.176H156.981L158.501 111.768L155.429 105.368H157.109L159.253 110.088L161.349 105.368H162.725ZM163.548 108.616C163.548 107.965 163.703 107.373 164.012 106.84C164.332 106.296 164.769 105.869 165.324 105.56C165.889 105.25 166.524 105.096 167.228 105.096C167.932 105.096 168.556 105.25 169.1 105.56C169.655 105.869 170.081 106.29 170.38 106.824C170.689 107.357 170.844 107.954 170.844 108.616C170.844 109.277 170.689 109.88 170.38 110.424C170.081 110.957 169.655 111.378 169.1 111.688C168.545 111.997 167.911 112.152 167.196 112.152C166.503 112.152 165.879 112.008 165.324 111.72C164.769 111.421 164.332 111.005 164.012 110.472C163.703 109.938 163.548 109.32 163.548 108.616ZM165.052 108.632C165.052 109.048 165.143 109.432 165.324 109.784C165.516 110.136 165.772 110.413 166.092 110.616C166.423 110.818 166.785 110.92 167.18 110.92C167.799 110.92 168.311 110.701 168.716 110.264C169.121 109.826 169.324 109.282 169.324 108.632C169.324 107.981 169.121 107.437 168.716 107C168.311 106.552 167.799 106.328 167.18 106.328C166.775 106.328 166.412 106.434 166.092 106.648C165.772 106.85 165.516 107.128 165.324 107.48C165.143 107.832 165.052 108.216 165.052 108.632ZM179.003 105.368V111.992H177.659L177.563 110.728C177.339 111.176 176.992 111.544 176.523 111.832C176.054 112.109 175.531 112.248 174.955 112.248C174.347 112.248 173.846 112.066 173.451 111.704C173.067 111.33 172.864 110.85 172.843 110.264V105.368H174.331V109.736C174.352 110.109 174.459 110.408 174.651 110.632C174.854 110.845 175.152 110.957 175.547 110.968C175.91 110.968 176.24 110.861 176.539 110.648C176.838 110.424 177.072 110.12 177.243 109.736C177.424 109.352 177.515 108.925 177.515 108.456V105.368H179.003Z" fill="white"/>
<defs>
<filter id="filter0_b_502_1963" x="-10" y="-10.0083" width="590" height="156" filterUnits="userSpaceOnUse" color-interpolation-filters="sRGB">
<feFlood flood-opacity="0" result="BackgroundImageFix"/>
<feGaussianBlur in="BackgroundImageFix" stdDeviation="5"/>
<feComposite in2="SourceAlpha" operator="in" result="effect1_backgroundBlur_502_1963"/>
<feBlend mode="normal" in="SourceGraphic" in2="effect1_backgroundBlur_502_1963" result="shape"/>
</filter>
<clipPath id="clip0_502_1963">
<rect width="24" height="24" fill="white" transform="translate(18 29.9917)"/>
</clipPath>
</defs>
</svg>
