<svg width="570" height="112" viewBox="0 0 570 112" fill="none" xmlns="http://www.w3.org/2000/svg">
<g filter="url(#filter0_b_502_1972)">
<rect width="570" height="112" rx="10" fill="#2B648A"/>
<rect x="0.5" y="0.5" width="569" height="111" rx="9.5" stroke="white" stroke-linecap="round" stroke-dasharray="7 7"/>
</g>
<rect width="24" height="24" transform="translate(18 29.9917)" fill="#2B648A"/>
<g clip-path="url(#clip0_502_1972)">
<path d="M30 51.9917C24.477 51.9917 20 47.5147 20 41.9917C20 36.4687 24.477 31.9917 30 31.9917C35.523 31.9917 40 36.4687 40 41.9917C40 47.5147 35.523 51.9917 30 51.9917ZM29.003 45.9917L36.073 38.9207L34.659 37.5067L29.003 43.1637L26.174 40.3347L24.76 41.7487L29.003 45.9917Z" fill="white"/>
</g>
<path d="M61 35.4317H65.14C66.9667 35.4317 68.4733 35.7917 69.66 36.5117C70.86 37.2317 71.7333 38.1584 72.28 39.2917C72.8267 40.425 73.1 41.6317 73.1 42.9117C73.1 44.325 72.7667 45.5717 72.1 46.6517C71.4467 47.7184 70.5667 48.545 69.46 49.1317C68.3533 49.705 67.1467 49.9917 65.84 49.9917H61V35.4317ZM65.42 47.7517C66.46 47.7517 67.3733 47.5584 68.16 47.1717C68.96 46.785 69.58 46.2184 70.02 45.4717C70.4733 44.7117 70.7 43.805 70.7 42.7517C70.7 41.605 70.4533 40.6517 69.96 39.8917C69.48 39.1184 68.86 38.5517 68.1 38.1917C67.3533 37.8317 66.58 37.6517 65.78 37.6517H63.34V47.7517H65.42ZM82.8355 46.5717H77.5355L76.1355 49.9917H73.8355L80.2755 34.8317H80.4155L86.8555 49.9917H84.1755L82.8355 46.5717ZM82.0555 44.5717L80.2355 39.9717L78.3555 44.5717H82.0555ZM96.8875 35.4317V37.6717H93.1275V49.9917H90.8075V37.6717H87.1475V35.4317H96.8875ZM109.508 35.4317V37.6717H102.188V41.5517H108.708V43.7917H102.188V47.7517H109.788V49.9917H99.8477V35.4317H109.508ZM128.518 49.9917L127.358 48.4517C126.931 48.985 126.371 49.4117 125.678 49.7317C124.998 50.0517 124.205 50.2117 123.298 50.2117C122.391 50.2117 121.571 50.025 120.838 49.6517C120.105 49.265 119.525 48.7384 119.098 48.0717C118.671 47.405 118.458 46.6584 118.458 45.8317C118.458 44.8184 118.811 43.925 119.518 43.1517C120.225 42.3784 121.105 41.8384 122.158 41.5317L121.758 40.9917C121.025 39.9117 120.658 38.965 120.658 38.1517C120.658 37.5917 120.798 37.0517 121.078 36.5317C121.371 36.0117 121.791 35.5917 122.338 35.2717C122.898 34.9517 123.558 34.7917 124.318 34.7917C125.118 34.7917 125.851 34.9584 126.518 35.2917C127.198 35.6117 127.758 36.025 128.198 36.5317L127.038 38.0717C126.585 37.645 126.165 37.3184 125.778 37.0917C125.405 36.865 125.045 36.7517 124.698 36.7517C124.191 36.7517 123.791 36.905 123.498 37.2117C123.205 37.5184 123.058 37.8984 123.058 38.3517C123.058 38.7384 123.165 39.1117 123.378 39.4717C123.591 39.8184 123.705 39.9984 123.718 40.0117L127.098 44.5117L128.318 41.3117H130.458L128.478 46.3517L131.218 49.9917H128.518ZM123.618 48.1317C124.765 48.1317 125.605 47.6984 126.138 46.8317L123.378 43.1317C122.685 43.1984 122.091 43.4784 121.598 43.9717C121.118 44.465 120.878 45.045 120.878 45.7117C120.878 46.4184 121.138 46.9984 121.658 47.4517C122.191 47.905 122.845 48.1317 123.618 48.1317ZM144.573 35.4317C146.226 35.4317 147.52 35.845 148.453 36.6717C149.386 37.4984 149.853 38.645 149.853 40.1117C149.853 40.9517 149.686 41.7384 149.353 42.4717C149.02 43.1917 148.48 43.785 147.733 44.2517C147 44.705 146.053 44.9317 144.893 44.9317H142.793V49.9917H140.453V35.4317H144.573ZM144.893 42.6917C145.533 42.6917 146.046 42.5584 146.433 42.2917C146.833 42.0117 147.113 41.6784 147.273 41.2917C147.446 40.8917 147.533 40.5117 147.533 40.1517C147.533 39.5384 147.333 38.9717 146.933 38.4517C146.546 37.9317 145.886 37.6717 144.953 37.6717H142.793V42.6917H144.893ZM160.64 49.9917L157.36 44.9317H157.12H155.02V49.9917H152.68V35.4317H156.78C158.406 35.4317 159.706 35.845 160.68 36.6717C161.666 37.4984 162.16 38.645 162.16 40.1117C162.16 41.005 161.966 41.8384 161.58 42.6117C161.206 43.3717 160.613 43.9584 159.8 44.3717L163.34 49.9917H160.64ZM155.02 42.6917H157.1C158.033 42.6917 158.706 42.4384 159.12 41.9317C159.546 41.4117 159.76 40.8317 159.76 40.1917C159.76 39.8184 159.68 39.445 159.52 39.0717C159.36 38.685 159.086 38.3584 158.7 38.0917C158.313 37.8117 157.806 37.6717 157.18 37.6717H155.02V42.6917ZM168.418 35.4317V49.9917H166.078V35.4317H168.418ZM183.226 48.8517C182.799 49.1584 182.206 49.4517 181.446 49.7317C180.699 50.0117 179.879 50.1517 178.986 50.1517C177.479 50.1517 176.159 49.825 175.026 49.1717C173.906 48.505 173.039 47.6184 172.426 46.5117C171.826 45.3917 171.526 44.165 171.526 42.8317C171.526 41.3784 171.826 40.0784 172.426 38.9317C173.039 37.785 173.886 36.8917 174.966 36.2517C176.059 35.5984 177.299 35.2717 178.686 35.2717C179.539 35.2717 180.326 35.385 181.046 35.6117C181.779 35.8384 182.426 36.125 182.986 36.4717L182.066 38.6517C180.986 37.8917 179.886 37.5117 178.766 37.5117C177.912 37.5117 177.112 37.745 176.366 38.2117C175.632 38.665 175.046 39.2917 174.606 40.0917C174.166 40.8784 173.946 41.745 173.946 42.6917C173.946 43.6917 174.146 44.5917 174.546 45.3917C174.959 46.1784 175.539 46.7984 176.286 47.2517C177.046 47.6917 177.919 47.9117 178.906 47.9117C179.612 47.9117 180.246 47.805 180.806 47.5917C181.379 47.3784 181.859 47.105 182.246 46.7717L183.226 48.8517ZM195.992 35.4317V37.6717H188.672V41.5517H195.192V43.7917H188.672V47.7517H196.272V49.9917H186.332V35.4317H195.992Z" fill="white"/>
<path d="M67.528 76.4237V77.9117H62.216V81.5917H66.872V83.0797H62.216V87.9917H60.664V76.4237H67.528ZM70.9246 81.3677V87.9917H69.4366V81.3677H70.9246ZM69.3246 78.9837C69.3246 78.749 69.4153 78.5517 69.5966 78.3917C69.778 78.2317 69.986 78.1517 70.2206 78.1517C70.4553 78.1517 70.658 78.2317 70.8286 78.3917C71.01 78.5517 71.1006 78.749 71.1006 78.9837C71.1006 79.2184 71.01 79.4157 70.8286 79.5757C70.658 79.7357 70.4553 79.8157 70.2206 79.8157C69.986 79.8157 69.778 79.7357 69.5966 79.5757C69.4153 79.4157 69.3246 79.2184 69.3246 78.9837ZM77.6268 81.1117C78.2454 81.1117 78.7574 81.2984 79.1628 81.6717C79.5681 82.0344 79.7761 82.509 79.7868 83.0957V87.9917H78.2828V83.6077C78.2614 83.2344 78.1494 82.941 77.9468 82.7277C77.7441 82.5144 77.4401 82.4024 77.0348 82.3917C76.4481 82.3917 75.9628 82.6264 75.5788 83.0957C75.1948 83.565 75.0028 84.1624 75.0028 84.8877V87.9917H73.5148V81.3677H74.8588L74.9548 82.6477C75.1894 82.1677 75.5414 81.7944 76.0108 81.5277C76.4801 81.2504 77.0188 81.1117 77.6268 81.1117ZM89.2705 75.5917V87.9917H87.7665V86.9517C87.4465 87.325 87.0518 87.6184 86.5825 87.8317C86.1238 88.045 85.6172 88.1517 85.0625 88.1517C84.4438 88.1517 83.8838 88.0024 83.3825 87.7037C82.8812 87.405 82.4865 86.989 82.1985 86.4557C81.9212 85.9117 81.7825 85.2877 81.7825 84.5837C81.7825 83.869 81.9318 83.2504 82.2305 82.7277C82.5292 82.1944 82.9398 81.789 83.4625 81.5117C83.9852 81.2344 84.5772 81.0957 85.2385 81.0957C85.7398 81.0957 86.2198 81.2024 86.6785 81.4157C87.1478 81.6184 87.5158 81.901 87.7825 82.2637V75.5917H89.2705ZM85.5265 86.8717C86.1025 86.8717 86.5878 86.717 86.9825 86.4077C87.3878 86.0984 87.6492 85.6824 87.7665 85.1597V83.9117C87.6385 83.4317 87.3665 83.0424 86.9505 82.7437C86.5345 82.4344 86.0598 82.2797 85.5265 82.2797C85.1212 82.2797 84.7478 82.381 84.4065 82.5837C84.0652 82.7757 83.7932 83.0477 83.5905 83.3997C83.3878 83.741 83.2865 84.1304 83.2865 84.5677C83.2865 84.9944 83.3878 85.3837 83.5905 85.7357C83.7932 86.0877 84.0652 86.365 84.4065 86.5677C84.7478 86.7704 85.1212 86.8717 85.5265 86.8717ZM96.3294 84.6157C96.3294 83.965 96.484 83.373 96.7934 82.8397C97.1134 82.2957 97.5507 81.869 98.1054 81.5597C98.6707 81.2504 99.3054 81.0957 100.009 81.0957C100.713 81.0957 101.337 81.2504 101.881 81.5597C102.436 81.869 102.863 82.2904 103.161 82.8237C103.471 83.357 103.625 83.9544 103.625 84.6157C103.625 85.277 103.471 85.8797 103.161 86.4237C102.863 86.957 102.436 87.3784 101.881 87.6877C101.327 87.997 100.692 88.1517 99.9774 88.1517C99.284 88.1517 98.66 88.0077 98.1054 87.7197C97.5507 87.421 97.1134 87.005 96.7934 86.4717C96.484 85.9384 96.3294 85.3197 96.3294 84.6157ZM97.8334 84.6317C97.8334 85.0477 97.924 85.4317 98.1054 85.7837C98.2974 86.1357 98.5534 86.413 98.8734 86.6157C99.204 86.8184 99.5667 86.9197 99.9614 86.9197C100.58 86.9197 101.092 86.701 101.497 86.2637C101.903 85.8264 102.105 85.2824 102.105 84.6317C102.105 83.981 101.903 83.437 101.497 82.9997C101.092 82.5517 100.58 82.3277 99.9614 82.3277C99.556 82.3277 99.1934 82.4344 98.8734 82.6477C98.5534 82.8504 98.2974 83.1277 98.1054 83.4797C97.924 83.8317 97.8334 84.2157 97.8334 84.6317ZM111.784 81.3677V87.9917H110.44L110.344 86.7277C110.12 87.1757 109.773 87.5437 109.304 87.8317C108.835 88.109 108.312 88.2477 107.736 88.2477C107.128 88.2477 106.627 88.0664 106.232 87.7037C105.848 87.3304 105.645 86.8504 105.624 86.2637V81.3677H107.112V85.7357C107.133 86.109 107.24 86.4077 107.432 86.6317C107.635 86.845 107.933 86.957 108.328 86.9677C108.691 86.9677 109.021 86.861 109.32 86.6477C109.619 86.4237 109.853 86.1197 110.024 85.7357C110.205 85.3517 110.296 84.925 110.296 84.4557V81.3677H111.784ZM116.518 78.4557V81.3837H118.326V82.5677H116.518V87.9917H115.014V82.5677H113.798V81.3837H115.014V78.4557H116.518ZM129.394 81.0957C130.013 81.0957 130.573 81.245 131.074 81.5437C131.576 81.8424 131.97 82.2637 132.258 82.8077C132.546 83.341 132.69 83.9597 132.69 84.6637C132.69 85.357 132.536 85.9704 132.226 86.5037C131.917 87.0264 131.49 87.4317 130.946 87.7197C130.402 88.0077 129.794 88.1517 129.122 88.1517C128.642 88.1517 128.184 88.0504 127.746 87.8477C127.309 87.6344 126.957 87.3517 126.69 86.9997V91.1757H125.202V81.2557H126.498L126.626 82.3757C126.968 81.9917 127.373 81.6824 127.842 81.4477C128.322 81.213 128.84 81.0957 129.394 81.0957ZM128.834 86.9517C129.25 86.9517 129.634 86.8557 129.986 86.6637C130.349 86.461 130.637 86.189 130.85 85.8477C131.064 85.4957 131.17 85.1064 131.17 84.6797C131.17 84.2424 131.069 83.8477 130.866 83.4957C130.674 83.1437 130.408 82.8664 130.066 82.6637C129.725 82.461 129.346 82.3597 128.93 82.3597C128.365 82.3597 127.88 82.5197 127.474 82.8397C127.08 83.149 126.818 83.5704 126.69 84.1037V85.2077C126.776 85.7197 127.016 86.141 127.41 86.4717C127.816 86.7917 128.29 86.9517 128.834 86.9517ZM136.127 82.9357C136.297 82.573 136.537 82.253 136.847 81.9757C137.167 81.6984 137.503 81.485 137.855 81.3357C138.207 81.1864 138.516 81.1064 138.783 81.0957L138.719 82.5837C138.239 82.5624 137.801 82.6584 137.407 82.8717C137.023 83.085 136.719 83.3837 136.495 83.7677C136.281 84.141 136.175 84.541 136.175 84.9677V87.9917H134.687V81.3677H136.015L136.127 82.9357ZM142.19 81.3677V87.9917H140.702V81.3677H142.19ZM140.59 78.9837C140.59 78.749 140.681 78.5517 140.862 78.3917C141.044 78.2317 141.252 78.1517 141.486 78.1517C141.721 78.1517 141.924 78.2317 142.094 78.3917C142.276 78.5517 142.366 78.749 142.366 78.9837C142.366 79.2184 142.276 79.4157 142.094 79.5757C141.924 79.7357 141.721 79.8157 141.486 79.8157C141.252 79.8157 141.044 79.7357 140.862 79.5757C140.681 79.4157 140.59 79.2184 140.59 78.9837ZM150.156 87.3677C149.858 87.613 149.5 87.805 149.084 87.9437C148.679 88.0824 148.263 88.1517 147.836 88.1517C147.122 88.1517 146.487 88.0077 145.932 87.7197C145.388 87.4317 144.962 87.0264 144.652 86.5037C144.354 85.9704 144.204 85.357 144.204 84.6637C144.204 83.981 144.364 83.3784 144.684 82.8557C145.004 82.3224 145.431 81.9117 145.964 81.6237C146.498 81.3357 147.074 81.1917 147.692 81.1917C148.706 81.1917 149.543 81.469 150.204 82.0237L149.452 82.9997C149.239 82.8397 148.994 82.7064 148.716 82.5997C148.439 82.4824 148.14 82.4237 147.82 82.4237C147.426 82.4237 147.063 82.525 146.732 82.7277C146.412 82.9197 146.156 83.1864 145.964 83.5277C145.783 83.869 145.692 84.2477 145.692 84.6637C145.692 85.0797 145.788 85.4584 145.98 85.7997C146.183 86.141 146.455 86.413 146.796 86.6157C147.138 86.8184 147.527 86.9197 147.964 86.9197C148.508 86.9197 148.983 86.7597 149.388 86.4397L150.156 87.3677ZM155.181 86.8717C155.736 86.8717 156.275 86.6797 156.797 86.2957L157.485 87.3997C157.133 87.6344 156.749 87.821 156.333 87.9597C155.928 88.0877 155.533 88.1517 155.149 88.1517C154.413 88.1517 153.768 88.0024 153.213 87.7037C152.669 87.3944 152.248 86.973 151.949 86.4397C151.651 85.9064 151.501 85.3037 151.501 84.6317C151.501 83.981 151.661 83.389 151.981 82.8557C152.312 82.3117 152.76 81.885 153.325 81.5757C153.891 81.2557 154.509 81.0957 155.181 81.0957C156.045 81.0957 156.765 81.3517 157.341 81.8637C157.928 82.365 158.328 83.069 158.541 83.9757L153.293 85.8157C153.485 86.1464 153.741 86.4077 154.061 86.5997C154.392 86.781 154.765 86.8717 155.181 86.8717ZM155.069 82.2797C154.461 82.2797 153.96 82.493 153.565 82.9197C153.171 83.3464 152.973 83.8904 152.973 84.5517C152.973 84.7117 152.979 84.8344 152.989 84.9197L156.845 83.4957C156.685 83.133 156.456 82.8397 156.157 82.6157C155.869 82.3917 155.507 82.2797 155.069 82.2797ZM162.262 88.1357C161.771 88.1357 161.302 88.0504 160.854 87.8797C160.416 87.709 160.059 87.4584 159.782 87.1277L160.422 86.2637C160.688 86.5197 160.966 86.717 161.254 86.8557C161.552 86.9944 161.846 87.0637 162.134 87.0637C162.486 87.0637 162.774 86.9944 162.998 86.8557C163.222 86.717 163.334 86.5037 163.334 86.2157C163.334 85.9917 163.264 85.8104 163.126 85.6717C162.987 85.533 162.827 85.4317 162.646 85.3677C162.475 85.3037 162.182 85.2077 161.766 85.0797C160.635 84.717 160.07 84.0717 160.07 83.1437C160.07 82.589 160.272 82.1144 160.678 81.7197C161.094 81.325 161.67 81.1277 162.406 81.1277C162.875 81.1277 163.291 81.1864 163.654 81.3037C164.016 81.421 164.352 81.6077 164.662 81.8637L164.07 82.7757C163.899 82.5944 163.68 82.4504 163.414 82.3437C163.158 82.237 162.912 82.1784 162.678 82.1677C162.379 82.1677 162.123 82.2424 161.91 82.3917C161.696 82.5304 161.59 82.7224 161.59 82.9677C161.59 83.1704 161.659 83.341 161.798 83.4797C161.936 83.6077 162.08 83.7037 162.23 83.7677C162.379 83.821 162.672 83.917 163.11 84.0557C163.654 84.237 164.075 84.4717 164.374 84.7597C164.683 85.0477 164.838 85.437 164.838 85.9277C164.838 86.5677 164.614 87.0957 164.166 87.5117C163.718 87.9277 163.083 88.1357 162.262 88.1357ZM176.224 81.0957C176.821 81.0957 177.365 81.2397 177.856 81.5277C178.357 81.8157 178.752 82.221 179.04 82.7437C179.328 83.2664 179.472 83.8744 179.472 84.5677C179.472 85.293 179.317 85.9277 179.008 86.4717C178.698 87.0157 178.277 87.4317 177.744 87.7197C177.221 88.0077 176.65 88.1517 176.032 88.1517C175.488 88.1517 174.992 88.045 174.544 87.8317C174.106 87.6184 173.749 87.3304 173.472 86.9677V87.9917H171.984V75.5917H173.472V82.2477C173.749 81.8957 174.128 81.6184 174.608 81.4157C175.098 81.2024 175.637 81.0957 176.224 81.0957ZM175.712 86.8717C176.362 86.8717 176.896 86.653 177.312 86.2157C177.738 85.7784 177.952 85.229 177.952 84.5677C177.952 84.141 177.85 83.757 177.648 83.4157C177.456 83.0637 177.189 82.7864 176.848 82.5837C176.506 82.381 176.128 82.2797 175.712 82.2797C175.168 82.2797 174.688 82.429 174.272 82.7277C173.866 83.0157 173.6 83.3997 173.472 83.8797V85.2237C173.6 85.7037 173.866 86.0984 174.272 86.4077C174.677 86.717 175.157 86.8717 175.712 86.8717ZM187.772 81.3677L183.5 91.1757H182.028L183.548 87.7677L180.476 81.3677H182.156L184.3 86.0877L186.396 81.3677H187.772ZM201.349 75.5917V87.9917H199.845V86.9517C199.525 87.325 199.13 87.6184 198.661 87.8317C198.202 88.045 197.695 88.1517 197.141 88.1517C196.522 88.1517 195.962 88.0024 195.461 87.7037C194.959 87.405 194.565 86.989 194.277 86.4557C193.999 85.9117 193.861 85.2877 193.861 84.5837C193.861 83.869 194.01 83.2504 194.309 82.7277C194.607 82.1944 195.018 81.789 195.541 81.5117C196.063 81.2344 196.655 81.0957 197.317 81.0957C197.818 81.0957 198.298 81.2024 198.757 81.4157C199.226 81.6184 199.594 81.901 199.861 82.2637V75.5917H201.349ZM197.605 86.8717C198.181 86.8717 198.666 86.717 199.061 86.4077C199.466 86.0984 199.727 85.6824 199.845 85.1597V83.9117C199.717 83.4317 199.445 83.0424 199.029 82.7437C198.613 82.4344 198.138 82.2797 197.605 82.2797C197.199 82.2797 196.826 82.381 196.485 82.5837C196.143 82.7757 195.871 83.0477 195.669 83.3997C195.466 83.741 195.365 84.1304 195.365 84.5677C195.365 84.9944 195.466 85.3837 195.669 85.7357C195.871 86.0877 196.143 86.365 196.485 86.5677C196.826 86.7704 197.199 86.8717 197.605 86.8717ZM210.721 81.3677V87.9917H209.233V86.9037C208.998 87.213 208.657 87.501 208.209 87.7677C207.761 88.0237 207.254 88.1517 206.689 88.1517C206.06 88.1517 205.489 88.0184 204.977 87.7517C204.476 87.4744 204.076 87.0744 203.777 86.5517C203.489 86.029 203.345 85.405 203.345 84.6797C203.345 83.9544 203.494 83.325 203.793 82.7917C204.102 82.2477 204.513 81.8317 205.025 81.5437C205.548 81.245 206.124 81.0957 206.753 81.0957C207.318 81.0957 207.809 81.2184 208.225 81.4637C208.641 81.709 208.977 82.029 209.233 82.4237L209.345 81.3677H210.721ZM207.089 86.9197C207.633 86.9197 208.097 86.7704 208.481 86.4717C208.876 86.1624 209.126 85.7464 209.233 85.2237V83.9117C209.105 83.4424 208.838 83.0637 208.433 82.7757C208.028 82.477 207.564 82.3277 207.041 82.3277C206.646 82.3277 206.278 82.4237 205.937 82.6157C205.606 82.8077 205.34 83.0797 205.137 83.4317C204.945 83.773 204.849 84.1624 204.849 84.5997C204.849 85.0264 204.95 85.4157 205.153 85.7677C205.356 86.1197 205.628 86.4024 205.969 86.6157C206.31 86.8184 206.684 86.9197 207.089 86.9197ZM215.456 78.4557V81.3837H217.264V82.5677H215.456V87.9917H213.952V82.5677H212.736V81.3837H213.952V78.4557H215.456ZM222.181 86.8717C222.736 86.8717 223.275 86.6797 223.797 86.2957L224.485 87.3997C224.133 87.6344 223.749 87.821 223.333 87.9597C222.928 88.0877 222.533 88.1517 222.149 88.1517C221.413 88.1517 220.768 88.0024 220.213 87.7037C219.669 87.3944 219.248 86.973 218.949 86.4397C218.651 85.9064 218.501 85.3037 218.501 84.6317C218.501 83.981 218.661 83.389 218.981 82.8557C219.312 82.3117 219.76 81.885 220.325 81.5757C220.891 81.2557 221.509 81.0957 222.181 81.0957C223.045 81.0957 223.765 81.3517 224.341 81.8637C224.928 82.365 225.328 83.069 225.541 83.9757L220.293 85.8157C220.485 86.1464 220.741 86.4077 221.061 86.5997C221.392 86.781 221.765 86.8717 222.181 86.8717ZM222.069 82.2797C221.461 82.2797 220.96 82.493 220.565 82.9197C220.171 83.3464 219.973 83.8904 219.973 84.5517C219.973 84.7117 219.979 84.8344 219.989 84.9197L223.845 83.4957C223.685 83.133 223.456 82.8397 223.157 82.6157C222.869 82.3917 222.507 82.2797 222.069 82.2797ZM226.638 87.1437C226.638 86.909 226.723 86.7064 226.894 86.5357C227.064 86.365 227.262 86.2797 227.486 86.2797C227.688 86.2797 227.875 86.365 228.046 86.5357C228.227 86.7064 228.318 86.909 228.318 87.1437C228.318 87.389 228.232 87.5917 228.062 87.7517C227.891 87.9117 227.699 87.9917 227.486 87.9917C227.262 87.9917 227.064 87.9117 226.894 87.7517C226.723 87.5917 226.638 87.389 226.638 87.1437ZM244.019 87.1277C243.646 87.373 243.171 87.6024 242.595 87.8157C242.03 88.0184 241.411 88.1197 240.739 88.1197C239.555 88.1197 238.51 87.8584 237.603 87.3357C236.707 86.813 236.014 86.109 235.523 85.2237C235.043 84.3384 234.803 83.3624 234.803 82.2957C234.803 81.1544 235.049 80.1304 235.539 79.2237C236.03 78.3064 236.707 77.5917 237.571 77.0797C238.446 76.557 239.433 76.2957 240.531 76.2957C241.182 76.2957 241.79 76.381 242.355 76.5517C242.921 76.7224 243.427 76.9464 243.875 77.2237L243.251 78.6797C242.366 78.0824 241.475 77.7837 240.579 77.7837C239.833 77.7837 239.139 77.981 238.499 78.3757C237.87 78.7704 237.363 79.309 236.979 79.9917C236.606 80.6637 236.419 81.405 236.419 82.2157C236.419 83.0477 236.59 83.7997 236.931 84.4717C237.283 85.1437 237.779 85.6717 238.419 86.0557C239.07 86.429 239.817 86.6157 240.659 86.6157C241.694 86.6157 242.595 86.3224 243.363 85.7357L244.019 87.1277ZM250.377 81.1117C250.995 81.1117 251.507 81.2984 251.913 81.6717C252.318 82.0344 252.526 82.509 252.537 83.0957V87.9917H251.033V83.6077C251.011 83.2344 250.899 82.941 250.697 82.7277C250.494 82.5144 250.19 82.4024 249.785 82.3917C249.401 82.3917 249.054 82.4984 248.745 82.7117C248.435 82.925 248.19 83.2237 248.009 83.6077C247.838 83.9917 247.753 84.4184 247.753 84.8877V87.9917H246.265V75.5917H247.721V82.5677C247.966 82.1304 248.318 81.7784 248.777 81.5117C249.246 81.245 249.779 81.1117 250.377 81.1117ZM254.533 84.6157C254.533 83.965 254.687 83.373 254.997 82.8397C255.317 82.2957 255.754 81.869 256.309 81.5597C256.874 81.2504 257.509 81.0957 258.213 81.0957C258.917 81.0957 259.541 81.2504 260.085 81.5597C260.639 81.869 261.066 82.2904 261.365 82.8237C261.674 83.357 261.829 83.9544 261.829 84.6157C261.829 85.277 261.674 85.8797 261.365 86.4237C261.066 86.957 260.639 87.3784 260.085 87.6877C259.53 87.997 258.895 88.1517 258.181 88.1517C257.487 88.1517 256.863 88.0077 256.309 87.7197C255.754 87.421 255.317 87.005 254.997 86.4717C254.687 85.9384 254.533 85.3197 254.533 84.6157ZM256.037 84.6317C256.037 85.0477 256.127 85.4317 256.309 85.7837C256.501 86.1357 256.757 86.413 257.077 86.6157C257.407 86.8184 257.77 86.9197 258.165 86.9197C258.783 86.9197 259.295 86.701 259.701 86.2637C260.106 85.8264 260.309 85.2824 260.309 84.6317C260.309 83.981 260.106 83.437 259.701 82.9997C259.295 82.5517 258.783 82.3277 258.165 82.3277C257.759 82.3277 257.397 82.4344 257.077 82.6477C256.757 82.8504 256.501 83.1277 256.309 83.4797C256.127 83.8317 256.037 84.2157 256.037 84.6317ZM263.251 84.6157C263.251 83.965 263.406 83.373 263.715 82.8397C264.035 82.2957 264.473 81.869 265.027 81.5597C265.593 81.2504 266.227 81.0957 266.931 81.0957C267.635 81.0957 268.259 81.2504 268.803 81.5597C269.358 81.869 269.785 82.2904 270.083 82.8237C270.393 83.357 270.547 83.9544 270.547 84.6157C270.547 85.277 270.393 85.8797 270.083 86.4237C269.785 86.957 269.358 87.3784 268.803 87.6877C268.249 87.997 267.614 88.1517 266.899 88.1517C266.206 88.1517 265.582 88.0077 265.027 87.7197C264.473 87.421 264.035 87.005 263.715 86.4717C263.406 85.9384 263.251 85.3197 263.251 84.6157ZM264.755 84.6317C264.755 85.0477 264.846 85.4317 265.027 85.7837C265.219 86.1357 265.475 86.413 265.795 86.6157C266.126 86.8184 266.489 86.9197 266.883 86.9197C267.502 86.9197 268.014 86.701 268.419 86.2637C268.825 85.8264 269.027 85.2824 269.027 84.6317C269.027 83.981 268.825 83.437 268.419 82.9997C268.014 82.5517 267.502 82.3277 266.883 82.3277C266.478 82.3277 266.115 82.4344 265.795 82.6477C265.475 82.8504 265.219 83.1277 265.027 83.4797C264.846 83.8317 264.755 84.2157 264.755 84.6317ZM274.418 88.1357C273.927 88.1357 273.458 88.0504 273.01 87.8797C272.573 87.709 272.215 87.4584 271.938 87.1277L272.578 86.2637C272.845 86.5197 273.122 86.717 273.41 86.8557C273.709 86.9944 274.002 87.0637 274.29 87.0637C274.642 87.0637 274.93 86.9944 275.154 86.8557C275.378 86.717 275.49 86.5037 275.49 86.2157C275.49 85.9917 275.421 85.8104 275.282 85.6717C275.143 85.533 274.983 85.4317 274.802 85.3677C274.631 85.3037 274.338 85.2077 273.922 85.0797C272.791 84.717 272.226 84.0717 272.226 83.1437C272.226 82.589 272.429 82.1144 272.834 81.7197C273.25 81.325 273.826 81.1277 274.562 81.1277C275.031 81.1277 275.447 81.1864 275.81 81.3037C276.173 81.421 276.509 81.6077 276.818 81.8637L276.226 82.7757C276.055 82.5944 275.837 82.4504 275.57 82.3437C275.314 82.237 275.069 82.1784 274.834 82.1677C274.535 82.1677 274.279 82.2424 274.066 82.3917C273.853 82.5304 273.746 82.7224 273.746 82.9677C273.746 83.1704 273.815 83.341 273.954 83.4797C274.093 83.6077 274.237 83.7037 274.386 83.7677C274.535 83.821 274.829 83.917 275.266 84.0557C275.81 84.237 276.231 84.4717 276.53 84.7597C276.839 85.0477 276.994 85.437 276.994 85.9277C276.994 86.5677 276.77 87.0957 276.322 87.5117C275.874 87.9277 275.239 88.1357 274.418 88.1357ZM282.181 86.8717C282.736 86.8717 283.275 86.6797 283.797 86.2957L284.485 87.3997C284.133 87.6344 283.749 87.821 283.333 87.9597C282.928 88.0877 282.533 88.1517 282.149 88.1517C281.413 88.1517 280.768 88.0024 280.213 87.7037C279.669 87.3944 279.248 86.973 278.949 86.4397C278.651 85.9064 278.501 85.3037 278.501 84.6317C278.501 83.981 278.661 83.389 278.981 82.8557C279.312 82.3117 279.76 81.885 280.325 81.5757C280.891 81.2557 281.509 81.0957 282.181 81.0957C283.045 81.0957 283.765 81.3517 284.341 81.8637C284.928 82.365 285.328 83.069 285.541 83.9757L280.293 85.8157C280.485 86.1464 280.741 86.4077 281.061 86.5997C281.392 86.781 281.765 86.8717 282.181 86.8717ZM282.069 82.2797C281.461 82.2797 280.96 82.493 280.565 82.9197C280.171 83.3464 279.973 83.8904 279.973 84.5517C279.973 84.7117 279.979 84.8344 279.989 84.9197L283.845 83.4957C283.685 83.133 283.456 82.8397 283.157 82.6157C282.869 82.3917 282.507 82.2797 282.069 82.2797ZM294.596 78.4557V81.3837H296.404V82.5677H294.596V87.9917H293.092V82.5677H291.876V81.3837H293.092V78.4557H294.596ZM302.33 81.1117C302.949 81.1117 303.461 81.2984 303.866 81.6717C304.271 82.0344 304.479 82.509 304.49 83.0957V87.9917H302.986V83.6077C302.965 83.2344 302.853 82.941 302.65 82.7277C302.447 82.5144 302.143 82.4024 301.738 82.3917C301.354 82.3917 301.007 82.4984 300.698 82.7117C300.389 82.925 300.143 83.2237 299.962 83.6077C299.791 83.9917 299.706 84.4184 299.706 84.8877V87.9917H298.218V75.5917H299.674V82.5677C299.919 82.1304 300.271 81.7784 300.73 81.5117C301.199 81.245 301.733 81.1117 302.33 81.1117ZM310.166 86.8717C310.72 86.8717 311.259 86.6797 311.782 86.2957L312.47 87.3997C312.118 87.6344 311.734 87.821 311.318 87.9597C310.912 88.0877 310.518 88.1517 310.134 88.1517C309.398 88.1517 308.752 88.0024 308.198 87.7037C307.654 87.3944 307.232 86.973 306.934 86.4397C306.635 85.9064 306.486 85.3037 306.486 84.6317C306.486 83.981 306.646 83.389 306.966 82.8557C307.296 82.3117 307.744 81.885 308.31 81.5757C308.875 81.2557 309.494 81.0957 310.166 81.0957C311.03 81.0957 311.75 81.3517 312.326 81.8637C312.912 82.365 313.312 83.069 313.526 83.9757L308.278 85.8157C308.47 86.1464 308.726 86.4077 309.046 86.5997C309.376 86.781 309.75 86.8717 310.166 86.8717ZM310.054 82.2797C309.446 82.2797 308.944 82.493 308.55 82.9197C308.155 83.3464 307.958 83.8904 307.958 84.5517C307.958 84.7117 307.963 84.8344 307.974 84.9197L311.83 83.4957C311.67 83.133 311.44 82.8397 311.142 82.6157C310.854 82.3917 310.491 82.2797 310.054 82.2797ZM327.237 81.3677V87.9917H325.749V86.9037C325.514 87.213 325.173 87.501 324.725 87.7677C324.277 88.0237 323.77 88.1517 323.205 88.1517C322.575 88.1517 322.005 88.0184 321.493 87.7517C320.991 87.4744 320.591 87.0744 320.293 86.5517C320.005 86.029 319.861 85.405 319.861 84.6797C319.861 83.9544 320.01 83.325 320.309 82.7917C320.618 82.2477 321.029 81.8317 321.541 81.5437C322.063 81.245 322.639 81.0957 323.269 81.0957C323.834 81.0957 324.325 81.2184 324.741 81.4637C325.157 81.709 325.493 82.029 325.749 82.4237L325.861 81.3677H327.237ZM323.605 86.9197C324.149 86.9197 324.613 86.7704 324.997 86.4717C325.391 86.1624 325.642 85.7464 325.749 85.2237V83.9117C325.621 83.4424 325.354 83.0637 324.949 82.7757C324.543 82.477 324.079 82.3277 323.557 82.3277C323.162 82.3277 322.794 82.4237 322.453 82.6157C322.122 82.8077 321.855 83.0797 321.653 83.4317C321.461 83.773 321.365 84.1624 321.365 84.5997C321.365 85.0264 321.466 85.4157 321.669 85.7677C321.871 86.1197 322.143 86.4024 322.485 86.6157C322.826 86.8184 323.199 86.9197 323.605 86.9197ZM334.019 81.0957C334.638 81.0957 335.198 81.245 335.699 81.5437C336.201 81.8424 336.595 82.2637 336.883 82.8077C337.171 83.341 337.315 83.9597 337.315 84.6637C337.315 85.357 337.161 85.9704 336.851 86.5037C336.542 87.0264 336.115 87.4317 335.571 87.7197C335.027 88.0077 334.419 88.1517 333.747 88.1517C333.267 88.1517 332.809 88.0504 332.371 87.8477C331.934 87.6344 331.582 87.3517 331.315 86.9997V91.1757H329.827V81.2557H331.123L331.251 82.3757C331.593 81.9917 331.998 81.6824 332.467 81.4477C332.947 81.213 333.465 81.0957 334.019 81.0957ZM333.459 86.9517C333.875 86.9517 334.259 86.8557 334.611 86.6637C334.974 86.461 335.262 86.189 335.475 85.8477C335.689 85.4957 335.795 85.1064 335.795 84.6797C335.795 84.2424 335.694 83.8477 335.491 83.4957C335.299 83.1437 335.033 82.8664 334.691 82.6637C334.35 82.461 333.971 82.3597 333.555 82.3597C332.99 82.3597 332.505 82.5197 332.099 82.8397C331.705 83.149 331.443 83.5704 331.315 84.1037V85.2077C331.401 85.7197 331.641 86.141 332.035 86.4717C332.441 86.7917 332.915 86.9517 333.459 86.9517ZM343.504 81.0957C344.122 81.0957 344.682 81.245 345.184 81.5437C345.685 81.8424 346.08 82.2637 346.368 82.8077C346.656 83.341 346.8 83.9597 346.8 84.6637C346.8 85.357 346.645 85.9704 346.336 86.5037C346.026 87.0264 345.6 87.4317 345.056 87.7197C344.512 88.0077 343.904 88.1517 343.232 88.1517C342.752 88.1517 342.293 88.0504 341.856 87.8477C341.418 87.6344 341.066 87.3517 340.8 86.9997V91.1757H339.312V81.2557H340.608L340.736 82.3757C341.077 81.9917 341.482 81.6824 341.952 81.4477C342.432 81.213 342.949 81.0957 343.504 81.0957ZM342.944 86.9517C343.36 86.9517 343.744 86.8557 344.096 86.6637C344.458 86.461 344.746 86.189 344.96 85.8477C345.173 85.4957 345.28 85.1064 345.28 84.6797C345.28 84.2424 345.178 83.8477 344.976 83.4957C344.784 83.1437 344.517 82.8664 344.176 82.6637C343.834 82.461 343.456 82.3597 343.04 82.3597C342.474 82.3597 341.989 82.5197 341.584 82.8397C341.189 83.149 340.928 83.5704 340.8 84.1037V85.2077C340.885 85.7197 341.125 86.141 341.52 86.4717C341.925 86.7917 342.4 86.9517 342.944 86.9517ZM350.236 82.9357C350.407 82.573 350.647 82.253 350.956 81.9757C351.276 81.6984 351.612 81.485 351.964 81.3357C352.316 81.1864 352.625 81.1064 352.892 81.0957L352.828 82.5837C352.348 82.5624 351.911 82.6584 351.516 82.8717C351.132 83.085 350.828 83.3837 350.604 83.7677C350.391 84.141 350.284 84.541 350.284 84.9677V87.9917H348.796V81.3677H350.124L350.236 82.9357ZM353.954 84.6157C353.954 83.965 354.109 83.373 354.418 82.8397C354.738 82.2957 355.176 81.869 355.73 81.5597C356.296 81.2504 356.93 81.0957 357.634 81.0957C358.338 81.0957 358.962 81.2504 359.506 81.5597C360.061 81.869 360.488 82.2904 360.786 82.8237C361.096 83.357 361.25 83.9544 361.25 84.6157C361.25 85.277 361.096 85.8797 360.786 86.4237C360.488 86.957 360.061 87.3784 359.506 87.6877C358.952 87.997 358.317 88.1517 357.602 88.1517C356.909 88.1517 356.285 88.0077 355.73 87.7197C355.176 87.421 354.738 87.005 354.418 86.4717C354.109 85.9384 353.954 85.3197 353.954 84.6157ZM355.458 84.6317C355.458 85.0477 355.549 85.4317 355.73 85.7837C355.922 86.1357 356.178 86.413 356.498 86.6157C356.829 86.8184 357.192 86.9197 357.586 86.9197C358.205 86.9197 358.717 86.701 359.122 86.2637C359.528 85.8264 359.73 85.2824 359.73 84.6317C359.73 83.981 359.528 83.437 359.122 82.9997C358.717 82.5517 358.205 82.3277 357.586 82.3277C357.181 82.3277 356.818 82.4344 356.498 82.6477C356.178 82.8504 355.922 83.1277 355.73 83.4797C355.549 83.8317 355.458 84.2157 355.458 84.6317ZM367.441 81.0957C368.06 81.0957 368.62 81.245 369.121 81.5437C369.622 81.8424 370.017 82.2637 370.305 82.8077C370.593 83.341 370.737 83.9597 370.737 84.6637C370.737 85.357 370.582 85.9704 370.273 86.5037C369.964 87.0264 369.537 87.4317 368.993 87.7197C368.449 88.0077 367.841 88.1517 367.169 88.1517C366.689 88.1517 366.23 88.0504 365.793 87.8477C365.356 87.6344 365.004 87.3517 364.737 86.9997V91.1757H363.249V81.2557H364.545L364.673 82.3757C365.014 81.9917 365.42 81.6824 365.889 81.4477C366.369 81.213 366.886 81.0957 367.441 81.0957ZM366.881 86.9517C367.297 86.9517 367.681 86.8557 368.033 86.6637C368.396 86.461 368.684 86.189 368.897 85.8477C369.11 85.4957 369.217 85.1064 369.217 84.6797C369.217 84.2424 369.116 83.8477 368.913 83.4957C368.721 83.1437 368.454 82.8664 368.113 82.6637C367.772 82.461 367.393 82.3597 366.977 82.3597C366.412 82.3597 365.926 82.5197 365.521 82.8397C365.126 83.149 364.865 83.5704 364.737 84.1037V85.2077C364.822 85.7197 365.062 86.141 365.457 86.4717C365.862 86.7917 366.337 86.9517 366.881 86.9517ZM374.174 82.9357C374.344 82.573 374.584 82.253 374.894 81.9757C375.214 81.6984 375.55 81.485 375.902 81.3357C376.254 81.1864 376.563 81.1064 376.83 81.0957L376.766 82.5837C376.286 82.5624 375.848 82.6584 375.454 82.8717C375.07 83.085 374.766 83.3837 374.542 83.7677C374.328 84.141 374.222 84.541 374.222 84.9677V87.9917H372.734V81.3677H374.062L374.174 82.9357ZM380.237 81.3677V87.9917H378.749V81.3677H380.237ZM378.637 78.9837C378.637 78.749 378.728 78.5517 378.909 78.3917C379.09 78.2317 379.298 78.1517 379.533 78.1517C379.768 78.1517 379.97 78.2317 380.141 78.3917C380.322 78.5517 380.413 78.749 380.413 78.9837C380.413 79.2184 380.322 79.4157 380.141 79.5757C379.97 79.7357 379.768 79.8157 379.533 79.8157C379.298 79.8157 379.09 79.7357 378.909 79.5757C378.728 79.4157 378.637 79.2184 378.637 78.9837ZM389.627 81.3677V87.9917H388.139V86.9037C387.905 87.213 387.563 87.501 387.115 87.7677C386.667 88.0237 386.161 88.1517 385.595 88.1517C384.966 88.1517 384.395 88.0184 383.883 87.7517C383.382 87.4744 382.982 87.0744 382.683 86.5517C382.395 86.029 382.251 85.405 382.251 84.6797C382.251 83.9544 382.401 83.325 382.699 82.7917C383.009 82.2477 383.419 81.8317 383.931 81.5437C384.454 81.245 385.03 81.0957 385.659 81.0957C386.225 81.0957 386.715 81.2184 387.131 81.4637C387.547 81.709 387.883 82.029 388.139 82.4237L388.251 81.3677H389.627ZM385.995 86.9197C386.539 86.9197 387.003 86.7704 387.387 86.4717C387.782 86.1624 388.033 85.7464 388.139 85.2237V83.9117C388.011 83.4424 387.745 83.0637 387.339 82.7757C386.934 82.477 386.47 82.3277 385.947 82.3277C385.553 82.3277 385.185 82.4237 384.843 82.6157C384.513 82.8077 384.246 83.0797 384.043 83.4317C383.851 83.773 383.755 84.1624 383.755 84.5997C383.755 85.0264 383.857 85.4157 384.059 85.7677C384.262 86.1197 384.534 86.4024 384.875 86.6157C385.217 86.8184 385.59 86.9197 385.995 86.9197ZM394.362 78.4557V81.3837H396.17V82.5677H394.362V87.9917H392.858V82.5677H391.642V81.3837H392.858V78.4557H394.362ZM401.088 86.8717C401.642 86.8717 402.181 86.6797 402.704 86.2957L403.392 87.3997C403.04 87.6344 402.656 87.821 402.24 87.9597C401.834 88.0877 401.44 88.1517 401.056 88.1517C400.32 88.1517 399.674 88.0024 399.12 87.7037C398.576 87.3944 398.154 86.973 397.856 86.4397C397.557 85.9064 397.408 85.3037 397.408 84.6317C397.408 83.981 397.568 83.389 397.888 82.8557C398.218 82.3117 398.666 81.885 399.232 81.5757C399.797 81.2557 400.416 81.0957 401.088 81.0957C401.952 81.0957 402.672 81.3517 403.248 81.8637C403.834 82.365 404.234 83.069 404.448 83.9757L399.2 85.8157C399.392 86.1464 399.648 86.4077 399.968 86.5997C400.298 86.781 400.672 86.8717 401.088 86.8717ZM400.976 82.2797C400.368 82.2797 399.866 82.493 399.472 82.9197C399.077 83.3464 398.88 83.8904 398.88 84.5517C398.88 84.7117 398.885 84.8344 398.896 84.9197L402.752 83.4957C402.592 83.133 402.362 82.8397 402.064 82.6157C401.776 82.3917 401.413 82.2797 400.976 82.2797ZM415.551 81.0957C416.169 81.0957 416.729 81.245 417.231 81.5437C417.732 81.8424 418.127 82.2637 418.415 82.8077C418.703 83.341 418.847 83.9597 418.847 84.6637C418.847 85.357 418.692 85.9704 418.383 86.5037C418.073 87.0264 417.647 87.4317 417.103 87.7197C416.559 88.0077 415.951 88.1517 415.279 88.1517C414.799 88.1517 414.34 88.0504 413.903 87.8477C413.465 87.6344 413.113 87.3517 412.847 86.9997V91.1757H411.359V81.2557H412.655L412.783 82.3757C413.124 81.9917 413.529 81.6824 413.999 81.4477C414.479 81.213 414.996 81.0957 415.551 81.0957ZM414.991 86.9517C415.407 86.9517 415.791 86.8557 416.143 86.6637C416.505 86.461 416.793 86.189 417.007 85.8477C417.22 85.4957 417.327 85.1064 417.327 84.6797C417.327 84.2424 417.225 83.8477 417.023 83.4957C416.831 83.1437 416.564 82.8664 416.223 82.6637C415.881 82.461 415.503 82.3597 415.087 82.3597C414.521 82.3597 414.036 82.5197 413.631 82.8397C413.236 83.149 412.975 83.5704 412.847 84.1037V85.2077C412.932 85.7197 413.172 86.141 413.567 86.4717C413.972 86.7917 414.447 86.9517 414.991 86.9517ZM422.283 82.9357C422.454 82.573 422.694 82.253 423.003 81.9757C423.323 81.6984 423.659 81.485 424.011 81.3357C424.363 81.1864 424.672 81.1064 424.939 81.0957L424.875 82.5837C424.395 82.5624 423.958 82.6584 423.563 82.8717C423.179 83.085 422.875 83.3837 422.651 83.7677C422.438 84.141 422.331 84.541 422.331 84.9677V87.9917H420.843V81.3677H422.171L422.283 82.9357ZM428.347 81.3677V87.9917H426.859V81.3677H428.347ZM426.747 78.9837C426.747 78.749 426.837 78.5517 427.019 78.3917C427.2 78.2317 427.408 78.1517 427.643 78.1517C427.877 78.1517 428.08 78.2317 428.251 78.3917C428.432 78.5517 428.523 78.749 428.523 78.9837C428.523 79.2184 428.432 79.4157 428.251 79.5757C428.08 79.7357 427.877 79.8157 427.643 79.8157C427.408 79.8157 427.2 79.7357 427.019 79.5757C426.837 79.4157 426.747 79.2184 426.747 78.9837ZM436.313 87.3677C436.014 87.613 435.657 87.805 435.241 87.9437C434.835 88.0824 434.419 88.1517 433.993 88.1517C433.278 88.1517 432.643 88.0077 432.089 87.7197C431.545 87.4317 431.118 87.0264 430.809 86.5037C430.51 85.9704 430.361 85.357 430.361 84.6637C430.361 83.981 430.521 83.3784 430.841 82.8557C431.161 82.3224 431.587 81.9117 432.121 81.6237C432.654 81.3357 433.23 81.1917 433.849 81.1917C434.862 81.1917 435.699 81.469 436.361 82.0237L435.609 82.9997C435.395 82.8397 435.15 82.7064 434.873 82.5997C434.595 82.4824 434.297 82.4237 433.977 82.4237C433.582 82.4237 433.219 82.525 432.889 82.7277C432.569 82.9197 432.313 83.1864 432.121 83.5277C431.939 83.869 431.849 84.2477 431.849 84.6637C431.849 85.0797 431.945 85.4584 432.137 85.7997C432.339 86.141 432.611 86.413 432.953 86.6157C433.294 86.8184 433.683 86.9197 434.121 86.9197C434.665 86.9197 435.139 86.7597 435.545 86.4397L436.313 87.3677ZM441.338 86.8717C441.892 86.8717 442.431 86.6797 442.954 86.2957L443.642 87.3997C443.29 87.6344 442.906 87.821 442.49 87.9597C442.084 88.0877 441.69 88.1517 441.306 88.1517C440.57 88.1517 439.924 88.0024 439.37 87.7037C438.826 87.3944 438.404 86.973 438.106 86.4397C437.807 85.9064 437.658 85.3037 437.658 84.6317C437.658 83.981 437.818 83.389 438.138 82.8557C438.468 82.3117 438.916 81.885 439.482 81.5757C440.047 81.2557 440.666 81.0957 441.338 81.0957C442.202 81.0957 442.922 81.3517 443.498 81.8637C444.084 82.365 444.484 83.069 444.698 83.9757L439.45 85.8157C439.642 86.1464 439.898 86.4077 440.218 86.5997C440.548 86.781 440.922 86.8717 441.338 86.8717ZM441.226 82.2797C440.618 82.2797 440.116 82.493 439.722 82.9197C439.327 83.3464 439.13 83.8904 439.13 84.5517C439.13 84.7117 439.135 84.8344 439.146 84.9197L443.002 83.4957C442.842 83.133 442.612 82.8397 442.314 82.6157C442.026 82.3917 441.663 82.2797 441.226 82.2797ZM458.409 81.3677V87.9917H456.921V86.9037C456.686 87.213 456.345 87.501 455.897 87.7677C455.449 88.0237 454.942 88.1517 454.377 88.1517C453.747 88.1517 453.177 88.0184 452.664 87.7517C452.163 87.4744 451.763 87.0744 451.465 86.5517C451.177 86.029 451.033 85.405 451.033 84.6797C451.033 83.9544 451.182 83.325 451.481 82.7917C451.79 82.2477 452.201 81.8317 452.713 81.5437C453.235 81.245 453.811 81.0957 454.441 81.0957C455.006 81.0957 455.497 81.2184 455.913 81.4637C456.329 81.709 456.665 82.029 456.921 82.4237L457.033 81.3677H458.409ZM454.777 86.9197C455.321 86.9197 455.785 86.7704 456.169 86.4717C456.563 86.1624 456.814 85.7464 456.921 85.2237V83.9117C456.793 83.4424 456.526 83.0637 456.121 82.7757C455.715 82.477 455.251 82.3277 454.729 82.3277C454.334 82.3277 453.966 82.4237 453.625 82.6157C453.294 82.8077 453.027 83.0797 452.825 83.4317C452.633 83.773 452.537 84.1624 452.537 84.5997C452.537 85.0264 452.638 85.4157 452.841 85.7677C453.043 86.1197 453.315 86.4024 453.657 86.6157C453.998 86.8184 454.371 86.9197 454.777 86.9197ZM465.111 81.1117C465.73 81.1117 466.242 81.2984 466.647 81.6717C467.052 82.0344 467.26 82.509 467.271 83.0957V87.9917H465.767V83.6077C465.746 83.2344 465.634 82.941 465.431 82.7277C465.228 82.5144 464.924 82.4024 464.519 82.3917C463.932 82.3917 463.447 82.6264 463.063 83.0957C462.679 83.565 462.487 84.1624 462.487 84.8877V87.9917H460.999V81.3677H462.343L462.439 82.6477C462.674 82.1677 463.026 81.7944 463.495 81.5277C463.964 81.2504 464.503 81.1117 465.111 81.1117ZM476.755 75.5917V87.9917H475.251V86.9517C474.931 87.325 474.536 87.6184 474.067 87.8317C473.608 88.045 473.102 88.1517 472.547 88.1517C471.928 88.1517 471.368 88.0024 470.867 87.7037C470.366 87.405 469.971 86.989 469.683 86.4557C469.406 85.9117 469.267 85.2877 469.267 84.5837C469.267 83.869 469.416 83.2504 469.715 82.7277C470.014 82.1944 470.424 81.789 470.947 81.5117C471.47 81.2344 472.062 81.0957 472.723 81.0957C473.224 81.0957 473.704 81.2024 474.163 81.4157C474.632 81.6184 475 81.901 475.267 82.2637V75.5917H476.755ZM473.011 86.8717C473.587 86.8717 474.072 86.717 474.467 86.4077C474.872 86.0984 475.134 85.6824 475.251 85.1597V83.9117C475.123 83.4317 474.851 83.0424 474.435 82.7437C474.019 82.4344 473.544 82.2797 473.011 82.2797C472.606 82.2797 472.232 82.381 471.891 82.5837C471.55 82.7757 471.278 83.0477 471.075 83.3997C470.872 83.741 470.771 84.1304 470.771 84.5677C470.771 84.9944 470.872 85.3837 471.075 85.7357C471.278 86.0877 471.55 86.365 471.891 86.5677C472.232 86.7704 472.606 86.8717 473.011 86.8717ZM486.534 78.4557V81.3837H488.342V82.5677H486.534V87.9917H485.03V82.5677H483.814V81.3837H485.03V78.4557H486.534ZM491.643 81.3677V87.9917H490.155V81.3677H491.643ZM490.043 78.9837C490.043 78.749 490.134 78.5517 490.315 78.3917C490.497 78.2317 490.705 78.1517 490.939 78.1517C491.174 78.1517 491.377 78.2317 491.547 78.3917C491.729 78.5517 491.819 78.749 491.819 78.9837C491.819 79.2184 491.729 79.4157 491.547 79.5757C491.377 79.7357 491.174 79.8157 490.939 79.8157C490.705 79.8157 490.497 79.7357 490.315 79.5757C490.134 79.4157 490.043 79.2184 490.043 78.9837ZM502.73 81.0957C503.37 81.0957 503.876 81.277 504.25 81.6397C504.634 82.0024 504.836 82.4824 504.858 83.0797V87.9917H503.37V83.6237C503.338 82.845 502.986 82.4344 502.314 82.3917C501.93 82.3917 501.583 82.509 501.274 82.7437C500.975 82.9677 500.74 83.2664 500.57 83.6397C500.399 84.013 500.308 84.413 500.298 84.8397V87.9917H498.794V83.6237C498.762 82.845 498.399 82.4344 497.706 82.3917C497.332 82.3917 496.991 82.509 496.682 82.7437C496.383 82.9677 496.148 83.2717 495.978 83.6557C495.807 84.029 495.722 84.429 495.722 84.8557V87.9917H494.234V81.3677H495.578L495.69 82.6157C495.946 82.1357 496.292 81.7624 496.73 81.4957C497.178 81.229 497.684 81.0957 498.25 81.0957C498.783 81.0957 499.231 81.2237 499.594 81.4797C499.956 81.725 500.191 82.0664 500.298 82.5037C500.575 82.0664 500.927 81.725 501.354 81.4797C501.78 81.2237 502.239 81.0957 502.73 81.0957ZM510.541 86.8717C511.095 86.8717 511.634 86.6797 512.157 86.2957L512.845 87.3997C512.493 87.6344 512.109 87.821 511.693 87.9597C511.287 88.0877 510.893 88.1517 510.509 88.1517C509.773 88.1517 509.127 88.0024 508.573 87.7037C508.029 87.3944 507.607 86.973 507.309 86.4397C507.01 85.9064 506.861 85.3037 506.861 84.6317C506.861 83.981 507.021 83.389 507.341 82.8557C507.671 82.3117 508.119 81.885 508.685 81.5757C509.25 81.2557 509.869 81.0957 510.541 81.0957C511.405 81.0957 512.125 81.3517 512.701 81.8637C513.287 82.365 513.687 83.069 513.901 83.9757L508.653 85.8157C508.845 86.1464 509.101 86.4077 509.421 86.5997C509.751 86.781 510.125 86.8717 510.541 86.8717ZM510.429 82.2797C509.821 82.2797 509.319 82.493 508.925 82.9197C508.53 83.3464 508.333 83.8904 508.333 84.5517C508.333 84.7117 508.338 84.8344 508.349 84.9197L512.205 83.4957C512.045 83.133 511.815 82.8397 511.517 82.6157C511.229 82.3917 510.866 82.2797 510.429 82.2797Z" fill="white"/>
<defs>
<filter id="filter0_b_502_1972" x="-10" y="-10" width="590" height="132" filterUnits="userSpaceOnUse" color-interpolation-filters="sRGB">
<feFlood flood-opacity="0" result="BackgroundImageFix"/>
<feGaussianBlur in="BackgroundImageFix" stdDeviation="5"/>
<feComposite in2="SourceAlpha" operator="in" result="effect1_backgroundBlur_502_1972"/>
<feBlend mode="normal" in="SourceGraphic" in2="effect1_backgroundBlur_502_1972" result="shape"/>
</filter>
<clipPath id="clip0_502_1972">
<rect width="24" height="24" fill="white" transform="translate(18 29.9917)"/>
</clipPath>
</defs>
</svg>
