<svg width="138" height="57" viewBox="0 0 138 57" fill="none" xmlns="http://www.w3.org/2000/svg">
<rect x="-0.5" y="0.5" width="137" height="55.0232" rx="10.5" transform="matrix(1 0 0 -1 1 56.1477)" fill="#090909" stroke="url(#paint0_linear_478_41)"/>
<path d="M32.1733 28.9551C32.1757 28.7472 32.1872 28.5404 32.2074 28.3352C32.5334 25.0279 33.4691 20.5016 30.1477 20.3877C28.0669 20.1484 26.0496 21.7521 24.9893 21.7521C23.9084 21.7521 22.2758 20.4115 20.5178 20.4511C18.2263 20.5322 16.09 21.9598 14.9752 24.155C12.5787 28.7015 14.3663 35.3833 16.6619 39.0584C17.8105 40.858 19.1528 42.8681 20.9093 42.7968C22.628 42.7187 23.27 41.5959 25.3447 41.5959C27.4001 41.5959 28.0024 42.7968 29.7945 42.7515C31.6388 42.7187 32.8008 40.944 33.9091 39.1273C35.3496 36.889 33.7372 34.0836 32.7109 31.6276C32.3649 30.7996 32.1742 29.8897 32.1733 28.9551Z" fill="white"/>
<path d="M28.7883 17.9708C28.8602 17.8763 28.9295 17.7798 28.9961 17.6815C30.4294 15.5673 27.7918 13.4913 26.1947 15.4847C26.1537 15.5358 26.1135 15.5876 26.0742 15.6401C24.4902 17.754 27.2257 20.1005 28.7883 17.9708Z" fill="white"/>
<path d="M94.4605 26.5977C93.9175 26.5977 93.4774 27.0379 93.4774 27.5809V28.5725C93.4774 29.0094 93.1232 29.3636 92.6863 29.3636C92.2494 29.3636 91.8952 29.7177 91.8952 30.1546V30.3863C91.8952 30.8232 92.2494 31.1774 92.6863 31.1774C93.1232 31.1774 93.4774 31.5316 93.4774 31.9685V37.3404C93.4774 39.4449 94.3462 40.2867 96.532 40.2867C96.6375 40.2867 96.7417 40.2829 96.8439 40.2762C97.2866 40.247 97.602 39.855 97.602 39.4114V39.1347C97.602 38.7333 97.2535 38.4327 96.852 38.4327C95.8735 38.4327 95.4436 37.9317 95.4436 36.7893V32.2566C95.4436 31.6606 95.9268 31.1774 96.5228 31.1774H96.6951C97.1959 31.1774 97.602 30.7714 97.602 30.2705C97.602 29.7696 97.1959 29.3636 96.6951 29.3636H96.5228C95.9268 29.3636 95.4436 28.8804 95.4436 28.2844V27.5809C95.4436 27.0379 95.0035 26.5977 94.4605 26.5977Z" fill="white"/>
<path d="M103.17 40.437C106.078 40.437 107.862 38.3025 107.862 34.765C107.862 31.2475 106.069 29.103 103.17 29.103C100.262 29.103 98.4693 31.2475 98.4693 34.765C98.4693 38.3025 100.253 40.437 103.17 40.437ZM103.17 38.5229C101.46 38.5229 100.5 37.15 100.5 34.765C100.5 32.4 101.46 31.0171 103.17 31.0171C104.871 31.0171 105.841 32.4 105.841 34.765C105.841 37.14 104.871 38.5229 103.17 38.5229Z" fill="white"/>
<path d="M109.388 39.2434C109.388 39.7864 109.828 40.2265 110.371 40.2265C110.914 40.2265 111.354 39.7864 111.354 39.2434V33.7829C111.354 32.2497 112.406 31.2175 113.896 31.2175C114.434 31.2175 114.994 30.778 114.994 30.2399V29.9569C114.994 29.5226 114.701 29.1494 114.267 29.1355C114.215 29.1339 114.164 29.1331 114.116 29.1331C112.842 29.1331 111.753 29.8851 111.444 30.9257C111.434 30.9616 111.401 30.987 111.363 30.987C111.318 30.987 111.281 30.95 111.281 30.9043V30.1502C111.281 29.6881 110.906 29.3135 110.444 29.3135H110.334C109.811 29.3135 109.388 29.7372 109.388 30.26V39.2434Z" fill="white"/>
<path d="M119.876 30.9369C120.508 30.9369 121.044 31.1467 121.453 31.5245C122.446 32.4421 121.211 33.7629 119.859 33.7629C118.472 33.7629 117.253 32.3795 118.315 31.4868C118.736 31.1334 119.268 30.9369 119.876 30.9369ZM122.969 37.2803C122.574 37.2803 122.234 37.5332 121.974 37.8309C121.536 38.3326 120.85 38.6031 119.949 38.6031C118.376 38.6031 117.361 37.3905 117.297 35.4765C117.297 35.4101 117.351 35.3562 117.417 35.3562H123.578C123.993 35.3562 124.33 35.0197 124.33 34.6047C124.33 31.1774 122.656 29.103 119.885 29.103C117.077 29.103 115.294 31.3177 115.294 34.8051C115.294 38.2925 117.041 40.437 119.894 40.437C121.681 40.437 123.045 39.697 123.766 38.4348C124.082 37.8831 123.605 37.2803 122.969 37.2803Z" fill="white"/>
<path d="M81.7309 36.1965C81.1076 36.1965 80.5983 36.7283 80.773 37.3266C81.3633 39.3486 83.224 40.5901 85.8057 40.5901C89.0476 40.5901 91.0761 38.7932 91.0761 35.9265C91.0761 33.6725 89.9196 32.4261 87.1138 31.7095L85.6067 31.3044C83.8246 30.8474 83.1042 30.2346 83.1042 29.1647C83.1042 27.8145 84.2227 26.9316 85.9005 26.9316C87.1181 26.9316 88.0476 27.4356 88.5067 28.2903C88.7604 28.7627 89.1896 29.1751 89.7258 29.1751C90.342 29.1751 90.8466 28.6514 90.6684 28.0615C90.0894 26.1442 88.2768 24.875 85.929 24.875C82.9431 24.875 80.9525 26.6512 80.9525 29.3205C80.9525 31.5225 82.0805 32.8312 84.5545 33.4648L86.3176 33.9322C88.1281 34.3996 88.9243 35.0851 88.9243 36.2277C88.9243 37.5572 87.6731 38.5231 85.9669 38.5231C84.5626 38.5231 83.4879 37.9907 82.9827 37.0997C82.7132 36.6243 82.2774 36.1965 81.7309 36.1965Z" fill="white"/>
<path d="M60.2142 29.1331C58.8791 29.1331 57.722 29.8545 57.1114 31.0666C57.0959 31.0974 57.0645 31.1173 57.0301 31.1173C56.9804 31.1173 56.9401 31.077 56.9401 31.0273V30.2154C56.9401 29.7173 56.5363 29.3135 56.0382 29.3135H55.9935C55.4707 29.3135 55.047 29.7372 55.047 30.26V42.8711C55.047 43.4141 55.4871 43.8542 56.0301 43.8542C56.5731 43.8542 57.0132 43.4141 57.0132 42.8711V38.6675C57.0132 38.6154 57.0555 38.573 57.1077 38.573C57.1449 38.573 57.1785 38.595 57.1944 38.6285C57.7264 39.7473 58.8378 40.4069 60.2324 40.4069C62.7475 40.4069 64.3479 38.2323 64.3479 34.765C64.3479 31.2977 62.7475 29.1331 60.2142 29.1331ZM59.6563 38.4728C58.0101 38.4728 56.9767 37.0498 56.9767 34.775C56.9767 32.4902 58.0101 31.0672 59.6654 31.0672C61.3299 31.0672 62.3268 32.4601 62.3268 34.765C62.3268 37.0799 61.3299 38.4728 59.6563 38.4728Z" fill="white"/>
<path d="M71.2282 29.1331C69.8932 29.1331 68.7361 29.8545 68.1255 31.0666C68.11 31.0974 68.0786 31.1173 68.0442 31.1173C67.9945 31.1173 67.9542 31.077 67.9542 31.0273V30.2154C67.9542 29.7173 67.5504 29.3135 67.0523 29.3135H67.0076C66.4848 29.3135 66.061 29.7372 66.061 30.26V42.8711C66.061 43.4141 66.5012 43.8542 67.0442 43.8542C67.5872 43.8542 68.0273 43.4141 68.0273 42.8711V38.6675C68.0273 38.6154 68.0696 38.573 68.1218 38.573C68.1589 38.573 68.1926 38.595 68.2085 38.6285C68.7405 39.7473 69.8519 40.4069 71.2465 40.4069C73.7615 40.4069 75.362 38.2323 75.362 34.765C75.362 31.2977 73.7615 29.1331 71.2282 29.1331ZM70.6704 38.4728C69.0242 38.4728 67.9907 37.0498 67.9907 34.775C67.9907 32.4902 69.0242 31.0672 70.6795 31.0672C72.344 31.0672 73.3409 32.4601 73.3409 34.765C73.3409 37.0799 72.344 38.4728 70.6704 38.4728Z" fill="white"/>
<path d="M51.2844 39.4803C51.4241 39.9244 51.8358 40.2265 52.3014 40.2265C53.0275 40.2265 53.5411 39.5165 53.3139 38.8268L49.194 26.3234C48.9807 25.676 48.376 25.2386 47.6943 25.2386C47.0127 25.2386 46.408 25.676 46.1946 26.3234L42.0596 38.8728C41.8398 39.5398 42.3366 40.2265 43.0389 40.2265C43.4883 40.2265 43.886 39.9354 44.0217 39.507L44.4241 38.2375C44.7994 37.0532 45.8986 36.2484 47.141 36.2484H48.1828C49.4237 36.2484 50.5212 37.0537 50.8935 38.2375L51.2844 39.4803ZM47.5612 28.0367C47.5755 27.991 47.6179 27.9599 47.6658 27.9599C47.7138 27.9599 47.7562 27.991 47.7705 28.0368L49.1113 32.3249C49.417 33.3023 48.6867 34.2957 47.6626 34.2957C46.6376 34.2957 45.9073 33.3008 46.2145 32.3229L47.5612 28.0367Z" fill="white"/>
<path d="M43.5109 14.667C42.4328 14.667 41.5588 15.541 41.5588 16.6191V18.6392C41.5588 19.7174 42.4328 20.5913 43.5109 20.5913C45.1221 20.5913 46.055 19.5034 46.055 17.6107C46.055 15.7467 45.1146 14.667 43.5109 14.667ZM42.3981 16.5236C42.3981 15.9608 42.8544 15.5045 43.4173 15.5045C44.5376 15.5045 45.2007 16.2846 45.2007 17.623C45.2007 18.9819 44.5488 19.7538 43.4173 19.7538C42.8544 19.7538 42.3981 19.2975 42.3981 18.7347V16.5236Z" fill="white"/>
<path d="M48.9123 20.6776C50.1038 20.6776 50.8345 19.8031 50.8345 18.3538C50.8345 16.9127 50.1001 16.0341 48.9123 16.0341C47.7209 16.0341 46.9865 16.9127 46.9865 18.3538C46.9865 19.8031 47.7171 20.6776 48.9123 20.6776ZM48.9123 19.8934C48.2117 19.8934 47.8183 19.3309 47.8183 18.3538C47.8183 17.3849 48.2117 16.8183 48.9123 16.8183C49.6092 16.8183 50.0064 17.3849 50.0064 18.3538C50.0064 19.3268 49.6092 19.8934 48.9123 19.8934Z" fill="white"/>
<path d="M56.9364 16.5993C56.9974 16.3561 56.8134 16.1203 56.5627 16.1203C56.3808 16.1203 56.2238 16.2475 56.1859 16.4253L55.5307 19.5004C55.5268 19.5189 55.5105 19.5321 55.4916 19.5321C55.4732 19.5321 55.4572 19.5195 55.4528 19.5017L54.7132 16.4951C54.659 16.275 54.4617 16.1203 54.2351 16.1203C54.0084 16.1203 53.8111 16.275 53.757 16.4951L53.0169 19.5034C53.0128 19.5203 52.9977 19.5321 52.9803 19.5321C52.9626 19.5321 52.9473 19.5197 52.9435 19.5023L52.2854 16.4292C52.2468 16.249 52.0877 16.1203 51.9035 16.1203C51.6491 16.1203 51.4626 16.3595 51.5246 16.6062L52.4254 20.1891C52.4848 20.4256 52.6974 20.5913 52.9412 20.5913C53.1844 20.5913 53.3966 20.4264 53.4567 20.1908L54.186 17.3295C54.1906 17.3114 54.207 17.2987 54.2257 17.2987C54.2444 17.2987 54.2608 17.3113 54.2654 17.3295L54.9972 20.1877C55.058 20.4252 55.2721 20.5913 55.5172 20.5913C55.7634 20.5913 55.9781 20.4238 56.0379 20.185L56.9364 16.5993Z" fill="white"/>
<path d="M57.9841 20.1886C57.9841 20.411 58.1645 20.5913 58.3869 20.5913C58.6094 20.5913 58.7897 20.411 58.7897 20.1886V17.9761C58.7897 17.2781 59.1681 16.8429 59.7639 16.8429C60.3596 16.8429 60.6444 17.2001 60.6444 17.9186V20.1886C60.6444 20.411 60.8247 20.5913 61.0471 20.5913C61.2696 20.5913 61.4499 20.411 61.4499 20.1886V17.6969C61.4499 16.6335 60.9479 16.0341 60.0374 16.0341C59.4322 16.0341 59.0306 16.3248 58.8288 16.8081C58.8232 16.8216 58.8101 16.8306 58.7955 16.8306C58.7757 16.8306 58.7597 16.8146 58.7597 16.7949V16.4755C58.7597 16.2793 58.6007 16.1203 58.4046 16.1203H58.3719C58.1577 16.1203 57.9841 16.294 57.9841 16.5081V20.1886Z" fill="white"/>
<path d="M62.7186 20.1886C62.7186 20.411 62.8989 20.5913 63.1214 20.5913C63.3438 20.5913 63.5242 20.411 63.5242 20.1886V14.7783C63.5242 14.5558 63.3438 14.3755 63.1214 14.3755C62.8989 14.3755 62.7186 14.5558 62.7186 14.7783V20.1886Z" fill="white"/>
<path d="M66.5538 20.6776C67.7453 20.6776 68.476 19.8031 68.476 18.3538C68.476 16.9127 67.7416 16.0341 66.5538 16.0341C65.3624 16.0341 64.628 16.9127 64.628 18.3538C64.628 19.8031 65.3586 20.6776 66.5538 20.6776ZM66.5538 19.8934C65.8532 19.8934 65.4598 19.3309 65.4598 18.3538C65.4598 17.3849 65.8532 16.8183 66.5538 16.8183C67.2508 16.8183 67.6479 17.3849 67.6479 18.3538C67.6479 19.3268 67.2508 19.8934 66.5538 19.8934Z" fill="white"/>
<path d="M70.8762 19.9221C70.4378 19.9221 70.1193 19.6881 70.1193 19.2858C70.1193 18.8916 70.3741 18.6822 70.9361 18.6412L71.5601 18.5975C71.7616 18.5834 71.9328 18.743 71.9328 18.945C71.9328 19.4992 71.4832 19.9221 70.8762 19.9221ZM70.6701 20.6652C71.1975 20.6652 71.6378 20.4186 71.8838 19.984C71.891 19.9712 71.9044 19.9632 71.919 19.9632C71.9411 19.9632 71.959 19.9811 71.959 20.0031V20.2773C71.959 20.4507 72.0996 20.5913 72.2731 20.5913H72.3468C72.561 20.5913 72.7346 20.4177 72.7346 20.2035V17.5368C72.7346 16.5925 72.1576 16.0341 71.1347 16.0341C70.4034 16.0341 69.8382 16.3418 69.5925 16.8497C69.4846 17.073 69.6837 17.2945 69.9317 17.2945C70.1181 17.2945 70.2722 17.1569 70.4057 17.0268C70.5577 16.8786 70.7965 16.7978 71.0972 16.7978C71.648 16.7978 71.9328 17.0646 71.9328 17.5368C71.9328 17.7537 71.7641 17.9333 71.5476 17.947L70.8275 17.9925C69.857 18.0582 69.31 18.5221 69.31 19.3268C69.31 20.1438 69.8833 20.6652 70.6701 20.6652Z" fill="white"/>
<path d="M75.4683 20.6652C76.0219 20.6652 76.4919 20.3824 76.7386 19.9069C76.7455 19.8937 76.7591 19.8852 76.774 19.8852C76.7958 19.8852 76.8134 19.9028 76.8134 19.9245V20.2383C76.8134 20.4333 76.9715 20.5913 77.1665 20.5913H77.1993C77.4124 20.5913 77.5852 20.4186 77.5852 20.2054V14.7783C77.5852 14.5558 77.4049 14.3755 77.1824 14.3755C76.96 14.3755 76.7797 14.5558 76.7797 14.7783V16.7942C76.7797 16.8143 76.7634 16.8306 76.7433 16.8306C76.7289 16.8306 76.7159 16.8221 76.7099 16.8092C76.4848 16.3295 76.0184 16.0464 75.4683 16.0464C74.4379 16.0464 73.7747 16.9415 73.7747 18.3538C73.7747 19.7702 74.4304 20.6652 75.4683 20.6652ZM75.6968 16.8388C76.3713 16.8388 76.7946 17.4259 76.7946 18.3579C76.7946 19.294 76.375 19.8729 75.6968 19.8729C75.0149 19.8729 74.6065 19.3022 74.6065 18.3538C74.6065 17.4136 75.0187 16.8388 75.6968 16.8388Z" fill="white"/>
<path d="M82.809 20.6776C84.0005 20.6776 84.7311 19.8031 84.7311 18.3538C84.7311 16.9127 83.9968 16.0341 82.809 16.0341C81.6175 16.0341 80.8832 16.9127 80.8832 18.3538C80.8832 19.8031 81.6138 20.6776 82.809 20.6776ZM82.809 19.8934C82.1084 19.8934 81.715 19.3309 81.715 18.3538C81.715 17.3849 82.1084 16.8183 82.809 16.8183C83.5059 16.8183 83.9031 17.3849 83.9031 18.3538C83.9031 19.3268 83.5059 19.8934 82.809 19.8934Z" fill="white"/>
<path d="M85.7975 20.1886C85.7975 20.411 85.9778 20.5913 86.2003 20.5913C86.4227 20.5913 86.6031 20.411 86.6031 20.1886V17.9761C86.6031 17.2781 86.9815 16.8429 87.5772 16.8429C88.173 16.8429 88.4577 17.2001 88.4577 17.9186V20.1886C88.4577 20.411 88.6381 20.5913 88.8605 20.5913C89.083 20.5913 89.2633 20.411 89.2633 20.1886V17.6969C89.2633 16.6335 88.7612 16.0341 87.8507 16.0341C87.2456 16.0341 86.8439 16.3248 86.6422 16.8081C86.6366 16.8216 86.6234 16.8306 86.6088 16.8306C86.5891 16.8306 86.5731 16.8146 86.5731 16.7949V16.4755C86.5731 16.2793 86.4141 16.1203 86.218 16.1203H86.1853C85.9711 16.1203 85.7975 16.294 85.7975 16.5081V20.1886Z" fill="white"/>
<path d="M93.3762 15.0077C93.1537 15.0077 92.9734 15.1881 92.9734 15.4105V15.8168C92.9734 15.9958 92.8283 16.1409 92.6493 16.1409C92.4703 16.1409 92.3252 16.286 92.3252 16.465V16.5599C92.3252 16.7389 92.4703 16.884 92.6493 16.884C92.8283 16.884 92.9734 17.0291 92.9734 17.2081V19.4089C92.9734 20.2711 93.3293 20.616 94.2248 20.616C94.2681 20.616 94.3108 20.6144 94.3526 20.6117C94.534 20.5997 94.6632 20.4391 94.6632 20.2574V20.144C94.6632 19.9796 94.5204 19.8564 94.356 19.8564C93.9551 19.8564 93.779 19.6512 93.779 19.1831V17.3261C93.779 17.0819 93.9769 16.884 94.2211 16.884H94.2917C94.4969 16.884 94.6632 16.7176 94.6632 16.5124C94.6632 16.3072 94.4969 16.1409 94.2917 16.1409H94.2211C93.9769 16.1409 93.779 15.9429 93.779 15.6988V15.4105C93.779 15.1881 93.5986 15.0077 93.3762 15.0077Z" fill="white"/>
<path d="M95.7445 20.1886C95.7445 20.411 95.9249 20.5913 96.1473 20.5913C96.3698 20.5913 96.5501 20.411 96.5501 20.1886V17.9802C96.5501 17.3028 96.9173 16.847 97.5767 16.847C98.1462 16.847 98.4497 17.2083 98.4497 17.9227V20.1886C98.4497 20.411 98.6301 20.5913 98.8525 20.5913C99.075 20.5913 99.2553 20.411 99.2553 20.1886V17.7051C99.2553 16.6418 98.7195 16.0382 97.8503 16.0382C97.2456 16.0382 96.8188 16.3284 96.616 16.8149C96.6101 16.8292 96.5961 16.8388 96.5805 16.8388C96.5596 16.8388 96.5426 16.8218 96.5426 16.8009V14.7745C96.5426 14.5541 96.364 14.3755 96.1436 14.3755C95.9232 14.3755 95.7445 14.5541 95.7445 14.7745V20.1886Z" fill="white"/>
<path d="M102.161 16.7855C102.42 16.7855 102.64 16.8714 102.807 17.0262C103.214 17.4021 102.708 17.9432 102.155 17.9432C101.586 17.9432 101.087 17.3765 101.522 17.0107C101.694 16.866 101.912 16.7855 102.161 16.7855ZM103.429 19.3843C103.267 19.3843 103.128 19.4879 103.021 19.6099C102.841 19.8154 102.56 19.9262 102.191 19.9262C101.547 19.9262 101.131 19.4295 101.105 18.6453C101.105 18.6181 101.127 18.596 101.154 18.596H103.678C103.848 18.596 103.986 18.4582 103.986 18.2881C103.986 16.884 103.3 16.0341 102.165 16.0341C101.015 16.0341 100.284 16.9415 100.284 18.3702C100.284 19.799 101 20.6776 102.169 20.6776C102.901 20.6776 103.46 20.3744 103.755 19.8573C103.884 19.6313 103.689 19.3843 103.429 19.3843Z" fill="white"/>
<defs>
<linearGradient id="paint0_linear_478_41" x1="68" y1="0" x2="68" y2="54.0232" gradientUnits="userSpaceOnUse">
<stop stop-color="white"/>
<stop offset="1" stop-color="white" stop-opacity="0"/>
</linearGradient>
</defs>
</svg>
