<svg width="144" height="57" viewBox="0 0 144 57" fill="none" xmlns="http://www.w3.org/2000/svg">
<rect x="-0.5" y="0.5" width="142.603" height="55.0197" rx="10.5" transform="matrix(1 0 0 -1 1 56.1441)" fill="#090909" stroke="url(#paint0_linear_514_2224)"/>
<mask id="path-2-inside-1_514_2224" fill="white">
<path d="M50.9724 31.454C50.6935 32.2606 51.2926 33.1016 52.1461 33.1016C53.0014 33.1016 53.6006 32.2572 53.3183 31.4498L52.6454 29.5257C52.643 29.519 52.6407 29.5122 52.6384 29.5055C52.4803 29.0503 51.7926 29.0497 51.645 29.5084L50.9724 31.454ZM55.0778 36.4709C54.7274 35.4697 53.7825 34.7992 52.7218 34.7992H51.5809C50.5239 34.7992 49.5837 35.471 49.2412 36.4709L48.8904 37.4949C48.7577 37.8823 48.3934 38.1426 47.9838 38.1426C47.3176 38.1426 46.8546 37.4796 47.0842 36.8542L50.8571 26.5729C51.0591 26.0225 51.583 25.6567 52.1693 25.6567C52.7518 25.6567 53.2732 26.0179 53.4779 26.5632L57.3152 36.7856C57.5616 37.4421 57.0763 38.1426 56.3751 38.1426C55.9484 38.1426 55.5683 37.8729 55.4274 37.4701L55.0778 36.4709Z"/>
<path d="M63.893 35.8721C64.2991 35.2891 64.5022 34.4373 64.5022 33.3171C64.5022 32.2775 64.334 31.5233 63.998 31.055C63.6617 30.5869 63.214 30.3529 62.6547 30.3529C62.2675 30.3529 61.9099 30.4507 61.5819 30.6459C60.9042 31.0495 60.646 31.8666 60.646 32.6554V35.6727C60.646 36.1261 60.8979 36.5552 61.3399 36.656C61.6035 36.7166 61.8644 36.7468 62.1223 36.7468C62.8969 36.7468 63.4869 36.455 63.893 35.8721ZM58.6536 31.1198C58.6536 30.7311 58.6467 30.3205 58.6331 29.8879C58.6151 29.3207 59.0655 28.845 59.633 28.845H60.1577C60.333 28.845 60.4835 28.9672 60.5097 29.1406C60.5584 29.4617 60.9865 29.6097 61.2404 29.4073C61.8549 28.9175 62.5307 28.6725 63.2679 28.6725C63.8488 28.6725 64.3865 28.8291 64.8814 29.1421C65.376 29.4553 65.7754 29.9493 66.0792 30.6242C66.3832 31.2993 66.5351 32.1569 66.5351 33.1965C66.5351 34.2822 66.3617 35.2101 66.0147 35.9797C65.6678 36.7497 65.1825 37.3325 64.5587 37.7291C63.9349 38.1253 63.2141 38.3236 62.3968 38.3236C61.5291 38.3236 60.646 38.9262 60.646 39.7938V40.938C60.646 41.4533 60.2531 41.8835 59.7399 41.9301C59.1566 41.9831 58.6536 41.5238 58.6536 40.938V31.1198Z"/>
<path d="M72.9838 35.8721C73.3899 35.2891 73.593 34.4373 73.593 33.3171C73.593 32.2775 73.4248 31.5233 73.0888 31.055C72.7525 30.5869 72.3048 30.3529 71.7455 30.3529C71.3583 30.3529 71.0007 30.4507 70.6727 30.6459C69.9948 31.0492 69.7368 31.8666 69.7368 32.6554V35.6727C69.7368 36.1261 69.9886 36.5553 70.4307 36.656C70.694 36.7166 70.9549 36.7468 71.2131 36.7468C71.9874 36.7468 72.5777 36.455 72.9838 35.8721ZM67.7441 31.1198C67.7441 30.7312 67.7372 30.3206 67.7236 29.8881C67.7056 29.3207 68.156 28.845 68.7237 28.845H69.2484C69.4238 28.845 69.5743 28.9672 69.6005 29.1406C69.6491 29.4617 70.0773 29.6097 70.3312 29.4073C70.9457 28.9175 71.6215 28.6725 72.3586 28.6725C72.9396 28.6725 73.477 28.8291 73.9721 29.1421C74.4667 29.4553 74.8662 29.9493 75.1702 30.6242C75.4737 31.2993 75.6259 32.1569 75.6259 33.1965C75.6259 34.2822 75.4522 35.2101 75.1055 35.9797C74.7585 36.7497 74.273 37.3325 73.6495 37.7291C73.0254 38.1253 72.3048 38.3236 71.4873 38.3236C70.6198 38.3236 69.7368 38.926 69.7368 39.7935V40.9378C69.7368 41.4532 69.3438 41.8835 68.8306 41.9301C68.2471 41.9831 67.7441 41.5237 67.7441 40.9378V31.1198Z"/>
<path d="M79.2862 37.5523C78.4255 37.0442 77.7641 36.3158 77.3018 35.368C76.8389 34.4201 76.6079 33.2999 76.6079 32.0073C76.6079 30.6058 76.8741 29.415 77.4065 28.4355C77.9389 27.4563 78.6637 26.7209 79.5804 26.2296C80.4976 25.7385 81.5259 25.4929 82.6664 25.4929C83.3385 25.4929 83.9799 25.572 84.5904 25.7298C84.9606 25.8258 85.3156 25.9433 85.6553 26.0825C86.0345 26.2379 86.2083 26.6648 86.0868 27.0561C85.9307 27.5585 85.3607 27.7943 84.8673 27.6118C84.1391 27.3424 83.435 27.2076 82.7552 27.2076C81.943 27.2076 81.2317 27.393 80.6215 27.7636C80.011 28.1342 79.5362 28.6784 79.1975 29.3965C78.8585 30.1146 78.6893 30.982 78.6893 31.9987C78.6893 32.8894 78.8196 33.679 79.0802 34.3684C79.3414 35.0577 79.7528 35.6037 80.3148 36.0056C80.8768 36.4078 81.5853 36.6087 82.4404 36.6087C82.8276 36.6087 83.2148 36.5743 83.602 36.5054C83.6374 36.4991 83.6726 36.4926 83.7076 36.4857C84.314 36.3675 84.6911 35.7971 84.6911 35.1792V35.0302C84.6911 34.284 84.0862 33.679 83.3399 33.679H82.816C82.3592 33.679 81.9888 33.3087 81.9888 32.8518C81.9888 32.3949 82.3592 32.0246 82.816 32.0246H84.3081C85.5889 32.0246 86.6273 33.0629 86.6273 34.3438V35.2724C86.6273 36.5033 85.9411 37.6731 84.7518 37.9904C84.6768 38.0104 84.6016 38.0295 84.5259 38.0479C83.7915 38.2258 83.0616 38.3148 82.3355 38.3148C81.163 38.3148 80.1464 38.061 79.2862 37.5523Z"/>
<path d="M92.5143 36.4191C92.7632 36.2914 92.9851 36.1448 93.1797 35.9795C93.4251 35.7711 93.5306 35.4501 93.5306 35.1281C93.5306 34.4298 93.0078 33.8219 92.3096 33.8094C92.2719 33.8087 92.2352 33.8083 92.1996 33.8083C91.3767 33.8083 90.8078 33.9503 90.4936 34.235C90.1786 34.5189 90.0214 34.9026 90.0214 35.3851C90.0214 35.845 90.1357 36.1852 90.3644 36.4063C90.593 36.6275 90.9034 36.738 91.2959 36.738C91.6938 36.738 92.0999 36.6318 92.5143 36.4191ZM93.9992 38.1426C93.8302 38.1426 93.6883 38.0469 93.6628 37.8798C93.6135 37.5565 93.1532 37.374 92.8918 37.5707C92.7322 37.6908 92.5591 37.8025 92.3728 37.9058C91.8811 38.1785 91.3255 38.3148 90.7071 38.3148C90.2069 38.3148 89.7512 38.2101 89.3395 38.0003C88.9286 37.7908 88.6016 37.4748 88.3597 37.0524C88.1177 36.6304 87.9965 36.1149 87.9965 35.5057C87.9965 34.604 88.3002 33.8844 88.9081 33.3471C89.5159 32.8101 90.5296 32.5416 91.9494 32.5416C92.421 32.5416 92.8884 32.5733 93.3516 32.6363C93.4458 32.6491 93.5306 32.5765 93.5306 32.4813C93.5306 31.6599 93.3665 31.0812 93.0384 30.7448C92.7104 30.409 92.2398 30.2409 91.6269 30.2409C91.2019 30.2409 90.7476 30.3071 90.2634 30.4391C90.142 30.4722 90.0243 30.507 89.9104 30.5435C89.4334 30.6958 88.8907 30.4297 88.7912 29.939C88.7223 29.5994 88.8915 29.2535 89.2186 29.1391C89.4706 29.051 89.757 28.9673 90.0779 28.888C90.6588 28.7446 91.2717 28.6725 91.9171 28.6725C92.6702 28.6725 93.31 28.7946 93.8371 29.0386C94.3642 29.2829 94.7756 29.7025 95.0714 30.2967C95.3671 30.8916 95.515 31.6916 95.515 32.6967V36.3932C95.515 36.5798 95.5201 36.813 95.5301 37.0927C95.5507 37.6631 95.0994 38.1426 94.5285 38.1426H93.9992Z"/>
<path d="M97.0438 35.9108V25.834C97.0438 25.3193 97.4374 24.89 97.9502 24.8455C98.5298 24.7951 99.0282 25.2521 99.0282 25.834V35.5316C99.0282 35.9281 99.0914 36.208 99.2177 36.3719C99.344 36.5353 99.5444 36.6176 99.8189 36.6176C100.103 36.6176 100.381 36.77 100.424 37.0507L100.482 37.4269C100.538 37.7924 100.338 38.1529 99.9754 38.2251C99.9466 38.2308 99.9174 38.2364 99.8876 38.2417C99.6158 38.2904 99.3589 38.3148 99.117 38.3148C97.7345 38.3148 97.0438 37.5136 97.0438 35.9108Z"/>
<path d="M102.005 35.9108V25.834C102.005 25.3193 102.399 24.89 102.911 24.8455C103.491 24.7951 103.989 25.2521 103.989 25.834V35.5316C103.989 35.9281 104.053 36.208 104.179 36.3719C104.305 36.5353 104.506 36.6176 104.78 36.6176C105.064 36.6176 105.342 36.7701 105.386 37.0509L105.443 37.4268C105.499 37.7923 105.299 38.1529 104.937 38.2251C104.908 38.2308 104.879 38.2363 104.849 38.2417C104.577 38.2904 104.32 38.3148 104.078 38.3148C102.696 38.3148 102.005 37.5136 102.005 35.9108Z"/>
<path d="M109.986 32.4124C110.948 32.4124 111.851 31.4813 111.232 30.7448C110.92 30.3746 110.502 30.1891 109.982 30.1891C109.476 30.1891 109.055 30.376 108.719 30.7493C108.078 31.4629 108.916 32.4124 109.876 32.4124H109.986ZM113.7 33.1965C113.7 33.5106 113.445 33.7652 113.131 33.7652H110.918C109.332 33.7652 107.811 35.4723 109.152 36.3189C109.541 36.5639 110.027 36.6864 110.611 36.6864C111.019 36.6864 111.437 36.6333 111.866 36.5271C112.003 36.493 112.138 36.4552 112.271 36.4139C112.716 36.2753 113.214 36.4983 113.348 36.9453C113.455 37.2999 113.295 37.6847 112.952 37.822C112.128 38.1507 111.228 38.3148 110.249 38.3148C109.321 38.3148 108.543 38.1284 107.909 37.7549C107.272 37.3815 106.795 36.8444 106.475 36.1434C106.156 35.4429 105.996 34.5983 105.996 33.6101C105.996 32.582 106.166 31.6971 106.505 30.9561C106.843 30.215 107.315 29.6493 107.92 29.2586C108.525 28.868 109.223 28.6725 110.014 28.6725C110.838 28.6725 111.522 28.878 112.074 29.2888C112.626 29.6993 113.033 30.2467 113.3 30.9302C113.566 31.6141 113.7 32.3693 113.7 33.1965Z"/>
<path d="M115.208 31.1801C115.208 30.8496 115.198 30.4074 115.179 29.8535C115.161 29.3033 115.6 28.845 116.15 28.845C116.639 28.845 117.049 29.2098 117.093 29.6968C117.095 29.7214 117.098 29.7463 117.1 29.7714C117.12 30.0251 117.478 30.1119 117.624 29.9039C117.697 29.8014 117.769 29.7055 117.841 29.6163C118.064 29.3374 118.326 29.1107 118.624 28.9352C118.922 28.7601 119.261 28.6725 119.645 28.6725C119.655 28.6725 119.665 28.6726 119.675 28.6726C120.118 28.676 120.39 29.0979 120.33 29.5375L120.271 29.9715C120.225 30.3088 119.878 30.5252 119.538 30.5252C119.072 30.5252 118.661 30.6531 118.312 30.9088C118.239 30.9623 118.165 31.0231 118.09 31.0912C117.409 31.7064 117.19 32.6618 117.19 33.5792V37.1513C117.19 37.6988 116.747 38.1426 116.199 38.1426C115.652 38.1426 115.208 37.6988 115.208 37.1513V31.1801Z"/>
<path d="M121.553 41.9469C121.546 41.9457 121.54 41.9446 121.534 41.9434C121.129 41.8665 120.906 41.4602 121 41.0582L121.079 40.7194C121.144 40.4437 121.429 40.2763 121.707 40.327C121.91 40.3646 122.104 40.383 122.288 40.383C123.17 40.383 123.831 39.7767 124.271 38.5648C124.355 38.342 124.359 38.0968 124.282 37.8714L121.644 30.1686C121.421 29.5198 121.903 28.845 122.589 28.845C123.028 28.845 123.415 29.131 123.545 29.5502L124.942 34.084C124.945 34.0956 124.949 34.1071 124.952 34.1187C125.075 34.5407 125.853 34.5475 125.981 34.1271L127.415 29.507C127.537 29.1133 127.901 28.845 128.313 28.845C128.958 28.845 129.412 29.4783 129.204 30.0885L126.426 38.2634C126.125 39.1536 125.797 39.8716 125.448 40.4175C125.099 40.9631 124.686 41.3681 124.212 41.6325C123.735 41.8965 123.162 42.0288 122.488 42.0288C122.155 42.0288 121.843 42.0018 121.553 41.9469Z"/>
</mask>
<path d="M50.9724 31.454C50.6935 32.2606 51.2926 33.1016 52.1461 33.1016C53.0014 33.1016 53.6006 32.2572 53.3183 31.4498L52.6454 29.5257C52.643 29.519 52.6407 29.5122 52.6384 29.5055C52.4803 29.0503 51.7926 29.0497 51.645 29.5084L50.9724 31.454ZM55.0778 36.4709C54.7274 35.4697 53.7825 34.7992 52.7218 34.7992H51.5809C50.5239 34.7992 49.5837 35.471 49.2412 36.4709L48.8904 37.4949C48.7577 37.8823 48.3934 38.1426 47.9838 38.1426C47.3176 38.1426 46.8546 37.4796 47.0842 36.8542L50.8571 26.5729C51.0591 26.0225 51.583 25.6567 52.1693 25.6567C52.7518 25.6567 53.2732 26.0179 53.4779 26.5632L57.3152 36.7856C57.5616 37.4421 57.0763 38.1426 56.3751 38.1426C55.9484 38.1426 55.5683 37.8729 55.4274 37.4701L55.0778 36.4709Z" fill="white"/>
<path d="M63.893 35.8721C64.2991 35.2891 64.5022 34.4373 64.5022 33.3171C64.5022 32.2775 64.334 31.5233 63.998 31.055C63.6617 30.5869 63.214 30.3529 62.6547 30.3529C62.2675 30.3529 61.9099 30.4507 61.5819 30.6459C60.9042 31.0495 60.646 31.8666 60.646 32.6554V35.6727C60.646 36.1261 60.8979 36.5552 61.3399 36.656C61.6035 36.7166 61.8644 36.7468 62.1223 36.7468C62.8969 36.7468 63.4869 36.455 63.893 35.8721ZM58.6536 31.1198C58.6536 30.7311 58.6467 30.3205 58.6331 29.8879C58.6151 29.3207 59.0655 28.845 59.633 28.845H60.1577C60.333 28.845 60.4835 28.9672 60.5097 29.1406C60.5584 29.4617 60.9865 29.6097 61.2404 29.4073C61.8549 28.9175 62.5307 28.6725 63.2679 28.6725C63.8488 28.6725 64.3865 28.8291 64.8814 29.1421C65.376 29.4553 65.7754 29.9493 66.0792 30.6242C66.3832 31.2993 66.5351 32.1569 66.5351 33.1965C66.5351 34.2822 66.3617 35.2101 66.0147 35.9797C65.6678 36.7497 65.1825 37.3325 64.5587 37.7291C63.9349 38.1253 63.2141 38.3236 62.3968 38.3236C61.5291 38.3236 60.646 38.9262 60.646 39.7938V40.938C60.646 41.4533 60.2531 41.8835 59.7399 41.9301C59.1566 41.9831 58.6536 41.5238 58.6536 40.938V31.1198Z" fill="white"/>
<path d="M72.9838 35.8721C73.3899 35.2891 73.593 34.4373 73.593 33.3171C73.593 32.2775 73.4248 31.5233 73.0888 31.055C72.7525 30.5869 72.3048 30.3529 71.7455 30.3529C71.3583 30.3529 71.0007 30.4507 70.6727 30.6459C69.9948 31.0492 69.7368 31.8666 69.7368 32.6554V35.6727C69.7368 36.1261 69.9886 36.5553 70.4307 36.656C70.694 36.7166 70.9549 36.7468 71.2131 36.7468C71.9874 36.7468 72.5777 36.455 72.9838 35.8721ZM67.7441 31.1198C67.7441 30.7312 67.7372 30.3206 67.7236 29.8881C67.7056 29.3207 68.156 28.845 68.7237 28.845H69.2484C69.4238 28.845 69.5743 28.9672 69.6005 29.1406C69.6491 29.4617 70.0773 29.6097 70.3312 29.4073C70.9457 28.9175 71.6215 28.6725 72.3586 28.6725C72.9396 28.6725 73.477 28.8291 73.9721 29.1421C74.4667 29.4553 74.8662 29.9493 75.1702 30.6242C75.4737 31.2993 75.6259 32.1569 75.6259 33.1965C75.6259 34.2822 75.4522 35.2101 75.1055 35.9797C74.7585 36.7497 74.273 37.3325 73.6495 37.7291C73.0254 38.1253 72.3048 38.3236 71.4873 38.3236C70.6198 38.3236 69.7368 38.926 69.7368 39.7935V40.9378C69.7368 41.4532 69.3438 41.8835 68.8306 41.9301C68.2471 41.9831 67.7441 41.5237 67.7441 40.9378V31.1198Z" fill="white"/>
<path d="M79.2862 37.5523C78.4255 37.0442 77.7641 36.3158 77.3018 35.368C76.8389 34.4201 76.6079 33.2999 76.6079 32.0073C76.6079 30.6058 76.8741 29.415 77.4065 28.4355C77.9389 27.4563 78.6637 26.7209 79.5804 26.2296C80.4976 25.7385 81.5259 25.4929 82.6664 25.4929C83.3385 25.4929 83.9799 25.572 84.5904 25.7298C84.9606 25.8258 85.3156 25.9433 85.6553 26.0825C86.0345 26.2379 86.2083 26.6648 86.0868 27.0561C85.9307 27.5585 85.3607 27.7943 84.8673 27.6118C84.1391 27.3424 83.435 27.2076 82.7552 27.2076C81.943 27.2076 81.2317 27.393 80.6215 27.7636C80.011 28.1342 79.5362 28.6784 79.1975 29.3965C78.8585 30.1146 78.6893 30.982 78.6893 31.9987C78.6893 32.8894 78.8196 33.679 79.0802 34.3684C79.3414 35.0577 79.7528 35.6037 80.3148 36.0056C80.8768 36.4078 81.5853 36.6087 82.4404 36.6087C82.8276 36.6087 83.2148 36.5743 83.602 36.5054C83.6374 36.4991 83.6726 36.4926 83.7076 36.4857C84.314 36.3675 84.6911 35.7971 84.6911 35.1792V35.0302C84.6911 34.284 84.0862 33.679 83.3399 33.679H82.816C82.3592 33.679 81.9888 33.3087 81.9888 32.8518C81.9888 32.3949 82.3592 32.0246 82.816 32.0246H84.3081C85.5889 32.0246 86.6273 33.0629 86.6273 34.3438V35.2724C86.6273 36.5033 85.9411 37.6731 84.7518 37.9904C84.6768 38.0104 84.6016 38.0295 84.5259 38.0479C83.7915 38.2258 83.0616 38.3148 82.3355 38.3148C81.163 38.3148 80.1464 38.061 79.2862 37.5523Z" fill="white"/>
<path d="M92.5143 36.4191C92.7632 36.2914 92.9851 36.1448 93.1797 35.9795C93.4251 35.7711 93.5306 35.4501 93.5306 35.1281C93.5306 34.4298 93.0078 33.8219 92.3096 33.8094C92.2719 33.8087 92.2352 33.8083 92.1996 33.8083C91.3767 33.8083 90.8078 33.9503 90.4936 34.235C90.1786 34.5189 90.0214 34.9026 90.0214 35.3851C90.0214 35.845 90.1357 36.1852 90.3644 36.4063C90.593 36.6275 90.9034 36.738 91.2959 36.738C91.6938 36.738 92.0999 36.6318 92.5143 36.4191ZM93.9992 38.1426C93.8302 38.1426 93.6883 38.0469 93.6628 37.8798C93.6135 37.5565 93.1532 37.374 92.8918 37.5707C92.7322 37.6908 92.5591 37.8025 92.3728 37.9058C91.8811 38.1785 91.3255 38.3148 90.7071 38.3148C90.2069 38.3148 89.7512 38.2101 89.3395 38.0003C88.9286 37.7908 88.6016 37.4748 88.3597 37.0524C88.1177 36.6304 87.9965 36.1149 87.9965 35.5057C87.9965 34.604 88.3002 33.8844 88.9081 33.3471C89.5159 32.8101 90.5296 32.5416 91.9494 32.5416C92.421 32.5416 92.8884 32.5733 93.3516 32.6363C93.4458 32.6491 93.5306 32.5765 93.5306 32.4813C93.5306 31.6599 93.3665 31.0812 93.0384 30.7448C92.7104 30.409 92.2398 30.2409 91.6269 30.2409C91.2019 30.2409 90.7476 30.3071 90.2634 30.4391C90.142 30.4722 90.0243 30.507 89.9104 30.5435C89.4334 30.6958 88.8907 30.4297 88.7912 29.939C88.7223 29.5994 88.8915 29.2535 89.2186 29.1391C89.4706 29.051 89.757 28.9673 90.0779 28.888C90.6588 28.7446 91.2717 28.6725 91.9171 28.6725C92.6702 28.6725 93.31 28.7946 93.8371 29.0386C94.3642 29.2829 94.7756 29.7025 95.0714 30.2967C95.3671 30.8916 95.515 31.6916 95.515 32.6967V36.3932C95.515 36.5798 95.5201 36.813 95.5301 37.0927C95.5507 37.6631 95.0994 38.1426 94.5285 38.1426H93.9992Z" fill="white"/>
<path d="M97.0438 35.9108V25.834C97.0438 25.3193 97.4374 24.89 97.9502 24.8455C98.5298 24.7951 99.0282 25.2521 99.0282 25.834V35.5316C99.0282 35.9281 99.0914 36.208 99.2177 36.3719C99.344 36.5353 99.5444 36.6176 99.8189 36.6176C100.103 36.6176 100.381 36.77 100.424 37.0507L100.482 37.4269C100.538 37.7924 100.338 38.1529 99.9754 38.2251C99.9466 38.2308 99.9174 38.2364 99.8876 38.2417C99.6158 38.2904 99.3589 38.3148 99.117 38.3148C97.7345 38.3148 97.0438 37.5136 97.0438 35.9108Z" fill="white"/>
<path d="M102.005 35.9108V25.834C102.005 25.3193 102.399 24.89 102.911 24.8455C103.491 24.7951 103.989 25.2521 103.989 25.834V35.5316C103.989 35.9281 104.053 36.208 104.179 36.3719C104.305 36.5353 104.506 36.6176 104.78 36.6176C105.064 36.6176 105.342 36.7701 105.386 37.0509L105.443 37.4268C105.499 37.7923 105.299 38.1529 104.937 38.2251C104.908 38.2308 104.879 38.2363 104.849 38.2417C104.577 38.2904 104.32 38.3148 104.078 38.3148C102.696 38.3148 102.005 37.5136 102.005 35.9108Z" fill="white"/>
<path d="M109.986 32.4124C110.948 32.4124 111.851 31.4813 111.232 30.7448C110.92 30.3746 110.502 30.1891 109.982 30.1891C109.476 30.1891 109.055 30.376 108.719 30.7493C108.078 31.4629 108.916 32.4124 109.876 32.4124H109.986ZM113.7 33.1965C113.7 33.5106 113.445 33.7652 113.131 33.7652H110.918C109.332 33.7652 107.811 35.4723 109.152 36.3189C109.541 36.5639 110.027 36.6864 110.611 36.6864C111.019 36.6864 111.437 36.6333 111.866 36.5271C112.003 36.493 112.138 36.4552 112.271 36.4139C112.716 36.2753 113.214 36.4983 113.348 36.9453C113.455 37.2999 113.295 37.6847 112.952 37.822C112.128 38.1507 111.228 38.3148 110.249 38.3148C109.321 38.3148 108.543 38.1284 107.909 37.7549C107.272 37.3815 106.795 36.8444 106.475 36.1434C106.156 35.4429 105.996 34.5983 105.996 33.6101C105.996 32.582 106.166 31.6971 106.505 30.9561C106.843 30.215 107.315 29.6493 107.92 29.2586C108.525 28.868 109.223 28.6725 110.014 28.6725C110.838 28.6725 111.522 28.878 112.074 29.2888C112.626 29.6993 113.033 30.2467 113.3 30.9302C113.566 31.6141 113.7 32.3693 113.7 33.1965Z" fill="white"/>
<path d="M115.208 31.1801C115.208 30.8496 115.198 30.4074 115.179 29.8535C115.161 29.3033 115.6 28.845 116.15 28.845C116.639 28.845 117.049 29.2098 117.093 29.6968C117.095 29.7214 117.098 29.7463 117.1 29.7714C117.12 30.0251 117.478 30.1119 117.624 29.9039C117.697 29.8014 117.769 29.7055 117.841 29.6163C118.064 29.3374 118.326 29.1107 118.624 28.9352C118.922 28.7601 119.261 28.6725 119.645 28.6725C119.655 28.6725 119.665 28.6726 119.675 28.6726C120.118 28.676 120.39 29.0979 120.33 29.5375L120.271 29.9715C120.225 30.3088 119.878 30.5252 119.538 30.5252C119.072 30.5252 118.661 30.6531 118.312 30.9088C118.239 30.9623 118.165 31.0231 118.09 31.0912C117.409 31.7064 117.19 32.6618 117.19 33.5792V37.1513C117.19 37.6988 116.747 38.1426 116.199 38.1426C115.652 38.1426 115.208 37.6988 115.208 37.1513V31.1801Z" fill="white"/>
<path d="M121.553 41.9469C121.546 41.9457 121.54 41.9446 121.534 41.9434C121.129 41.8665 120.906 41.4602 121 41.0582L121.079 40.7194C121.144 40.4437 121.429 40.2763 121.707 40.327C121.91 40.3646 122.104 40.383 122.288 40.383C123.17 40.383 123.831 39.7767 124.271 38.5648C124.355 38.342 124.359 38.0968 124.282 37.8714L121.644 30.1686C121.421 29.5198 121.903 28.845 122.589 28.845C123.028 28.845 123.415 29.131 123.545 29.5502L124.942 34.084C124.945 34.0956 124.949 34.1071 124.952 34.1187C125.075 34.5407 125.853 34.5475 125.981 34.1271L127.415 29.507C127.537 29.1133 127.901 28.845 128.313 28.845C128.958 28.845 129.412 29.4783 129.204 30.0885L126.426 38.2634C126.125 39.1536 125.797 39.8716 125.448 40.4175C125.099 40.9631 124.686 41.3681 124.212 41.6325C123.735 41.8965 123.162 42.0288 122.488 42.0288C122.155 42.0288 121.843 42.0018 121.553 41.9469Z" fill="white"/>
<path d="M50.9724 31.454C50.6935 32.2606 51.2926 33.1016 52.1461 33.1016C53.0014 33.1016 53.6006 32.2572 53.3183 31.4498L52.6454 29.5257C52.643 29.519 52.6407 29.5122 52.6384 29.5055C52.4803 29.0503 51.7926 29.0497 51.645 29.5084L50.9724 31.454ZM55.0778 36.4709C54.7274 35.4697 53.7825 34.7992 52.7218 34.7992H51.5809C50.5239 34.7992 49.5837 35.471 49.2412 36.4709L48.8904 37.4949C48.7577 37.8823 48.3934 38.1426 47.9838 38.1426C47.3176 38.1426 46.8546 37.4796 47.0842 36.8542L50.8571 26.5729C51.0591 26.0225 51.583 25.6567 52.1693 25.6567C52.7518 25.6567 53.2732 26.0179 53.4779 26.5632L57.3152 36.7856C57.5616 37.4421 57.0763 38.1426 56.3751 38.1426C55.9484 38.1426 55.5683 37.8729 55.4274 37.4701L55.0778 36.4709Z" stroke="url(#paint1_linear_514_2224)" stroke-width="2" mask="url(#path-2-inside-1_514_2224)"/>
<path d="M63.893 35.8721C64.2991 35.2891 64.5022 34.4373 64.5022 33.3171C64.5022 32.2775 64.334 31.5233 63.998 31.055C63.6617 30.5869 63.214 30.3529 62.6547 30.3529C62.2675 30.3529 61.9099 30.4507 61.5819 30.6459C60.9042 31.0495 60.646 31.8666 60.646 32.6554V35.6727C60.646 36.1261 60.8979 36.5552 61.3399 36.656C61.6035 36.7166 61.8644 36.7468 62.1223 36.7468C62.8969 36.7468 63.4869 36.455 63.893 35.8721ZM58.6536 31.1198C58.6536 30.7311 58.6467 30.3205 58.6331 29.8879C58.6151 29.3207 59.0655 28.845 59.633 28.845H60.1577C60.333 28.845 60.4835 28.9672 60.5097 29.1406C60.5584 29.4617 60.9865 29.6097 61.2404 29.4073C61.8549 28.9175 62.5307 28.6725 63.2679 28.6725C63.8488 28.6725 64.3865 28.8291 64.8814 29.1421C65.376 29.4553 65.7754 29.9493 66.0792 30.6242C66.3832 31.2993 66.5351 32.1569 66.5351 33.1965C66.5351 34.2822 66.3617 35.2101 66.0147 35.9797C65.6678 36.7497 65.1825 37.3325 64.5587 37.7291C63.9349 38.1253 63.2141 38.3236 62.3968 38.3236C61.5291 38.3236 60.646 38.9262 60.646 39.7938V40.938C60.646 41.4533 60.2531 41.8835 59.7399 41.9301C59.1566 41.9831 58.6536 41.5238 58.6536 40.938V31.1198Z" stroke="url(#paint2_linear_514_2224)" stroke-width="2" mask="url(#path-2-inside-1_514_2224)"/>
<path d="M72.9838 35.8721C73.3899 35.2891 73.593 34.4373 73.593 33.3171C73.593 32.2775 73.4248 31.5233 73.0888 31.055C72.7525 30.5869 72.3048 30.3529 71.7455 30.3529C71.3583 30.3529 71.0007 30.4507 70.6727 30.6459C69.9948 31.0492 69.7368 31.8666 69.7368 32.6554V35.6727C69.7368 36.1261 69.9886 36.5553 70.4307 36.656C70.694 36.7166 70.9549 36.7468 71.2131 36.7468C71.9874 36.7468 72.5777 36.455 72.9838 35.8721ZM67.7441 31.1198C67.7441 30.7312 67.7372 30.3206 67.7236 29.8881C67.7056 29.3207 68.156 28.845 68.7237 28.845H69.2484C69.4238 28.845 69.5743 28.9672 69.6005 29.1406C69.6491 29.4617 70.0773 29.6097 70.3312 29.4073C70.9457 28.9175 71.6215 28.6725 72.3586 28.6725C72.9396 28.6725 73.477 28.8291 73.9721 29.1421C74.4667 29.4553 74.8662 29.9493 75.1702 30.6242C75.4737 31.2993 75.6259 32.1569 75.6259 33.1965C75.6259 34.2822 75.4522 35.2101 75.1055 35.9797C74.7585 36.7497 74.273 37.3325 73.6495 37.7291C73.0254 38.1253 72.3048 38.3236 71.4873 38.3236C70.6198 38.3236 69.7368 38.926 69.7368 39.7935V40.9378C69.7368 41.4532 69.3438 41.8835 68.8306 41.9301C68.2471 41.9831 67.7441 41.5237 67.7441 40.9378V31.1198Z" stroke="url(#paint3_linear_514_2224)" stroke-width="2" mask="url(#path-2-inside-1_514_2224)"/>
<path d="M79.2862 37.5523C78.4255 37.0442 77.7641 36.3158 77.3018 35.368C76.8389 34.4201 76.6079 33.2999 76.6079 32.0073C76.6079 30.6058 76.8741 29.415 77.4065 28.4355C77.9389 27.4563 78.6637 26.7209 79.5804 26.2296C80.4976 25.7385 81.5259 25.4929 82.6664 25.4929C83.3385 25.4929 83.9799 25.572 84.5904 25.7298C84.9606 25.8258 85.3156 25.9433 85.6553 26.0825C86.0345 26.2379 86.2083 26.6648 86.0868 27.0561C85.9307 27.5585 85.3607 27.7943 84.8673 27.6118C84.1391 27.3424 83.435 27.2076 82.7552 27.2076C81.943 27.2076 81.2317 27.393 80.6215 27.7636C80.011 28.1342 79.5362 28.6784 79.1975 29.3965C78.8585 30.1146 78.6893 30.982 78.6893 31.9987C78.6893 32.8894 78.8196 33.679 79.0802 34.3684C79.3414 35.0577 79.7528 35.6037 80.3148 36.0056C80.8768 36.4078 81.5853 36.6087 82.4404 36.6087C82.8276 36.6087 83.2148 36.5743 83.602 36.5054C83.6374 36.4991 83.6726 36.4926 83.7076 36.4857C84.314 36.3675 84.6911 35.7971 84.6911 35.1792V35.0302C84.6911 34.284 84.0862 33.679 83.3399 33.679H82.816C82.3592 33.679 81.9888 33.3087 81.9888 32.8518C81.9888 32.3949 82.3592 32.0246 82.816 32.0246H84.3081C85.5889 32.0246 86.6273 33.0629 86.6273 34.3438V35.2724C86.6273 36.5033 85.9411 37.6731 84.7518 37.9904C84.6768 38.0104 84.6016 38.0295 84.5259 38.0479C83.7915 38.2258 83.0616 38.3148 82.3355 38.3148C81.163 38.3148 80.1464 38.061 79.2862 37.5523Z" stroke="url(#paint4_linear_514_2224)" stroke-width="2" mask="url(#path-2-inside-1_514_2224)"/>
<path d="M92.5143 36.4191C92.7632 36.2914 92.9851 36.1448 93.1797 35.9795C93.4251 35.7711 93.5306 35.4501 93.5306 35.1281C93.5306 34.4298 93.0078 33.8219 92.3096 33.8094C92.2719 33.8087 92.2352 33.8083 92.1996 33.8083C91.3767 33.8083 90.8078 33.9503 90.4936 34.235C90.1786 34.5189 90.0214 34.9026 90.0214 35.3851C90.0214 35.845 90.1357 36.1852 90.3644 36.4063C90.593 36.6275 90.9034 36.738 91.2959 36.738C91.6938 36.738 92.0999 36.6318 92.5143 36.4191ZM93.9992 38.1426C93.8302 38.1426 93.6883 38.0469 93.6628 37.8798C93.6135 37.5565 93.1532 37.374 92.8918 37.5707C92.7322 37.6908 92.5591 37.8025 92.3728 37.9058C91.8811 38.1785 91.3255 38.3148 90.7071 38.3148C90.2069 38.3148 89.7512 38.2101 89.3395 38.0003C88.9286 37.7908 88.6016 37.4748 88.3597 37.0524C88.1177 36.6304 87.9965 36.1149 87.9965 35.5057C87.9965 34.604 88.3002 33.8844 88.9081 33.3471C89.5159 32.8101 90.5296 32.5416 91.9494 32.5416C92.421 32.5416 92.8884 32.5733 93.3516 32.6363C93.4458 32.6491 93.5306 32.5765 93.5306 32.4813C93.5306 31.6599 93.3665 31.0812 93.0384 30.7448C92.7104 30.409 92.2398 30.2409 91.6269 30.2409C91.2019 30.2409 90.7476 30.3071 90.2634 30.4391C90.142 30.4722 90.0243 30.507 89.9104 30.5435C89.4334 30.6958 88.8907 30.4297 88.7912 29.939C88.7223 29.5994 88.8915 29.2535 89.2186 29.1391C89.4706 29.051 89.757 28.9673 90.0779 28.888C90.6588 28.7446 91.2717 28.6725 91.9171 28.6725C92.6702 28.6725 93.31 28.7946 93.8371 29.0386C94.3642 29.2829 94.7756 29.7025 95.0714 30.2967C95.3671 30.8916 95.515 31.6916 95.515 32.6967V36.3932C95.515 36.5798 95.5201 36.813 95.5301 37.0927C95.5507 37.6631 95.0994 38.1426 94.5285 38.1426H93.9992Z" stroke="url(#paint5_linear_514_2224)" stroke-width="2" mask="url(#path-2-inside-1_514_2224)"/>
<path d="M97.0438 35.9108V25.834C97.0438 25.3193 97.4374 24.89 97.9502 24.8455C98.5298 24.7951 99.0282 25.2521 99.0282 25.834V35.5316C99.0282 35.9281 99.0914 36.208 99.2177 36.3719C99.344 36.5353 99.5444 36.6176 99.8189 36.6176C100.103 36.6176 100.381 36.77 100.424 37.0507L100.482 37.4269C100.538 37.7924 100.338 38.1529 99.9754 38.2251C99.9466 38.2308 99.9174 38.2364 99.8876 38.2417C99.6158 38.2904 99.3589 38.3148 99.117 38.3148C97.7345 38.3148 97.0438 37.5136 97.0438 35.9108Z" stroke="url(#paint6_linear_514_2224)" stroke-width="2" mask="url(#path-2-inside-1_514_2224)"/>
<path d="M102.005 35.9108V25.834C102.005 25.3193 102.399 24.89 102.911 24.8455C103.491 24.7951 103.989 25.2521 103.989 25.834V35.5316C103.989 35.9281 104.053 36.208 104.179 36.3719C104.305 36.5353 104.506 36.6176 104.78 36.6176C105.064 36.6176 105.342 36.7701 105.386 37.0509L105.443 37.4268C105.499 37.7923 105.299 38.1529 104.937 38.2251C104.908 38.2308 104.879 38.2363 104.849 38.2417C104.577 38.2904 104.32 38.3148 104.078 38.3148C102.696 38.3148 102.005 37.5136 102.005 35.9108Z" stroke="url(#paint7_linear_514_2224)" stroke-width="2" mask="url(#path-2-inside-1_514_2224)"/>
<path d="M109.986 32.4124C110.948 32.4124 111.851 31.4813 111.232 30.7448C110.92 30.3746 110.502 30.1891 109.982 30.1891C109.476 30.1891 109.055 30.376 108.719 30.7493C108.078 31.4629 108.916 32.4124 109.876 32.4124H109.986ZM113.7 33.1965C113.7 33.5106 113.445 33.7652 113.131 33.7652H110.918C109.332 33.7652 107.811 35.4723 109.152 36.3189C109.541 36.5639 110.027 36.6864 110.611 36.6864C111.019 36.6864 111.437 36.6333 111.866 36.5271C112.003 36.493 112.138 36.4552 112.271 36.4139C112.716 36.2753 113.214 36.4983 113.348 36.9453C113.455 37.2999 113.295 37.6847 112.952 37.822C112.128 38.1507 111.228 38.3148 110.249 38.3148C109.321 38.3148 108.543 38.1284 107.909 37.7549C107.272 37.3815 106.795 36.8444 106.475 36.1434C106.156 35.4429 105.996 34.5983 105.996 33.6101C105.996 32.582 106.166 31.6971 106.505 30.9561C106.843 30.215 107.315 29.6493 107.92 29.2586C108.525 28.868 109.223 28.6725 110.014 28.6725C110.838 28.6725 111.522 28.878 112.074 29.2888C112.626 29.6993 113.033 30.2467 113.3 30.9302C113.566 31.6141 113.7 32.3693 113.7 33.1965Z" stroke="url(#paint8_linear_514_2224)" stroke-width="2" mask="url(#path-2-inside-1_514_2224)"/>
<path d="M115.208 31.1801C115.208 30.8496 115.198 30.4074 115.179 29.8535C115.161 29.3033 115.6 28.845 116.15 28.845C116.639 28.845 117.049 29.2098 117.093 29.6968C117.095 29.7214 117.098 29.7463 117.1 29.7714C117.12 30.0251 117.478 30.1119 117.624 29.9039C117.697 29.8014 117.769 29.7055 117.841 29.6163C118.064 29.3374 118.326 29.1107 118.624 28.9352C118.922 28.7601 119.261 28.6725 119.645 28.6725C119.655 28.6725 119.665 28.6726 119.675 28.6726C120.118 28.676 120.39 29.0979 120.33 29.5375L120.271 29.9715C120.225 30.3088 119.878 30.5252 119.538 30.5252C119.072 30.5252 118.661 30.6531 118.312 30.9088C118.239 30.9623 118.165 31.0231 118.09 31.0912C117.409 31.7064 117.19 32.6618 117.19 33.5792V37.1513C117.19 37.6988 116.747 38.1426 116.199 38.1426C115.652 38.1426 115.208 37.6988 115.208 37.1513V31.1801Z" stroke="url(#paint9_linear_514_2224)" stroke-width="2" mask="url(#path-2-inside-1_514_2224)"/>
<path d="M121.553 41.9469C121.546 41.9457 121.54 41.9446 121.534 41.9434C121.129 41.8665 120.906 41.4602 121 41.0582L121.079 40.7194C121.144 40.4437 121.429 40.2763 121.707 40.327C121.91 40.3646 122.104 40.383 122.288 40.383C123.17 40.383 123.831 39.7767 124.271 38.5648C124.355 38.342 124.359 38.0968 124.282 37.8714L121.644 30.1686C121.421 29.5198 121.903 28.845 122.589 28.845C123.028 28.845 123.415 29.131 123.545 29.5502L124.942 34.084C124.945 34.0956 124.949 34.1071 124.952 34.1187C125.075 34.5407 125.853 34.5475 125.981 34.1271L127.415 29.507C127.537 29.1133 127.901 28.845 128.313 28.845C128.958 28.845 129.412 29.4783 129.204 30.0885L126.426 38.2634C126.125 39.1536 125.797 39.8716 125.448 40.4175C125.099 40.9631 124.686 41.3681 124.212 41.6325C123.735 41.8965 123.162 42.0288 122.488 42.0288C122.155 42.0288 121.843 42.0018 121.553 41.9469Z" stroke="url(#paint10_linear_514_2224)" stroke-width="2" mask="url(#path-2-inside-1_514_2224)"/>
<mask id="path-3-inside-2_514_2224" fill="white">
<path d="M46.6113 15.8798C46.6113 15.0197 47.3086 14.3224 48.1687 14.3224H49.4314C49.6843 14.3224 49.8812 14.542 49.8538 14.7933C49.8303 15.0089 49.6482 15.1722 49.4314 15.1722H48.3995C47.945 15.1722 47.5766 15.5405 47.5766 15.995C47.5766 16.4494 47.945 16.8178 48.3995 16.8178H49.2869C49.5067 16.8178 49.6849 16.996 49.6849 17.2159C49.6849 17.4357 49.5067 17.614 49.2869 17.614H48.4882C47.9847 17.614 47.5766 18.0221 47.5766 18.5255C47.5766 19.0289 47.9847 19.437 48.4882 19.437H49.4607C49.7135 19.437 49.9115 19.6546 49.8877 19.9063C49.8669 20.1266 49.6819 20.2949 49.4607 20.2949H48.3075C47.3707 20.2949 46.6113 19.5355 46.6113 18.5987V15.8798Z"/>
<path d="M51.7179 17.9886C51.9992 17.5326 52.004 16.958 51.7303 16.4974L50.8569 15.0275C50.672 14.7164 50.8962 14.3224 51.2581 14.3224C51.4285 14.3224 51.5854 14.4153 51.6673 14.5648L51.8288 14.8594C52.2163 15.5664 53.228 15.5774 53.6309 14.879L53.8204 14.5504C53.9018 14.4093 54.0523 14.3224 54.2151 14.3224C54.5688 14.3224 54.7877 14.7078 54.6065 15.0115L53.7333 16.4754C53.4637 16.9272 53.4654 17.4909 53.7376 17.9412L54.7274 19.5786C54.9176 19.8932 54.6911 20.2949 54.3234 20.2949C54.1534 20.2949 53.9965 20.2035 53.9127 20.0555L53.7155 19.7075C53.2736 18.9276 52.1515 18.9234 51.7038 19.6999L51.4905 20.0698C51.4102 20.2091 51.2617 20.2949 51.1009 20.2949C50.7489 20.2949 50.5334 19.9087 50.7182 19.6091L51.7179 17.9886Z"/>
<path d="M58.2921 16.9889C58.498 16.7898 58.601 16.5084 58.601 16.1454C58.601 15.7769 58.496 15.5119 58.2864 15.3495C58.0766 15.1872 57.7682 15.1062 57.3616 15.1062C57.0716 15.1062 56.8365 15.3413 56.8365 15.6313V16.6661C56.8365 16.9896 57.0691 17.2879 57.3925 17.2879C57.7862 17.2879 58.0862 17.1884 58.2921 16.9889ZM55.8709 15.8284C55.8709 14.9967 56.5452 14.3224 57.377 14.3224C58.0848 14.3224 58.6267 14.4766 59.0026 14.7844C59.3785 15.0924 59.5663 15.5378 59.5663 16.1206C59.5663 16.5166 59.4821 16.8627 59.3135 17.1581C59.1447 17.4537 58.9099 17.6807 58.6087 17.8386C58.3077 17.997 57.9612 18.0759 57.57 18.0759C57.1876 18.0759 56.8365 18.3502 56.8365 18.7326V19.8121C56.8365 20.0788 56.6203 20.2949 56.3537 20.2949C56.0871 20.2949 55.8709 20.0788 55.8709 19.8121V15.8284Z"/>
<path d="M60.5203 14.8051C60.5203 14.5385 60.7364 14.3224 61.0029 14.3224C61.2695 14.3224 61.4856 14.5385 61.4856 14.8051V18.3087C61.4856 18.9181 61.9796 19.4122 62.5891 19.4122H63.3148C63.5744 19.4122 63.778 19.6353 63.7543 19.8939C63.7334 20.1211 63.5429 20.2949 63.3148 20.2949H62.1921C61.2688 20.2949 60.5203 19.5464 60.5203 18.6231V14.8051Z"/>
<path d="M67.7682 19.2699C68.0386 19.0761 68.2405 18.8095 68.3744 18.4698C68.5084 18.1303 68.5753 17.7417 68.5753 17.3046C68.5753 16.8756 68.516 16.4936 68.3976 16.1578C68.279 15.8223 68.09 15.5552 67.83 15.3556C67.57 15.1563 67.2354 15.0565 66.8259 15.0565C66.4347 15.0565 66.1025 15.1576 65.8297 15.3598C65.5569 15.5618 65.3522 15.8329 65.2158 16.1724C65.0794 16.5121 65.0112 16.8867 65.0112 17.2964C65.0112 17.728 65.0754 18.1145 65.2042 18.4553C65.3327 18.7963 65.5297 19.0658 65.7951 19.2638C66.06 19.4618 66.3882 19.5608 66.7797 19.5608C67.1684 19.5608 67.4978 19.4637 67.7682 19.2699ZM65.266 20.0022C64.8567 19.7519 64.5439 19.4006 64.3276 18.9481C64.1114 18.4959 64.0034 17.9701 64.0034 17.3706C64.0034 16.741 64.1183 16.1903 64.3489 15.7186C64.5792 15.2471 64.9113 14.8828 65.3451 14.6254C65.7788 14.3686 66.2904 14.2398 66.88 14.2398C67.4437 14.2398 67.9291 14.3644 68.3359 14.613C68.7424 14.8622 69.0528 15.212 69.2663 15.6629C69.4801 16.114 69.5869 16.6364 69.5869 17.2304C69.5869 17.8711 69.4705 18.4281 69.2374 18.9008C69.0044 19.3736 68.6725 19.7382 68.2412 19.9937C67.81 20.2495 67.3036 20.3774 66.7218 20.3774C66.1606 20.3774 65.6752 20.2524 65.266 20.0022Z"/>
<path d="M72.1781 17.1478C72.4121 17.1478 72.6195 17.0992 72.7996 17.0013C72.9798 16.9039 73.1202 16.7663 73.2205 16.5889C73.3211 16.4115 73.3712 16.2059 73.3712 15.9723C73.3712 15.6727 73.2823 15.4533 73.1049 15.3144C72.9272 15.1756 72.6684 15.1062 72.3286 15.1062C71.9426 15.1062 71.6297 15.4191 71.6297 15.8051V16.5994C71.6297 16.9022 71.8752 17.1478 72.1781 17.1478ZM70.6644 16.0716C70.6644 15.1056 71.4475 14.3224 72.4136 14.3224C73.0519 14.3224 73.5354 14.4586 73.8636 14.7308C74.1917 15.0029 74.3558 15.3923 74.3558 15.8981C74.3558 16.2143 74.2965 16.4928 74.1781 16.7333C74.0598 16.9741 73.913 17.1699 73.738 17.3209C73.487 17.5376 73.3663 17.9182 73.5474 18.196L74.4464 19.575C74.6484 19.8847 74.4261 20.2949 74.0564 20.2949C73.8946 20.2949 73.7445 20.211 73.6597 20.0732L72.4737 18.1443C72.3907 18.0095 72.2438 17.9273 72.0854 17.9273C71.8337 17.9273 71.6297 18.1313 71.6297 18.383V19.8123C71.6297 20.0788 71.4136 20.2949 71.147 20.2949C70.8805 20.2949 70.6644 20.0788 70.6644 19.8123V16.0716Z"/>
<path d="M75.6804 15.8798C75.6804 15.0197 76.3777 14.3224 77.2378 14.3224H78.5005C78.7534 14.3224 78.9503 14.542 78.9229 14.7933C78.8994 15.0089 78.7174 15.1722 78.5005 15.1722H77.4686C77.0141 15.1722 76.6457 15.5405 76.6457 15.995C76.6457 16.4494 77.0141 16.8178 77.4686 16.8178H78.356C78.5758 16.8178 78.7541 16.996 78.7541 17.2159C78.7541 17.4357 78.5758 17.614 78.356 17.614H77.5573C77.0538 17.614 76.6457 18.0221 76.6457 18.5255C76.6457 19.0289 77.0538 19.437 77.5573 19.437H78.5298C78.7826 19.437 78.9806 19.6546 78.9568 19.9063C78.936 20.1266 78.7511 20.2949 78.5298 20.2949H77.3766C76.4399 20.2949 75.6804 19.5355 75.6804 18.5987V15.8798Z"/>
<path d="M82.5577 14.8051C82.5577 14.5385 82.7738 14.3224 83.0404 14.3224C83.3069 14.3224 83.523 14.5385 83.523 14.8051V19.8123C83.523 20.0788 83.3069 20.2949 83.0404 20.2949C82.7738 20.2949 82.5577 20.0788 82.5577 19.8123V14.8051Z"/>
<path d="M86.0754 16.0089C86.0754 15.5536 85.7064 15.1846 85.2511 15.1846H84.8172C84.5624 15.1846 84.3632 14.9647 84.3882 14.7112C84.41 14.4906 84.5955 14.3224 84.8172 14.3224H88.3007C88.5563 14.3224 88.7557 14.5435 88.7295 14.7977C88.7068 15.0175 88.5217 15.1846 88.3007 15.1846H87.9076C87.4288 15.1846 87.0407 15.5727 87.0407 16.0514V19.8123C87.0407 20.0788 86.8246 20.2949 86.5581 20.2949C86.2915 20.2949 86.0754 20.0788 86.0754 19.8123V16.0089Z"/>
<path d="M95.4705 19.2699C95.7406 19.0761 95.9427 18.8095 96.0767 18.4698C96.2104 18.1303 96.2773 17.7417 96.2773 17.3046C96.2773 16.8756 96.218 16.4936 96.0999 16.1578C95.9813 15.8223 95.792 15.5552 95.5323 15.3556C95.272 15.1563 94.9374 15.0565 94.5282 15.0565C94.1367 15.0565 93.8048 15.1576 93.5319 15.3598C93.2589 15.5618 93.0542 15.8329 92.9181 16.1724C92.7814 16.5121 92.7132 16.8867 92.7132 17.2964C92.7132 17.728 92.7775 18.1145 92.9065 18.4553C93.035 18.7963 93.2319 19.0658 93.4971 19.2638C93.7623 19.4618 94.0905 19.5608 94.4819 19.5608C94.8704 19.5608 95.2001 19.4637 95.4705 19.2699ZM92.9682 20.0022C92.5587 19.7519 92.2461 19.4006 92.0299 18.9481C91.8136 18.4959 91.7054 17.9701 91.7054 17.3706C91.7054 16.741 91.8205 16.1903 92.0511 15.7186C92.2812 15.2471 92.6134 14.8828 93.0473 14.6254C93.481 14.3686 93.9926 14.2398 94.5823 14.2398C95.146 14.2398 95.6311 14.3644 96.0381 14.613C96.4447 14.8622 96.7548 15.212 96.9686 15.6629C97.1821 16.114 97.2891 16.6364 97.2891 17.2304C97.2891 17.8711 97.1725 18.4281 96.9397 18.9008C96.7066 19.3736 96.3745 19.7382 95.9435 19.9937C95.5122 20.2495 95.0056 20.3774 94.4238 20.3774C93.8626 20.3774 93.3775 20.2524 92.9682 20.0022Z"/>
<path d="M98.3664 15.0296C98.3664 14.639 98.683 14.3224 99.0735 14.3224C99.3224 14.3224 99.5529 14.4532 99.6806 14.6668L101.616 17.9052C101.776 18.1739 102.205 18.0465 102.205 17.7335V14.7697C102.205 14.5227 102.406 14.3224 102.653 14.3224C102.9 14.3224 103.1 14.5227 103.1 14.7697V19.6107C103.1 19.9886 102.794 20.2949 102.416 20.2949C102.175 20.2949 101.952 20.1683 101.828 19.9614L99.9478 16.8116C99.7597 16.4967 99.2622 16.6447 99.2622 17.0116V19.847C99.2622 20.0944 99.0617 20.2949 98.8143 20.2949C98.5669 20.2949 98.3664 20.0944 98.3664 19.847V15.0296Z"/>
</mask>
<path d="M46.6113 15.8798C46.6113 15.0197 47.3086 14.3224 48.1687 14.3224H49.4314C49.6843 14.3224 49.8812 14.542 49.8538 14.7933C49.8303 15.0089 49.6482 15.1722 49.4314 15.1722H48.3995C47.945 15.1722 47.5766 15.5405 47.5766 15.995C47.5766 16.4494 47.945 16.8178 48.3995 16.8178H49.2869C49.5067 16.8178 49.6849 16.996 49.6849 17.2159C49.6849 17.4357 49.5067 17.614 49.2869 17.614H48.4882C47.9847 17.614 47.5766 18.0221 47.5766 18.5255C47.5766 19.0289 47.9847 19.437 48.4882 19.437H49.4607C49.7135 19.437 49.9115 19.6546 49.8877 19.9063C49.8669 20.1266 49.6819 20.2949 49.4607 20.2949H48.3075C47.3707 20.2949 46.6113 19.5355 46.6113 18.5987V15.8798Z" fill="white"/>
<path d="M51.7179 17.9886C51.9992 17.5326 52.004 16.958 51.7303 16.4974L50.8569 15.0275C50.672 14.7164 50.8962 14.3224 51.2581 14.3224C51.4285 14.3224 51.5854 14.4153 51.6673 14.5648L51.8288 14.8594C52.2163 15.5664 53.228 15.5774 53.6309 14.879L53.8204 14.5504C53.9018 14.4093 54.0523 14.3224 54.2151 14.3224C54.5688 14.3224 54.7877 14.7078 54.6065 15.0115L53.7333 16.4754C53.4637 16.9272 53.4654 17.4909 53.7376 17.9412L54.7274 19.5786C54.9176 19.8932 54.6911 20.2949 54.3234 20.2949C54.1534 20.2949 53.9965 20.2035 53.9127 20.0555L53.7155 19.7075C53.2736 18.9276 52.1515 18.9234 51.7038 19.6999L51.4905 20.0698C51.4102 20.2091 51.2617 20.2949 51.1009 20.2949C50.7489 20.2949 50.5334 19.9087 50.7182 19.6091L51.7179 17.9886Z" fill="white"/>
<path d="M58.2921 16.9889C58.498 16.7898 58.601 16.5084 58.601 16.1454C58.601 15.7769 58.496 15.5119 58.2864 15.3495C58.0766 15.1872 57.7682 15.1062 57.3616 15.1062C57.0716 15.1062 56.8365 15.3413 56.8365 15.6313V16.6661C56.8365 16.9896 57.0691 17.2879 57.3925 17.2879C57.7862 17.2879 58.0862 17.1884 58.2921 16.9889ZM55.8709 15.8284C55.8709 14.9967 56.5452 14.3224 57.377 14.3224C58.0848 14.3224 58.6267 14.4766 59.0026 14.7844C59.3785 15.0924 59.5663 15.5378 59.5663 16.1206C59.5663 16.5166 59.4821 16.8627 59.3135 17.1581C59.1447 17.4537 58.9099 17.6807 58.6087 17.8386C58.3077 17.997 57.9612 18.0759 57.57 18.0759C57.1876 18.0759 56.8365 18.3502 56.8365 18.7326V19.8121C56.8365 20.0788 56.6203 20.2949 56.3537 20.2949C56.0871 20.2949 55.8709 20.0788 55.8709 19.8121V15.8284Z" fill="white"/>
<path d="M60.5203 14.8051C60.5203 14.5385 60.7364 14.3224 61.0029 14.3224C61.2695 14.3224 61.4856 14.5385 61.4856 14.8051V18.3087C61.4856 18.9181 61.9796 19.4122 62.5891 19.4122H63.3148C63.5744 19.4122 63.778 19.6353 63.7543 19.8939C63.7334 20.1211 63.5429 20.2949 63.3148 20.2949H62.1921C61.2688 20.2949 60.5203 19.5464 60.5203 18.6231V14.8051Z" fill="white"/>
<path d="M67.7682 19.2699C68.0386 19.0761 68.2405 18.8095 68.3744 18.4698C68.5084 18.1303 68.5753 17.7417 68.5753 17.3046C68.5753 16.8756 68.516 16.4936 68.3976 16.1578C68.279 15.8223 68.09 15.5552 67.83 15.3556C67.57 15.1563 67.2354 15.0565 66.8259 15.0565C66.4347 15.0565 66.1025 15.1576 65.8297 15.3598C65.5569 15.5618 65.3522 15.8329 65.2158 16.1724C65.0794 16.5121 65.0112 16.8867 65.0112 17.2964C65.0112 17.728 65.0754 18.1145 65.2042 18.4553C65.3327 18.7963 65.5297 19.0658 65.7951 19.2638C66.06 19.4618 66.3882 19.5608 66.7797 19.5608C67.1684 19.5608 67.4978 19.4637 67.7682 19.2699ZM65.266 20.0022C64.8567 19.7519 64.5439 19.4006 64.3276 18.9481C64.1114 18.4959 64.0034 17.9701 64.0034 17.3706C64.0034 16.741 64.1183 16.1903 64.3489 15.7186C64.5792 15.2471 64.9113 14.8828 65.3451 14.6254C65.7788 14.3686 66.2904 14.2398 66.88 14.2398C67.4437 14.2398 67.9291 14.3644 68.3359 14.613C68.7424 14.8622 69.0528 15.212 69.2663 15.6629C69.4801 16.114 69.5869 16.6364 69.5869 17.2304C69.5869 17.8711 69.4705 18.4281 69.2374 18.9008C69.0044 19.3736 68.6725 19.7382 68.2412 19.9937C67.81 20.2495 67.3036 20.3774 66.7218 20.3774C66.1606 20.3774 65.6752 20.2524 65.266 20.0022Z" fill="white"/>
<path d="M72.1781 17.1478C72.4121 17.1478 72.6195 17.0992 72.7996 17.0013C72.9798 16.9039 73.1202 16.7663 73.2205 16.5889C73.3211 16.4115 73.3712 16.2059 73.3712 15.9723C73.3712 15.6727 73.2823 15.4533 73.1049 15.3144C72.9272 15.1756 72.6684 15.1062 72.3286 15.1062C71.9426 15.1062 71.6297 15.4191 71.6297 15.8051V16.5994C71.6297 16.9022 71.8752 17.1478 72.1781 17.1478ZM70.6644 16.0716C70.6644 15.1056 71.4475 14.3224 72.4136 14.3224C73.0519 14.3224 73.5354 14.4586 73.8636 14.7308C74.1917 15.0029 74.3558 15.3923 74.3558 15.8981C74.3558 16.2143 74.2965 16.4928 74.1781 16.7333C74.0598 16.9741 73.913 17.1699 73.738 17.3209C73.487 17.5376 73.3663 17.9182 73.5474 18.196L74.4464 19.575C74.6484 19.8847 74.4261 20.2949 74.0564 20.2949C73.8946 20.2949 73.7445 20.211 73.6597 20.0732L72.4737 18.1443C72.3907 18.0095 72.2438 17.9273 72.0854 17.9273C71.8337 17.9273 71.6297 18.1313 71.6297 18.383V19.8123C71.6297 20.0788 71.4136 20.2949 71.147 20.2949C70.8805 20.2949 70.6644 20.0788 70.6644 19.8123V16.0716Z" fill="white"/>
<path d="M75.6804 15.8798C75.6804 15.0197 76.3777 14.3224 77.2378 14.3224H78.5005C78.7534 14.3224 78.9503 14.542 78.9229 14.7933C78.8994 15.0089 78.7174 15.1722 78.5005 15.1722H77.4686C77.0141 15.1722 76.6457 15.5405 76.6457 15.995C76.6457 16.4494 77.0141 16.8178 77.4686 16.8178H78.356C78.5758 16.8178 78.7541 16.996 78.7541 17.2159C78.7541 17.4357 78.5758 17.614 78.356 17.614H77.5573C77.0538 17.614 76.6457 18.0221 76.6457 18.5255C76.6457 19.0289 77.0538 19.437 77.5573 19.437H78.5298C78.7826 19.437 78.9806 19.6546 78.9568 19.9063C78.936 20.1266 78.7511 20.2949 78.5298 20.2949H77.3766C76.4399 20.2949 75.6804 19.5355 75.6804 18.5987V15.8798Z" fill="white"/>
<path d="M82.5577 14.8051C82.5577 14.5385 82.7738 14.3224 83.0404 14.3224C83.3069 14.3224 83.523 14.5385 83.523 14.8051V19.8123C83.523 20.0788 83.3069 20.2949 83.0404 20.2949C82.7738 20.2949 82.5577 20.0788 82.5577 19.8123V14.8051Z" fill="white"/>
<path d="M86.0754 16.0089C86.0754 15.5536 85.7064 15.1846 85.2511 15.1846H84.8172C84.5624 15.1846 84.3632 14.9647 84.3882 14.7112C84.41 14.4906 84.5955 14.3224 84.8172 14.3224H88.3007C88.5563 14.3224 88.7557 14.5435 88.7295 14.7977C88.7068 15.0175 88.5217 15.1846 88.3007 15.1846H87.9076C87.4288 15.1846 87.0407 15.5727 87.0407 16.0514V19.8123C87.0407 20.0788 86.8246 20.2949 86.5581 20.2949C86.2915 20.2949 86.0754 20.0788 86.0754 19.8123V16.0089Z" fill="white"/>
<path d="M95.4705 19.2699C95.7406 19.0761 95.9427 18.8095 96.0767 18.4698C96.2104 18.1303 96.2773 17.7417 96.2773 17.3046C96.2773 16.8756 96.218 16.4936 96.0999 16.1578C95.9813 15.8223 95.792 15.5552 95.5323 15.3556C95.272 15.1563 94.9374 15.0565 94.5282 15.0565C94.1367 15.0565 93.8048 15.1576 93.5319 15.3598C93.2589 15.5618 93.0542 15.8329 92.9181 16.1724C92.7814 16.5121 92.7132 16.8867 92.7132 17.2964C92.7132 17.728 92.7775 18.1145 92.9065 18.4553C93.035 18.7963 93.2319 19.0658 93.4971 19.2638C93.7623 19.4618 94.0905 19.5608 94.4819 19.5608C94.8704 19.5608 95.2001 19.4637 95.4705 19.2699ZM92.9682 20.0022C92.5587 19.7519 92.2461 19.4006 92.0299 18.9481C91.8136 18.4959 91.7054 17.9701 91.7054 17.3706C91.7054 16.741 91.8205 16.1903 92.0511 15.7186C92.2812 15.2471 92.6134 14.8828 93.0473 14.6254C93.481 14.3686 93.9926 14.2398 94.5823 14.2398C95.146 14.2398 95.6311 14.3644 96.0381 14.613C96.4447 14.8622 96.7548 15.212 96.9686 15.6629C97.1821 16.114 97.2891 16.6364 97.2891 17.2304C97.2891 17.8711 97.1725 18.4281 96.9397 18.9008C96.7066 19.3736 96.3745 19.7382 95.9435 19.9937C95.5122 20.2495 95.0056 20.3774 94.4238 20.3774C93.8626 20.3774 93.3775 20.2524 92.9682 20.0022Z" fill="white"/>
<path d="M98.3664 15.0296C98.3664 14.639 98.683 14.3224 99.0735 14.3224C99.3224 14.3224 99.5529 14.4532 99.6806 14.6668L101.616 17.9052C101.776 18.1739 102.205 18.0465 102.205 17.7335V14.7697C102.205 14.5227 102.406 14.3224 102.653 14.3224C102.9 14.3224 103.1 14.5227 103.1 14.7697V19.6107C103.1 19.9886 102.794 20.2949 102.416 20.2949C102.175 20.2949 101.952 20.1683 101.828 19.9614L99.9478 16.8116C99.7597 16.4967 99.2622 16.6447 99.2622 17.0116V19.847C99.2622 20.0944 99.0617 20.2949 98.8143 20.2949C98.5669 20.2949 98.3664 20.0944 98.3664 19.847V15.0296Z" fill="white"/>
<path d="M46.6113 15.8798C46.6113 15.0197 47.3086 14.3224 48.1687 14.3224H49.4314C49.6843 14.3224 49.8812 14.542 49.8538 14.7933C49.8303 15.0089 49.6482 15.1722 49.4314 15.1722H48.3995C47.945 15.1722 47.5766 15.5405 47.5766 15.995C47.5766 16.4494 47.945 16.8178 48.3995 16.8178H49.2869C49.5067 16.8178 49.6849 16.996 49.6849 17.2159C49.6849 17.4357 49.5067 17.614 49.2869 17.614H48.4882C47.9847 17.614 47.5766 18.0221 47.5766 18.5255C47.5766 19.0289 47.9847 19.437 48.4882 19.437H49.4607C49.7135 19.437 49.9115 19.6546 49.8877 19.9063C49.8669 20.1266 49.6819 20.2949 49.4607 20.2949H48.3075C47.3707 20.2949 46.6113 19.5355 46.6113 18.5987V15.8798Z" stroke="url(#paint11_linear_514_2224)" stroke-width="2" mask="url(#path-3-inside-2_514_2224)"/>
<path d="M51.7179 17.9886C51.9992 17.5326 52.004 16.958 51.7303 16.4974L50.8569 15.0275C50.672 14.7164 50.8962 14.3224 51.2581 14.3224C51.4285 14.3224 51.5854 14.4153 51.6673 14.5648L51.8288 14.8594C52.2163 15.5664 53.228 15.5774 53.6309 14.879L53.8204 14.5504C53.9018 14.4093 54.0523 14.3224 54.2151 14.3224C54.5688 14.3224 54.7877 14.7078 54.6065 15.0115L53.7333 16.4754C53.4637 16.9272 53.4654 17.4909 53.7376 17.9412L54.7274 19.5786C54.9176 19.8932 54.6911 20.2949 54.3234 20.2949C54.1534 20.2949 53.9965 20.2035 53.9127 20.0555L53.7155 19.7075C53.2736 18.9276 52.1515 18.9234 51.7038 19.6999L51.4905 20.0698C51.4102 20.2091 51.2617 20.2949 51.1009 20.2949C50.7489 20.2949 50.5334 19.9087 50.7182 19.6091L51.7179 17.9886Z" stroke="url(#paint12_linear_514_2224)" stroke-width="2" mask="url(#path-3-inside-2_514_2224)"/>
<path d="M58.2921 16.9889C58.498 16.7898 58.601 16.5084 58.601 16.1454C58.601 15.7769 58.496 15.5119 58.2864 15.3495C58.0766 15.1872 57.7682 15.1062 57.3616 15.1062C57.0716 15.1062 56.8365 15.3413 56.8365 15.6313V16.6661C56.8365 16.9896 57.0691 17.2879 57.3925 17.2879C57.7862 17.2879 58.0862 17.1884 58.2921 16.9889ZM55.8709 15.8284C55.8709 14.9967 56.5452 14.3224 57.377 14.3224C58.0848 14.3224 58.6267 14.4766 59.0026 14.7844C59.3785 15.0924 59.5663 15.5378 59.5663 16.1206C59.5663 16.5166 59.4821 16.8627 59.3135 17.1581C59.1447 17.4537 58.9099 17.6807 58.6087 17.8386C58.3077 17.997 57.9612 18.0759 57.57 18.0759C57.1876 18.0759 56.8365 18.3502 56.8365 18.7326V19.8121C56.8365 20.0788 56.6203 20.2949 56.3537 20.2949C56.0871 20.2949 55.8709 20.0788 55.8709 19.8121V15.8284Z" stroke="url(#paint13_linear_514_2224)" stroke-width="2" mask="url(#path-3-inside-2_514_2224)"/>
<path d="M60.5203 14.8051C60.5203 14.5385 60.7364 14.3224 61.0029 14.3224C61.2695 14.3224 61.4856 14.5385 61.4856 14.8051V18.3087C61.4856 18.9181 61.9796 19.4122 62.5891 19.4122H63.3148C63.5744 19.4122 63.778 19.6353 63.7543 19.8939C63.7334 20.1211 63.5429 20.2949 63.3148 20.2949H62.1921C61.2688 20.2949 60.5203 19.5464 60.5203 18.6231V14.8051Z" stroke="url(#paint14_linear_514_2224)" stroke-width="2" mask="url(#path-3-inside-2_514_2224)"/>
<path d="M67.7682 19.2699C68.0386 19.0761 68.2405 18.8095 68.3744 18.4698C68.5084 18.1303 68.5753 17.7417 68.5753 17.3046C68.5753 16.8756 68.516 16.4936 68.3976 16.1578C68.279 15.8223 68.09 15.5552 67.83 15.3556C67.57 15.1563 67.2354 15.0565 66.8259 15.0565C66.4347 15.0565 66.1025 15.1576 65.8297 15.3598C65.5569 15.5618 65.3522 15.8329 65.2158 16.1724C65.0794 16.5121 65.0112 16.8867 65.0112 17.2964C65.0112 17.728 65.0754 18.1145 65.2042 18.4553C65.3327 18.7963 65.5297 19.0658 65.7951 19.2638C66.06 19.4618 66.3882 19.5608 66.7797 19.5608C67.1684 19.5608 67.4978 19.4637 67.7682 19.2699ZM65.266 20.0022C64.8567 19.7519 64.5439 19.4006 64.3276 18.9481C64.1114 18.4959 64.0034 17.9701 64.0034 17.3706C64.0034 16.741 64.1183 16.1903 64.3489 15.7186C64.5792 15.2471 64.9113 14.8828 65.3451 14.6254C65.7788 14.3686 66.2904 14.2398 66.88 14.2398C67.4437 14.2398 67.9291 14.3644 68.3359 14.613C68.7424 14.8622 69.0528 15.212 69.2663 15.6629C69.4801 16.114 69.5869 16.6364 69.5869 17.2304C69.5869 17.8711 69.4705 18.4281 69.2374 18.9008C69.0044 19.3736 68.6725 19.7382 68.2412 19.9937C67.81 20.2495 67.3036 20.3774 66.7218 20.3774C66.1606 20.3774 65.6752 20.2524 65.266 20.0022Z" stroke="url(#paint15_linear_514_2224)" stroke-width="2" mask="url(#path-3-inside-2_514_2224)"/>
<path d="M72.1781 17.1478C72.4121 17.1478 72.6195 17.0992 72.7996 17.0013C72.9798 16.9039 73.1202 16.7663 73.2205 16.5889C73.3211 16.4115 73.3712 16.2059 73.3712 15.9723C73.3712 15.6727 73.2823 15.4533 73.1049 15.3144C72.9272 15.1756 72.6684 15.1062 72.3286 15.1062C71.9426 15.1062 71.6297 15.4191 71.6297 15.8051V16.5994C71.6297 16.9022 71.8752 17.1478 72.1781 17.1478ZM70.6644 16.0716C70.6644 15.1056 71.4475 14.3224 72.4136 14.3224C73.0519 14.3224 73.5354 14.4586 73.8636 14.7308C74.1917 15.0029 74.3558 15.3923 74.3558 15.8981C74.3558 16.2143 74.2965 16.4928 74.1781 16.7333C74.0598 16.9741 73.913 17.1699 73.738 17.3209C73.487 17.5376 73.3663 17.9182 73.5474 18.196L74.4464 19.575C74.6484 19.8847 74.4261 20.2949 74.0564 20.2949C73.8946 20.2949 73.7445 20.211 73.6597 20.0732L72.4737 18.1443C72.3907 18.0095 72.2438 17.9273 72.0854 17.9273C71.8337 17.9273 71.6297 18.1313 71.6297 18.383V19.8123C71.6297 20.0788 71.4136 20.2949 71.147 20.2949C70.8805 20.2949 70.6644 20.0788 70.6644 19.8123V16.0716Z" stroke="url(#paint16_linear_514_2224)" stroke-width="2" mask="url(#path-3-inside-2_514_2224)"/>
<path d="M75.6804 15.8798C75.6804 15.0197 76.3777 14.3224 77.2378 14.3224H78.5005C78.7534 14.3224 78.9503 14.542 78.9229 14.7933C78.8994 15.0089 78.7174 15.1722 78.5005 15.1722H77.4686C77.0141 15.1722 76.6457 15.5405 76.6457 15.995C76.6457 16.4494 77.0141 16.8178 77.4686 16.8178H78.356C78.5758 16.8178 78.7541 16.996 78.7541 17.2159C78.7541 17.4357 78.5758 17.614 78.356 17.614H77.5573C77.0538 17.614 76.6457 18.0221 76.6457 18.5255C76.6457 19.0289 77.0538 19.437 77.5573 19.437H78.5298C78.7826 19.437 78.9806 19.6546 78.9568 19.9063C78.936 20.1266 78.7511 20.2949 78.5298 20.2949H77.3766C76.4399 20.2949 75.6804 19.5355 75.6804 18.5987V15.8798Z" stroke="url(#paint17_linear_514_2224)" stroke-width="2" mask="url(#path-3-inside-2_514_2224)"/>
<path d="M82.5577 14.8051C82.5577 14.5385 82.7738 14.3224 83.0404 14.3224C83.3069 14.3224 83.523 14.5385 83.523 14.8051V19.8123C83.523 20.0788 83.3069 20.2949 83.0404 20.2949C82.7738 20.2949 82.5577 20.0788 82.5577 19.8123V14.8051Z" stroke="url(#paint18_linear_514_2224)" stroke-width="2" mask="url(#path-3-inside-2_514_2224)"/>
<path d="M86.0754 16.0089C86.0754 15.5536 85.7064 15.1846 85.2511 15.1846H84.8172C84.5624 15.1846 84.3632 14.9647 84.3882 14.7112C84.41 14.4906 84.5955 14.3224 84.8172 14.3224H88.3007C88.5563 14.3224 88.7557 14.5435 88.7295 14.7977C88.7068 15.0175 88.5217 15.1846 88.3007 15.1846H87.9076C87.4288 15.1846 87.0407 15.5727 87.0407 16.0514V19.8123C87.0407 20.0788 86.8246 20.2949 86.5581 20.2949C86.2915 20.2949 86.0754 20.0788 86.0754 19.8123V16.0089Z" stroke="url(#paint19_linear_514_2224)" stroke-width="2" mask="url(#path-3-inside-2_514_2224)"/>
<path d="M95.4705 19.2699C95.7406 19.0761 95.9427 18.8095 96.0767 18.4698C96.2104 18.1303 96.2773 17.7417 96.2773 17.3046C96.2773 16.8756 96.218 16.4936 96.0999 16.1578C95.9813 15.8223 95.792 15.5552 95.5323 15.3556C95.272 15.1563 94.9374 15.0565 94.5282 15.0565C94.1367 15.0565 93.8048 15.1576 93.5319 15.3598C93.2589 15.5618 93.0542 15.8329 92.9181 16.1724C92.7814 16.5121 92.7132 16.8867 92.7132 17.2964C92.7132 17.728 92.7775 18.1145 92.9065 18.4553C93.035 18.7963 93.2319 19.0658 93.4971 19.2638C93.7623 19.4618 94.0905 19.5608 94.4819 19.5608C94.8704 19.5608 95.2001 19.4637 95.4705 19.2699ZM92.9682 20.0022C92.5587 19.7519 92.2461 19.4006 92.0299 18.9481C91.8136 18.4959 91.7054 17.9701 91.7054 17.3706C91.7054 16.741 91.8205 16.1903 92.0511 15.7186C92.2812 15.2471 92.6134 14.8828 93.0473 14.6254C93.481 14.3686 93.9926 14.2398 94.5823 14.2398C95.146 14.2398 95.6311 14.3644 96.0381 14.613C96.4447 14.8622 96.7548 15.212 96.9686 15.6629C97.1821 16.114 97.2891 16.6364 97.2891 17.2304C97.2891 17.8711 97.1725 18.4281 96.9397 18.9008C96.7066 19.3736 96.3745 19.7382 95.9435 19.9937C95.5122 20.2495 95.0056 20.3774 94.4238 20.3774C93.8626 20.3774 93.3775 20.2524 92.9682 20.0022Z" stroke="url(#paint20_linear_514_2224)" stroke-width="2" mask="url(#path-3-inside-2_514_2224)"/>
<path d="M98.3664 15.0296C98.3664 14.639 98.683 14.3224 99.0735 14.3224C99.3224 14.3224 99.5529 14.4532 99.6806 14.6668L101.616 17.9052C101.776 18.1739 102.205 18.0465 102.205 17.7335V14.7697C102.205 14.5227 102.406 14.3224 102.653 14.3224C102.9 14.3224 103.1 14.5227 103.1 14.7697V19.6107C103.1 19.9886 102.794 20.2949 102.416 20.2949C102.175 20.2949 101.952 20.1683 101.828 19.9614L99.9478 16.8116C99.7597 16.4967 99.2622 16.6447 99.2622 17.0116V19.847C99.2622 20.0944 99.0617 20.2949 98.8143 20.2949C98.5669 20.2949 98.3664 20.0944 98.3664 19.847V15.0296Z" stroke="url(#paint21_linear_514_2224)" stroke-width="2" mask="url(#path-3-inside-2_514_2224)"/>
<mask id="path-4-inside-3_514_2224" fill="white">
<path fill-rule="evenodd" clip-rule="evenodd" d="M33.2311 14.3746H21.6308C16.1663 14.3746 14.1676 16.4481 14.1676 22.1171V34.1517C14.1676 39.8206 16.1663 41.894 21.6308 41.894H33.2275C38.692 41.894 40.6944 39.8206 40.6944 34.1517V22.1171C40.6944 16.4481 38.6956 14.3746 33.2311 14.3746Z"/>
</mask>
<path fill-rule="evenodd" clip-rule="evenodd" d="M33.2311 14.3746H21.6308C16.1663 14.3746 14.1676 16.4481 14.1676 22.1171V34.1517C14.1676 39.8206 16.1663 41.894 21.6308 41.894H33.2275C38.692 41.894 40.6944 39.8206 40.6944 34.1517V22.1171C40.6944 16.4481 38.6956 14.3746 33.2311 14.3746Z" fill="#C91C2E"/>
<path d="M33.2311 15.3746H21.6308V13.3746H33.2311V15.3746ZM21.6308 15.3746C18.9831 15.3746 17.4652 15.8853 16.57 16.814C15.6651 17.7527 15.1676 19.3528 15.1676 22.1171H13.1676C13.1676 19.2124 13.6694 16.9412 15.1301 15.426C16.6003 13.9007 18.814 13.3746 21.6308 13.3746V15.3746ZM15.1676 22.1171V34.1517H13.1676V22.1171H15.1676ZM15.1676 34.1517C15.1676 36.9159 15.6651 38.516 16.57 39.4547C17.4652 40.3834 18.9831 40.894 21.6308 40.894V42.894C18.814 42.894 16.6003 42.368 15.1301 40.8427C13.6694 39.3275 13.1676 37.0563 13.1676 34.1517H15.1676ZM21.6308 40.894H33.2275V42.894H21.6308V40.894ZM33.2275 40.894C35.8752 40.894 37.3943 40.3834 38.2904 39.4544C39.1961 38.5156 39.6944 36.9156 39.6944 34.1517H41.6944C41.6944 37.0567 41.1915 39.3278 39.7298 40.843C38.2587 42.3679 36.0444 42.894 33.2275 42.894V40.894ZM39.6944 34.1517V22.1171H41.6944V34.1517H39.6944ZM39.6944 22.1171C39.6944 19.3528 39.1968 17.7527 38.292 16.814C37.3968 15.8853 35.8788 15.3746 33.2311 15.3746V13.3746C36.0479 13.3746 38.2616 13.9007 39.7319 15.426C41.1925 16.9412 41.6944 19.2124 41.6944 22.1171H39.6944Z" fill="url(#paint22_linear_514_2224)" mask="url(#path-4-inside-3_514_2224)"/>
<path d="M25.0279 31.027L25.1924 31.0943L25.1923 31.0943L25.1922 31.0943L25.0279 31.027L25.0281 31.0265C25.028 31.0267 25.0279 31.0268 25.0279 31.027ZM25.7787 30.1394L25.7392 30.235C25.7684 30.2243 25.7981 30.2148 25.8283 30.2065C25.8107 30.1849 25.7941 30.1625 25.7787 30.1394ZM27.204 30.1224C27.1856 30.1515 27.1654 30.1796 27.1436 30.2063C27.181 30.2166 27.2176 30.2287 27.2535 30.2428L27.204 30.1224ZM26.3167 28.8357C26.4355 28.8123 26.5588 28.8139 26.6771 28.8404L26.4963 28.4005L26.3167 28.8357ZM34.0874 29.5241V29.6011C34.1034 29.5872 34.1199 29.5738 34.1369 29.5609C34.1199 29.5492 34.1034 29.5369 34.0874 29.5241ZM31.5762 30.6899L32.088 29.1182C31.5484 29.3819 30.8209 29.2023 30.5375 28.5775C30.2508 29.2099 29.5089 29.3859 28.9678 29.1078L29.4824 30.6839C29.8844 29.7925 31.1781 29.7946 31.5762 30.6899ZM20.0135 29.8636V29.3679C19.9245 29.4661 19.8199 29.5499 19.7035 29.6153C19.8199 29.681 19.9245 29.7651 20.0135 29.8636ZM18.1028 29.8639C18.1918 29.7652 18.2965 29.681 18.413 29.6153C18.2965 29.5498 18.1918 29.466 18.1028 29.3676V29.8639ZM27.6262 31.1497C27.6263 31.1498 27.6264 31.15 27.6264 31.1501L27.6262 31.1497Z" fill="white" stroke="url(#paint23_linear_514_2224)"/>
<mask id="path-7-inside-4_514_2224" fill="white">
<path d="M27.6123 23.2373C25.3424 23.2373 23.4786 21.3441 23.332 18.9584C23.3218 18.7914 23.4584 18.6553 23.6258 18.6553C23.7931 18.6553 23.9276 18.7915 23.9396 18.9584C24.0849 20.9868 25.6765 22.59 27.6123 22.59C29.5481 22.59 31.1397 20.9868 31.285 18.9584C31.2969 18.7915 31.4314 18.6553 31.5988 18.6553C31.7661 18.6553 31.9028 18.7914 31.8925 18.9584C31.7459 21.3441 29.8821 23.2373 27.6123 23.2373Z"/>
</mask>
<path d="M27.6123 23.2373C25.3424 23.2373 23.4786 21.3441 23.332 18.9584C23.3218 18.7914 23.4584 18.6553 23.6258 18.6553C23.7931 18.6553 23.9276 18.7915 23.9396 18.9584C24.0849 20.9868 25.6765 22.59 27.6123 22.59C29.5481 22.59 31.1397 20.9868 31.285 18.9584C31.2969 18.7915 31.4314 18.6553 31.5988 18.6553C31.7661 18.6553 31.9028 18.7914 31.8925 18.9584C31.7459 21.3441 29.8821 23.2373 27.6123 23.2373Z" fill="white"/>
<path d="M31.8925 18.9584L30.8944 18.8971L31.8925 18.9584ZM31.285 18.9584L30.2875 18.8869L31.285 18.9584ZM23.9396 18.9584L22.9421 19.0298L23.9396 18.9584ZM23.332 18.9584L22.3339 19.0197L23.332 18.9584ZM27.6123 24.2373C24.7547 24.2373 22.5091 21.8716 22.3339 19.0197L24.3302 18.8971C24.4481 20.8165 25.9301 22.2373 27.6123 22.2373V24.2373ZM24.937 18.8869C25.0492 20.4531 26.26 21.59 27.6123 21.59V23.59C25.093 23.59 23.1206 21.5206 22.9421 19.0298L24.937 18.8869ZM27.6123 21.59C28.9646 21.59 30.1753 20.4531 30.2875 18.8869L32.2824 19.0298C32.104 21.5206 30.1315 23.59 27.6123 23.59V21.59ZM32.8906 19.0197C32.7154 21.8716 30.4698 24.2373 27.6123 24.2373V22.2373C29.2944 22.2373 30.7765 20.8165 30.8944 18.8971L32.8906 19.0197ZM31.5988 17.6553C32.3021 17.6553 32.9387 18.2378 32.8906 19.0197L30.8944 18.8971C30.8669 19.345 31.2301 19.6553 31.5988 19.6553V17.6553ZM30.2875 18.8869C30.3336 18.2436 30.8612 17.6553 31.5988 17.6553V19.6553C32.0017 19.6553 32.2602 19.3393 32.2824 19.0298L30.2875 18.8869ZM23.6258 17.6553C24.3633 17.6553 24.8909 18.2436 24.937 18.8869L22.9421 19.0298C22.9643 19.3393 23.2229 19.6553 23.6258 19.6553V17.6553ZM22.3339 19.0197C22.2859 18.2378 22.9224 17.6553 23.6258 17.6553V19.6553C23.9944 19.6553 24.3577 19.345 24.3302 18.8971L22.3339 19.0197Z" fill="url(#paint24_linear_514_2224)" mask="url(#path-7-inside-4_514_2224)"/>
<defs>
<linearGradient id="paint0_linear_514_2224" x1="70.8017" y1="0" x2="70.8017" y2="54.0197" gradientUnits="userSpaceOnUse">
<stop stop-color="white"/>
<stop offset="1" stop-color="white" stop-opacity="0"/>
</linearGradient>
<linearGradient id="paint1_linear_514_2224" x1="88.119" y1="24.7519" x2="88.119" y2="42.0288" gradientUnits="userSpaceOnUse">
<stop stop-color="white"/>
<stop offset="1" stop-color="white" stop-opacity="0"/>
</linearGradient>
<linearGradient id="paint2_linear_514_2224" x1="88.119" y1="24.7519" x2="88.119" y2="42.0288" gradientUnits="userSpaceOnUse">
<stop stop-color="white"/>
<stop offset="1" stop-color="white" stop-opacity="0"/>
</linearGradient>
<linearGradient id="paint3_linear_514_2224" x1="88.119" y1="24.7519" x2="88.119" y2="42.0288" gradientUnits="userSpaceOnUse">
<stop stop-color="white"/>
<stop offset="1" stop-color="white" stop-opacity="0"/>
</linearGradient>
<linearGradient id="paint4_linear_514_2224" x1="88.119" y1="24.7519" x2="88.119" y2="42.0288" gradientUnits="userSpaceOnUse">
<stop stop-color="white"/>
<stop offset="1" stop-color="white" stop-opacity="0"/>
</linearGradient>
<linearGradient id="paint5_linear_514_2224" x1="88.119" y1="24.7519" x2="88.119" y2="42.0288" gradientUnits="userSpaceOnUse">
<stop stop-color="white"/>
<stop offset="1" stop-color="white" stop-opacity="0"/>
</linearGradient>
<linearGradient id="paint6_linear_514_2224" x1="88.119" y1="24.7519" x2="88.119" y2="42.0288" gradientUnits="userSpaceOnUse">
<stop stop-color="white"/>
<stop offset="1" stop-color="white" stop-opacity="0"/>
</linearGradient>
<linearGradient id="paint7_linear_514_2224" x1="88.119" y1="24.7519" x2="88.119" y2="42.0288" gradientUnits="userSpaceOnUse">
<stop stop-color="white"/>
<stop offset="1" stop-color="white" stop-opacity="0"/>
</linearGradient>
<linearGradient id="paint8_linear_514_2224" x1="88.119" y1="24.7519" x2="88.119" y2="42.0288" gradientUnits="userSpaceOnUse">
<stop stop-color="white"/>
<stop offset="1" stop-color="white" stop-opacity="0"/>
</linearGradient>
<linearGradient id="paint9_linear_514_2224" x1="88.119" y1="24.7519" x2="88.119" y2="42.0288" gradientUnits="userSpaceOnUse">
<stop stop-color="white"/>
<stop offset="1" stop-color="white" stop-opacity="0"/>
</linearGradient>
<linearGradient id="paint10_linear_514_2224" x1="88.119" y1="24.7519" x2="88.119" y2="42.0288" gradientUnits="userSpaceOnUse">
<stop stop-color="white"/>
<stop offset="1" stop-color="white" stop-opacity="0"/>
</linearGradient>
<linearGradient id="paint11_linear_514_2224" x1="74.8557" y1="14.2398" x2="74.8557" y2="20.3774" gradientUnits="userSpaceOnUse">
<stop stop-color="white"/>
<stop offset="1" stop-color="white" stop-opacity="0"/>
</linearGradient>
<linearGradient id="paint12_linear_514_2224" x1="74.8557" y1="14.2398" x2="74.8557" y2="20.3774" gradientUnits="userSpaceOnUse">
<stop stop-color="white"/>
<stop offset="1" stop-color="white" stop-opacity="0"/>
</linearGradient>
<linearGradient id="paint13_linear_514_2224" x1="74.8557" y1="14.2398" x2="74.8557" y2="20.3774" gradientUnits="userSpaceOnUse">
<stop stop-color="white"/>
<stop offset="1" stop-color="white" stop-opacity="0"/>
</linearGradient>
<linearGradient id="paint14_linear_514_2224" x1="74.8557" y1="14.2398" x2="74.8557" y2="20.3774" gradientUnits="userSpaceOnUse">
<stop stop-color="white"/>
<stop offset="1" stop-color="white" stop-opacity="0"/>
</linearGradient>
<linearGradient id="paint15_linear_514_2224" x1="74.8557" y1="14.2398" x2="74.8557" y2="20.3774" gradientUnits="userSpaceOnUse">
<stop stop-color="white"/>
<stop offset="1" stop-color="white" stop-opacity="0"/>
</linearGradient>
<linearGradient id="paint16_linear_514_2224" x1="74.8557" y1="14.2398" x2="74.8557" y2="20.3774" gradientUnits="userSpaceOnUse">
<stop stop-color="white"/>
<stop offset="1" stop-color="white" stop-opacity="0"/>
</linearGradient>
<linearGradient id="paint17_linear_514_2224" x1="74.8557" y1="14.2398" x2="74.8557" y2="20.3774" gradientUnits="userSpaceOnUse">
<stop stop-color="white"/>
<stop offset="1" stop-color="white" stop-opacity="0"/>
</linearGradient>
<linearGradient id="paint18_linear_514_2224" x1="74.8557" y1="14.2398" x2="74.8557" y2="20.3774" gradientUnits="userSpaceOnUse">
<stop stop-color="white"/>
<stop offset="1" stop-color="white" stop-opacity="0"/>
</linearGradient>
<linearGradient id="paint19_linear_514_2224" x1="74.8557" y1="14.2398" x2="74.8557" y2="20.3774" gradientUnits="userSpaceOnUse">
<stop stop-color="white"/>
<stop offset="1" stop-color="white" stop-opacity="0"/>
</linearGradient>
<linearGradient id="paint20_linear_514_2224" x1="74.8557" y1="14.2398" x2="74.8557" y2="20.3774" gradientUnits="userSpaceOnUse">
<stop stop-color="white"/>
<stop offset="1" stop-color="white" stop-opacity="0"/>
</linearGradient>
<linearGradient id="paint21_linear_514_2224" x1="74.8557" y1="14.2398" x2="74.8557" y2="20.3774" gradientUnits="userSpaceOnUse">
<stop stop-color="white"/>
<stop offset="1" stop-color="white" stop-opacity="0"/>
</linearGradient>
<linearGradient id="paint22_linear_514_2224" x1="27.431" y1="41.894" x2="27.431" y2="14.3746" gradientUnits="userSpaceOnUse">
<stop stop-color="white"/>
<stop offset="1" stop-color="white" stop-opacity="0"/>
</linearGradient>
<linearGradient id="paint23_linear_514_2224" x1="27.6119" y1="31.4724" x2="27.6119" y2="27.8195" gradientUnits="userSpaceOnUse">
<stop stop-color="white"/>
<stop offset="1" stop-color="white" stop-opacity="0"/>
</linearGradient>
<linearGradient id="paint24_linear_514_2224" x1="27.6123" y1="23.2373" x2="27.6123" y2="18.6553" gradientUnits="userSpaceOnUse">
<stop stop-color="white"/>
<stop offset="1" stop-color="white" stop-opacity="0"/>
</linearGradient>
</defs>
</svg>
