<svg width="23" height="30" viewBox="0 0 23 30" fill="none" xmlns="http://www.w3.org/2000/svg">
<path d="M19.1733 15.9551C19.1757 15.7472 19.1872 15.5404 19.2074 15.3352C19.5334 12.0279 20.4691 7.50157 17.1477 7.38771C15.0669 7.14838 13.0496 8.75207 11.9893 8.75207C10.9084 8.75207 9.27583 7.41147 7.51781 7.4511C5.22631 7.53222 3.09005 8.9598 1.97519 11.155C-0.421333 15.7015 1.36625 22.3833 3.66192 26.0584C4.81049 27.858 6.15283 29.8681 7.90927 29.7968C9.62805 29.7187 10.27 28.5959 12.3447 28.5959C14.4001 28.5959 15.0024 29.7968 16.7945 29.7515C18.6388 29.7187 19.8008 27.944 20.9091 26.1273C22.3496 23.889 20.7372 21.0836 19.7109 18.6276C19.3649 17.7996 19.1742 16.8897 19.1733 15.9551Z" fill="white"/>
<path d="M15.7883 4.97081C15.8602 4.87626 15.9295 4.77977 15.9961 4.68148C17.4294 2.56733 14.7918 0.491348 13.1947 2.48466C13.1537 2.53577 13.1135 2.58761 13.0742 2.64013C11.4902 4.75401 14.2257 7.10051 15.7883 4.97081Z" fill="white"/>
</svg>
