<svg width="138" height="57" viewBox="0 0 138 57" fill="none" xmlns="http://www.w3.org/2000/svg">
<rect x="-0.5" y="0.5" width="137" height="55.0232" rx="10.5" transform="matrix(1 0 0 -1 1 56.1477)" fill="#090909" stroke="url(#paint0_linear_478_31)"/>
<g filter="url(#filter0_ii_478_31)">
<path d="M14.5739 14.8047C14.28 15.1375 14.1063 15.654 14.1063 16.3228V40.2183C14.1063 40.8882 14.28 41.4036 14.5739 41.7364C14.6145 41.7787 14.6822 41.7782 14.7223 41.7354L27.0518 28.5436C27.121 28.4695 27.1595 28.3719 27.1595 28.2706C27.1595 28.1692 27.121 28.0716 27.0518 27.9976L14.7228 14.8052C14.6826 14.7622 14.6144 14.762 14.5739 14.8047Z" fill="url(#paint1_linear_478_31)"/>
<path d="M31.4237 32.8351C31.3683 32.8679 31.2975 32.8577 31.2535 32.8107L27.2669 28.5431C27.1977 28.4691 27.1592 28.3715 27.1592 28.2701C27.1592 28.1688 27.1977 28.0712 27.2669 27.9971L31.2547 23.7304C31.2985 23.6836 31.3691 23.674 31.4237 23.7073L36.3649 26.711C37.7756 27.5689 37.7756 28.9724 36.3649 29.8314L31.4237 32.8351Z" fill="url(#paint2_linear_478_31)"/>
<g filter="url(#filter1_i_478_31)">
<path d="M28.5696 34.5694C30.0419 33.6743 30.3195 31.6523 29.143 30.3935C28.0693 29.2447 26.2475 29.2447 25.1739 30.3936L16.1406 40.0593C15.2517 41.0104 15.5592 42.4782 16.6722 41.8029L28.5696 34.5694Z" fill="url(#paint3_linear_478_31)"/>
</g>
<path d="M29.1439 26.1471C30.32 24.8881 30.0422 22.8664 28.57 21.9715L16.6722 14.7386C15.5597 14.0622 15.2519 15.5312 16.1409 16.4824L25.1743 26.1475C26.2482 27.2965 28.0703 27.2963 29.1439 26.1471Z" fill="url(#paint4_linear_478_31)"/>
</g>
<path d="M69.1544 29.5776C66.9111 29.5776 65.0827 31.3952 65.0827 33.8986C65.0827 36.3867 66.9111 38.2196 69.1544 38.2196C71.3986 38.2196 73.2269 36.3867 73.2269 33.8986C73.226 31.3952 71.3976 29.5776 69.1544 29.5776ZM69.1544 36.5188C67.925 36.5188 66.8653 35.4388 66.8653 33.8996C66.8653 32.3442 67.9259 31.2804 69.1544 31.2804C70.3838 31.2804 71.4434 32.3442 71.4434 33.8996C71.4434 35.4378 70.3838 36.5188 69.1544 36.5188ZM60.271 29.5776C58.0278 29.5776 56.1994 31.3952 56.1994 33.8986C56.1994 36.3867 58.0278 38.2196 60.271 38.2196C62.5152 38.2196 64.3436 36.3867 64.3436 33.8986C64.3436 31.3952 62.5152 29.5776 60.271 29.5776ZM60.271 36.5188C59.0416 36.5188 57.982 35.4388 57.982 33.8996C57.982 32.3442 59.0426 31.2804 60.271 31.2804C61.5004 31.2804 62.56 32.3442 62.56 33.8996C62.561 35.4378 61.5004 36.5188 60.271 36.5188ZM50.6216 30.9043C50.1155 30.9044 49.7052 31.3147 49.7052 31.8208C49.7052 32.327 50.1156 32.7373 50.6217 32.7373H51.642C52.8026 32.7373 53.7945 33.8365 53.1103 34.774C53.04 34.8703 52.9652 34.9604 52.886 35.0446C52.2871 35.6827 51.3495 36.3867 49.7052 36.3867C47.1701 36.3867 45.1882 34.2095 45.1882 31.509C45.1882 28.8085 47.1701 26.6313 49.7052 26.6313C50.6787 26.6313 51.4652 26.9216 52.1036 27.3546C52.5195 27.6367 53.0934 27.6377 53.4374 27.2712C53.7645 26.9228 53.7625 26.372 53.389 26.0739C52.4461 25.3211 51.2563 24.7985 49.7052 24.7985C46.2326 24.7985 43.3131 27.8098 43.3131 31.509C43.3131 35.2082 46.2326 38.2196 49.7052 38.2196C51.5794 38.2196 52.9938 37.5643 54.0992 36.337C55.2361 35.1259 55.5899 33.4231 55.5899 32.0485C55.5899 31.3812 55.0144 30.9036 54.3471 30.9037L50.6216 30.9043ZM92.9183 32.3279C92.5807 31.3627 91.5506 29.5776 89.4456 29.5776C87.356 29.5776 85.6192 31.3292 85.6192 33.8986C85.6192 36.3207 87.3407 38.2196 89.645 38.2196C91.0103 38.2196 91.9532 37.5663 92.5345 36.9404C92.8417 36.6096 92.7376 36.0995 92.3696 35.8381C91.9742 35.5572 91.4371 35.6838 91.0684 35.999C90.6877 36.3245 90.2224 36.5168 89.645 36.5168C88.2708 36.5168 88.719 34.7487 89.9765 34.1947L92.6236 33.0285C92.8922 32.9102 93.0216 32.6026 92.9183 32.3279ZM89.6101 32.7851C88.5494 33.2542 87.4243 32.3293 88.3635 31.6486C88.7313 31.3821 89.1473 31.2479 89.5076 31.2479C89.6233 31.2479 89.7361 31.258 89.8448 31.2773C90.6938 31.4278 90.3987 32.4363 89.6101 32.7851ZM82.9772 37.0676C82.9772 37.5596 83.3761 37.9585 83.868 37.9585C84.36 37.9585 84.7589 37.5596 84.7589 37.0677V26.1485C84.7589 25.6565 84.36 25.2577 83.868 25.2577C83.3761 25.2577 82.9772 25.6565 82.9772 26.1485V37.0676ZM80.0569 30.5028C80.0568 30.5255 80.0384 30.5438 80.0157 30.5438C80.0031 30.5438 79.9913 30.5381 79.9834 30.5283C79.5804 30.0265 78.8175 29.5776 77.8603 29.5776C75.8316 29.5776 73.9728 31.4765 73.9728 33.9159C73.9728 36.338 75.8316 38.2206 77.8603 38.2206C78.8185 38.2206 79.5805 37.7716 79.9835 37.2551C79.9913 37.245 80.0032 37.2392 80.016 37.2392C80.0385 37.2392 80.0568 37.2574 80.0568 37.28V37.8609C80.0568 39.5139 79.227 40.3978 77.8908 40.3978C77.1891 40.3978 76.659 40.0528 76.2964 39.6193C75.9863 39.2486 75.4783 39.023 75.0364 39.2189C74.6216 39.4028 74.4188 39.8858 74.6616 40.2691C75.2575 41.2098 76.3259 42.1006 77.8908 42.1006C79.9805 42.1006 81.7478 40.791 81.7478 37.5988V30.6864C81.7478 30.2194 81.3692 29.8408 80.9022 29.8408H80.4093C80.2151 29.8408 80.0575 29.9981 80.0573 30.1923L80.0569 30.5028ZM78.0139 36.5188C76.7845 36.5188 75.7553 35.4216 75.7553 33.9159C75.7553 32.3929 76.7845 31.2804 78.0139 31.2804C79.227 31.2804 80.1798 32.3929 80.1798 33.9159C80.1798 35.4216 79.227 36.5188 78.0139 36.5188ZM101.268 25.2577C98.9124 25.2577 97.0033 27.1669 97.0033 29.522V37.0691C97.0033 37.5603 97.4014 37.9585 97.8926 37.9585C98.3838 37.9585 98.782 37.5603 98.782 37.0691V35.5526C98.782 34.2239 99.8592 33.1468 101.188 33.1468H101.267C103.239 33.1468 105.179 31.6259 105.179 29.2027C105.179 26.7796 103.24 25.2577 101.268 25.2577ZM101.313 31.379H100.959C99.7566 31.379 98.782 30.4044 98.782 29.2022C98.782 28.0001 99.7566 27.0255 100.959 27.0255H101.313C102.644 27.0255 103.399 28.199 103.399 29.2027C103.399 30.1862 102.644 31.379 101.313 31.379ZM112.312 29.5553C111.292 29.5553 110.243 29.9343 109.576 30.7575C109.273 31.1318 109.488 31.6557 109.928 31.8514C110.367 32.0466 110.868 31.8176 111.27 31.5538C111.583 31.3486 111.958 31.2703 112.343 31.2703C113.263 31.2703 114.199 31.8585 114.214 32.904C114.214 32.9614 114.151 32.9974 114.1 32.9704C113.745 32.7804 113.112 32.5453 112.358 32.5453C110.655 32.5453 108.921 33.542 108.921 35.4043C108.921 37.104 110.318 38.1982 111.882 38.1982C113.067 38.1982 113.726 37.6368 114.14 36.9742C114.148 36.9627 114.16 36.9557 114.174 36.9557C114.195 36.9557 114.213 36.9732 114.213 36.9949V37.4459C114.213 37.7166 114.432 37.9361 114.703 37.9361H115.072C115.547 37.9361 115.932 37.5514 115.932 37.0768V33.0665C115.933 30.8131 114.351 29.5553 112.312 29.5553ZM112.097 36.5158C111.515 36.5158 110.701 36.2049 110.701 35.4368C110.701 34.4564 111.714 34.0805 112.589 34.0805C113.612 34.0805 114.218 35.3057 113.453 35.9847C113.075 36.3202 112.595 36.5158 112.097 36.5158ZM122.821 29.8326C122.442 29.8326 122.103 30.0685 121.971 30.4238L120.161 35.3105C120.154 35.3278 120.138 35.3393 120.119 35.3393C120.101 35.3393 120.085 35.328 120.078 35.311L118.188 30.3961C118.058 30.0567 117.732 29.8326 117.368 29.8326C116.742 29.8326 116.317 30.4682 116.556 31.0468L118.845 36.5969C119.091 37.1932 119.088 37.863 118.837 38.4571L117.92 40.6272C117.682 41.1885 118.094 41.8101 118.704 41.8101C119.05 41.8101 119.361 41.6009 119.492 41.2807L123.659 31.0811C123.903 30.4852 123.464 29.8326 122.821 29.8326ZM106.161 37.0691C106.161 37.5603 106.559 37.9585 107.051 37.9585C107.542 37.9585 107.94 37.5603 107.94 37.0691V26.1471C107.94 25.6559 107.542 25.2577 107.051 25.2577C106.559 25.2577 106.161 25.6559 106.161 26.1471V37.0691Z" fill="white"/>
<path d="M49.4832 17.7452C49.4832 18.5812 49.2469 19.2466 48.7733 19.7434C48.2359 20.3339 47.5345 20.6292 46.6731 20.6292C45.8479 20.6292 45.1456 20.3299 44.5691 19.7314C43.9916 19.1319 43.7029 18.3897 43.7029 17.5038C43.7029 16.617 43.9916 15.8748 44.5691 15.2762C45.1456 14.6767 45.8479 14.3774 46.6731 14.3774C47.0828 14.3774 47.4745 14.4612 47.8461 14.6278C48.1097 14.7464 48.3362 14.8924 48.525 15.0663C48.6577 15.1885 48.6471 15.3936 48.5226 15.5242C48.3719 15.6822 48.118 15.6672 47.9488 15.5293C47.6076 15.2514 47.1824 15.1126 46.6721 15.1126C46.0699 15.1126 45.5496 15.3341 45.1103 15.777C44.671 16.2199 44.4519 16.7955 44.4519 17.5028C44.4519 18.2101 44.671 18.7857 45.1103 19.2286C45.5496 19.6715 46.0699 19.893 46.6721 19.893C47.3106 19.893 47.8433 19.6705 48.2692 19.2246C48.3259 19.1651 48.3777 19.1007 48.4246 19.0316C48.7514 18.5499 48.2495 18.0126 47.6674 18.0126H47.0318C46.8332 18.0126 46.6721 17.8516 46.6721 17.653C46.6721 17.4543 46.8332 17.2933 47.0318 17.2933H48.9879C49.251 17.2933 49.4832 17.4821 49.4832 17.7452Z" fill="white"/>
<path d="M53.8762 14.8778C53.8762 15.0808 53.7116 15.2454 53.5086 15.2454H52.2216C51.6976 15.2454 51.2729 15.6701 51.2729 16.1941C51.2729 16.718 51.6976 17.1428 52.2216 17.1428H53.2612C53.4598 17.1428 53.6208 17.3038 53.6208 17.5024C53.6208 17.701 53.4598 17.862 53.2612 17.862H52.2216C51.6976 17.862 51.2729 18.2867 51.2729 18.8107C51.2729 19.3346 51.6976 19.7594 52.2216 19.7594H53.5081C53.7114 19.7594 53.8762 19.9242 53.8762 20.1275C53.8762 20.3308 53.7114 20.4956 53.5081 20.4956H52.2072C51.2854 20.4956 50.5382 19.7484 50.5382 18.8266V16.1792C50.5382 15.2574 51.2854 14.5102 52.2072 14.5102H53.5086C53.7116 14.5102 53.8762 14.6747 53.8762 14.8778Z" fill="white"/>
<path d="M56.974 20.1283C56.974 20.3311 56.8096 20.4956 56.6067 20.4956C56.4038 20.4956 56.2393 20.3311 56.2393 20.1283V16.0439C56.2393 15.6029 55.8818 15.2454 55.4408 15.2454H55.0099C54.8068 15.2454 54.6423 15.0808 54.6423 14.8778C54.6423 14.6747 54.8068 14.5102 55.0099 14.5102H58.2035C58.4065 14.5102 58.5711 14.6747 58.5711 14.8778C58.5711 15.0808 58.4065 15.2454 58.2035 15.2454H57.7726C57.3315 15.2454 56.974 15.6029 56.974 16.0439V20.1283Z" fill="white"/>
<path d="M61.7809 20.4956C61.578 20.4956 61.4136 20.3311 61.4136 20.1283V14.8775C61.4136 14.6746 61.578 14.5102 61.7809 14.5102C61.9838 14.5102 62.1483 14.6746 62.1483 14.8775V20.1283C62.1483 20.3311 61.9838 20.4956 61.7809 20.4956Z" fill="white"/>
<path d="M65.4064 20.1283C65.4064 20.3311 65.242 20.4956 65.0391 20.4956C64.8362 20.4956 64.6717 20.3311 64.6717 20.1283V16.0439C64.6717 15.6029 64.3142 15.2454 63.8732 15.2454H63.4423C63.2392 15.2454 63.0746 15.0808 63.0746 14.8778C63.0746 14.6747 63.2392 14.5102 63.4423 14.5102H66.6359C66.8389 14.5102 67.0035 14.6747 67.0035 14.8778C67.0035 15.0808 66.8389 15.2454 66.6359 15.2454H66.205C65.7639 15.2454 65.4064 15.6029 65.4064 16.0439V20.1283Z" fill="white"/>
<path d="M74.4407 19.7225C73.8785 20.327 73.18 20.6293 72.3443 20.6293C71.5086 20.6293 70.8101 20.327 70.2489 19.7225C69.6867 19.1179 69.4065 18.3777 69.4065 17.5029C69.4065 16.628 69.6867 15.8878 70.2489 15.2833C70.8101 14.6787 71.5086 14.3755 72.3443 14.3755C73.1753 14.3755 73.8728 14.6797 74.4369 15.2873C75.001 15.8948 75.2831 16.633 75.2831 17.5029C75.2831 18.3777 75.002 19.1179 74.4407 19.7225ZM70.7911 19.2207C71.2142 19.6696 71.7316 19.8931 72.3443 19.8931C72.957 19.8931 73.4754 19.6686 73.8976 19.2207C74.3207 18.7718 74.5332 18.1992 74.5332 17.5029C74.5332 16.8066 74.3207 16.234 73.8976 15.785C73.4754 15.3361 72.957 15.1127 72.3443 15.1127C71.7316 15.1127 71.2142 15.3371 70.7911 15.785C70.369 16.234 70.1565 16.8066 70.1565 17.5029C70.1565 18.1992 70.369 18.7718 70.7911 19.2207Z" fill="white"/>
<path d="M76.6806 20.4956C76.4782 20.4956 76.3142 20.3316 76.3142 20.1292V15.0803C76.3142 14.7654 76.5694 14.5102 76.8843 14.5102C77.0851 14.5102 77.271 14.6157 77.3739 14.7881L79.9809 19.1562C79.9845 19.1622 79.9909 19.1658 79.9979 19.1658C80.009 19.1658 80.0179 19.1567 80.0176 19.1456L79.9867 18.0126V14.8775C79.9867 14.6746 80.1511 14.5102 80.354 14.5102C80.5569 14.5102 80.7214 14.6746 80.7214 14.8775V20.0065C80.7214 20.2766 80.5024 20.4956 80.2323 20.4956C80.0599 20.4956 79.9002 20.4049 79.812 20.2567L77.0527 15.6231C77.0491 15.6171 77.0427 15.6135 77.0358 15.6135C77.0247 15.6135 77.0158 15.6226 77.0161 15.6337L77.047 16.7667V20.1292C77.047 20.3316 76.8829 20.4956 76.6806 20.4956Z" fill="white"/>
<path d="M49.4832 17.7452C49.4832 18.5812 49.2469 19.2466 48.7733 19.7434C48.2359 20.3339 47.5345 20.6292 46.6731 20.6292C45.8479 20.6292 45.1456 20.3299 44.5691 19.7314C43.9916 19.1319 43.7029 18.3897 43.7029 17.5038C43.7029 16.617 43.9916 15.8748 44.5691 15.2762C45.1456 14.6767 45.8479 14.3774 46.6731 14.3774C47.0828 14.3774 47.4745 14.4612 47.8461 14.6278C48.1097 14.7464 48.3362 14.8924 48.525 15.0663C48.6577 15.1885 48.6471 15.3936 48.5226 15.5242C48.3719 15.6822 48.118 15.6672 47.9488 15.5293C47.6076 15.2514 47.1824 15.1126 46.6721 15.1126C46.0699 15.1126 45.5496 15.3341 45.1103 15.777C44.671 16.2199 44.4519 16.7955 44.4519 17.5028C44.4519 18.2101 44.671 18.7857 45.1103 19.2286C45.5496 19.6715 46.0699 19.893 46.6721 19.893C47.3106 19.893 47.8433 19.6705 48.2692 19.2246C48.3259 19.1651 48.3777 19.1007 48.4246 19.0316C48.7514 18.5499 48.2495 18.0126 47.6674 18.0126H47.0318C46.8332 18.0126 46.6721 17.8516 46.6721 17.653C46.6721 17.4543 46.8332 17.2933 47.0318 17.2933H48.9879C49.251 17.2933 49.4832 17.4821 49.4832 17.7452Z" stroke="url(#paint5_linear_478_31)" stroke-width="0.204511" stroke-miterlimit="10"/>
<path d="M53.8762 14.8778C53.8762 15.0808 53.7116 15.2454 53.5086 15.2454H52.2216C51.6976 15.2454 51.2729 15.6701 51.2729 16.1941C51.2729 16.718 51.6976 17.1428 52.2216 17.1428H53.2612C53.4598 17.1428 53.6208 17.3038 53.6208 17.5024C53.6208 17.701 53.4598 17.862 53.2612 17.862H52.2216C51.6976 17.862 51.2729 18.2867 51.2729 18.8107C51.2729 19.3346 51.6976 19.7594 52.2216 19.7594H53.5081C53.7114 19.7594 53.8762 19.9242 53.8762 20.1275C53.8762 20.3308 53.7114 20.4956 53.5081 20.4956H52.2072C51.2854 20.4956 50.5382 19.7484 50.5382 18.8266V16.1792C50.5382 15.2574 51.2854 14.5102 52.2072 14.5102H53.5086C53.7116 14.5102 53.8762 14.6747 53.8762 14.8778Z" stroke="url(#paint6_linear_478_31)" stroke-width="0.204511" stroke-miterlimit="10"/>
<path d="M56.974 20.1283C56.974 20.3311 56.8096 20.4956 56.6067 20.4956C56.4038 20.4956 56.2393 20.3311 56.2393 20.1283V16.0439C56.2393 15.6029 55.8818 15.2454 55.4408 15.2454H55.0099C54.8068 15.2454 54.6423 15.0808 54.6423 14.8778C54.6423 14.6747 54.8068 14.5102 55.0099 14.5102H58.2035C58.4065 14.5102 58.5711 14.6747 58.5711 14.8778C58.5711 15.0808 58.4065 15.2454 58.2035 15.2454H57.7726C57.3315 15.2454 56.974 15.6029 56.974 16.0439V20.1283Z" stroke="url(#paint7_linear_478_31)" stroke-width="0.204511" stroke-miterlimit="10"/>
<path d="M61.7809 20.4956C61.578 20.4956 61.4136 20.3311 61.4136 20.1283V14.8775C61.4136 14.6746 61.578 14.5102 61.7809 14.5102C61.9838 14.5102 62.1483 14.6746 62.1483 14.8775V20.1283C62.1483 20.3311 61.9838 20.4956 61.7809 20.4956Z" stroke="url(#paint8_linear_478_31)" stroke-width="0.204511" stroke-miterlimit="10"/>
<path d="M65.4064 20.1283C65.4064 20.3311 65.242 20.4956 65.0391 20.4956C64.8362 20.4956 64.6717 20.3311 64.6717 20.1283V16.0439C64.6717 15.6029 64.3142 15.2454 63.8732 15.2454H63.4423C63.2392 15.2454 63.0746 15.0808 63.0746 14.8778C63.0746 14.6747 63.2392 14.5102 63.4423 14.5102H66.6359C66.8389 14.5102 67.0035 14.6747 67.0035 14.8778C67.0035 15.0808 66.8389 15.2454 66.6359 15.2454H66.205C65.7639 15.2454 65.4064 15.6029 65.4064 16.0439V20.1283Z" stroke="url(#paint9_linear_478_31)" stroke-width="0.204511" stroke-miterlimit="10"/>
<path d="M74.4407 19.7225C73.8785 20.327 73.18 20.6293 72.3443 20.6293C71.5086 20.6293 70.8101 20.327 70.2489 19.7225C69.6867 19.1179 69.4065 18.3777 69.4065 17.5029C69.4065 16.628 69.6867 15.8878 70.2489 15.2833C70.8101 14.6787 71.5086 14.3755 72.3443 14.3755C73.1753 14.3755 73.8728 14.6797 74.4369 15.2873C75.001 15.8948 75.2831 16.633 75.2831 17.5029C75.2831 18.3777 75.002 19.1179 74.4407 19.7225ZM70.7911 19.2207C71.2142 19.6696 71.7316 19.8931 72.3443 19.8931C72.957 19.8931 73.4754 19.6686 73.8976 19.2207C74.3207 18.7718 74.5332 18.1992 74.5332 17.5029C74.5332 16.8066 74.3207 16.234 73.8976 15.785C73.4754 15.3361 72.957 15.1127 72.3443 15.1127C71.7316 15.1127 71.2142 15.3371 70.7911 15.785C70.369 16.234 70.1565 16.8066 70.1565 17.5029C70.1565 18.1992 70.369 18.7718 70.7911 19.2207Z" stroke="url(#paint10_linear_478_31)" stroke-width="0.204511" stroke-miterlimit="10"/>
<path d="M76.6806 20.4956C76.4782 20.4956 76.3142 20.3316 76.3142 20.1292V15.0803C76.3142 14.7654 76.5694 14.5102 76.8843 14.5102C77.0851 14.5102 77.271 14.6157 77.3739 14.7881L79.9809 19.1562C79.9845 19.1622 79.9909 19.1658 79.9979 19.1658C80.009 19.1658 80.0179 19.1567 80.0176 19.1456L79.9867 18.0126V14.8775C79.9867 14.6746 80.1511 14.5102 80.354 14.5102C80.5569 14.5102 80.7214 14.6746 80.7214 14.8775V20.0065C80.7214 20.2766 80.5024 20.4956 80.2323 20.4956C80.0599 20.4956 79.9002 20.4049 79.812 20.2567L77.0527 15.6231C77.0491 15.6171 77.0427 15.6135 77.0358 15.6135C77.0247 15.6135 77.0158 15.6226 77.0161 15.6337L77.047 16.7667V20.1292C77.047 20.3316 76.8829 20.4956 76.6806 20.4956Z" stroke="url(#paint11_linear_478_31)" stroke-width="0.204511" stroke-miterlimit="10"/>
<defs>
<filter id="filter0_ii_478_31" x="14.1063" y="14.5663" width="23.3167" height="27.4085" filterUnits="userSpaceOnUse" color-interpolation-filters="sRGB">
<feFlood flood-opacity="0" result="BackgroundImageFix"/>
<feBlend mode="normal" in="SourceGraphic" in2="BackgroundImageFix" result="shape"/>
<feColorMatrix in="SourceAlpha" type="matrix" values="0 0 0 0 0 0 0 0 0 0 0 0 0 0 0 0 0 0 127 0" result="hardAlpha"/>
<feOffset dy="-0.795"/>
<feComposite in2="hardAlpha" operator="arithmetic" k2="-1" k3="1"/>
<feColorMatrix type="matrix" values="0 0 0 0 0 0 0 0 0 0 0 0 0 0 0 0 0 0 0.12 0"/>
<feBlend mode="normal" in2="shape" result="effect1_innerShadow_478_31"/>
<feColorMatrix in="SourceAlpha" type="matrix" values="0 0 0 0 0 0 0 0 0 0 0 0 0 0 0 0 0 0 127 0" result="hardAlpha"/>
<feOffset dy="0.795"/>
<feComposite in2="hardAlpha" operator="arithmetic" k2="-1" k3="1"/>
<feColorMatrix type="matrix" values="0 0 0 0 1 0 0 0 0 1 0 0 0 0 1 0 0 0 0.25 0"/>
<feBlend mode="normal" in2="effect1_innerShadow_478_31" result="effect2_innerShadow_478_31"/>
</filter>
<filter id="filter1_i_478_31" x="15.6232" y="29.5319" width="14.252" height="12.4429" filterUnits="userSpaceOnUse" color-interpolation-filters="sRGB">
<feFlood flood-opacity="0" result="BackgroundImageFix"/>
<feBlend mode="normal" in="SourceGraphic" in2="BackgroundImageFix" result="shape"/>
<feColorMatrix in="SourceAlpha" type="matrix" values="0 0 0 0 0 0 0 0 0 0 0 0 0 0 0 0 0 0 127 0" result="hardAlpha"/>
<feOffset dy="-0.795"/>
<feComposite in2="hardAlpha" operator="arithmetic" k2="-1" k3="1"/>
<feColorMatrix type="matrix" values="0 0 0 0 0 0 0 0 0 0 0 0 0 0 0 0 0 0 0.08 0"/>
<feBlend mode="normal" in2="shape" result="effect1_innerShadow_478_31"/>
</filter>
<linearGradient id="paint0_linear_478_31" x1="68" y1="0" x2="68" y2="54.0232" gradientUnits="userSpaceOnUse">
<stop stop-color="white"/>
<stop offset="1" stop-color="white" stop-opacity="0"/>
</linearGradient>
<linearGradient id="paint1_linear_478_31" x1="26.0505" y1="16.07" x2="7.95953" y2="32.9785" gradientUnits="userSpaceOnUse">
<stop stop-color="#00A0FF"/>
<stop offset="0.0066" stop-color="#00A1FF"/>
<stop offset="0.2601" stop-color="#00BEFF"/>
<stop offset="0.5122" stop-color="#00D2FF"/>
<stop offset="0.7604" stop-color="#00DFFF"/>
<stop offset="1" stop-color="#00E3FF"/>
</linearGradient>
<linearGradient id="paint2_linear_478_31" x1="38.2013" y1="28.2701" x2="13.7673" y2="28.2701" gradientUnits="userSpaceOnUse">
<stop stop-color="#FFE000"/>
<stop offset="0.4087" stop-color="#FFBD00"/>
<stop offset="0.7754" stop-color="#FFA500"/>
<stop offset="1" stop-color="#FF9C00"/>
</linearGradient>
<linearGradient id="paint3_linear_478_31" x1="29.1075" y1="30.7486" x2="4.57381" y2="53.6786" gradientUnits="userSpaceOnUse">
<stop stop-color="#FF3A44"/>
<stop offset="1" stop-color="#C31162"/>
</linearGradient>
<linearGradient id="paint4_linear_478_31" x1="11.4042" y1="6.85098" x2="22.3592" y2="17.0899" gradientUnits="userSpaceOnUse">
<stop stop-color="#32A071"/>
<stop offset="0.0685" stop-color="#2DA771"/>
<stop offset="0.4762" stop-color="#15CF74"/>
<stop offset="0.8009" stop-color="#06E775"/>
<stop offset="1" stop-color="#00F076"/>
</linearGradient>
<linearGradient id="paint5_linear_478_31" x1="62.2121" y1="14.3755" x2="62.2121" y2="20.6293" gradientUnits="userSpaceOnUse">
<stop stop-color="white"/>
<stop offset="1" stop-color="white" stop-opacity="0"/>
</linearGradient>
<linearGradient id="paint6_linear_478_31" x1="62.2121" y1="14.3755" x2="62.2121" y2="20.6293" gradientUnits="userSpaceOnUse">
<stop stop-color="white"/>
<stop offset="1" stop-color="white" stop-opacity="0"/>
</linearGradient>
<linearGradient id="paint7_linear_478_31" x1="62.2121" y1="14.3755" x2="62.2121" y2="20.6293" gradientUnits="userSpaceOnUse">
<stop stop-color="white"/>
<stop offset="1" stop-color="white" stop-opacity="0"/>
</linearGradient>
<linearGradient id="paint8_linear_478_31" x1="62.2121" y1="14.3755" x2="62.2121" y2="20.6293" gradientUnits="userSpaceOnUse">
<stop stop-color="white"/>
<stop offset="1" stop-color="white" stop-opacity="0"/>
</linearGradient>
<linearGradient id="paint9_linear_478_31" x1="62.2121" y1="14.3755" x2="62.2121" y2="20.6293" gradientUnits="userSpaceOnUse">
<stop stop-color="white"/>
<stop offset="1" stop-color="white" stop-opacity="0"/>
</linearGradient>
<linearGradient id="paint10_linear_478_31" x1="62.2121" y1="14.3755" x2="62.2121" y2="20.6293" gradientUnits="userSpaceOnUse">
<stop stop-color="white"/>
<stop offset="1" stop-color="white" stop-opacity="0"/>
</linearGradient>
<linearGradient id="paint11_linear_478_31" x1="62.2121" y1="14.3755" x2="62.2121" y2="20.6293" gradientUnits="userSpaceOnUse">
<stop stop-color="white"/>
<stop offset="1" stop-color="white" stop-opacity="0"/>
</linearGradient>
</defs>
</svg>
